SplineFontDB: 3.0
FontName: Megrim
FullName: Megrim
FamilyName: Megrim
Weight: Medium
Copyright: Copyright (c) 2010, 2011 by Daniel Johnson. Released under the terms of the SIL Open Font License.
Version: 20110427
ItalicAngle: 0
UnderlinePosition: -100
UnderlineWidth: 50
Ascent: 800
Descent: 200
sfntRevision: 0xdc5b0000
LayerCount: 2
Layer: 0 1 "Back"  1
Layer: 1 1 "Fore"  0
XUID: [1021 288 713564382 1838330]
FSType: 0
OS2Version: 2
OS2_WeightWidthSlopeOnly: 0
OS2_UseTypoMetrics: 1
CreationTime: 1273078717
ModificationTime: 1304002819
PfmFamily: 17
TTFWeight: 500
TTFWidth: 5
LineGap: 90
VLineGap: 0
Panose: 2 0 6 3 0 0 0 0 0 0
OS2TypoAscent: 0
OS2TypoAOffset: 1
OS2TypoDescent: 0
OS2TypoDOffset: 1
OS2TypoLinegap: 90
OS2WinAscent: 0
OS2WinAOffset: 1
OS2WinDescent: 0
OS2WinDOffset: 1
HheadAscent: 0
HheadAOffset: 1
HheadDescent: 0
HheadDOffset: 1
OS2SubXSize: 650
OS2SubYSize: 700
OS2SubXOff: 0
OS2SubYOff: 140
OS2SupXSize: 650
OS2SupYSize: 700
OS2SupXOff: 0
OS2SupYOff: 480
OS2StrikeYSize: 49
OS2StrikeYPos: 258
OS2Vendor: 'PfEd'
OS2CodePages: 00000001.00000000
OS2UnicodeRanges: 8000002f.0000000a.00000000.00000000
Lookup: 1 0 0 "'aalt' Access All Alternates in Latin lookup 0"  {"'aalt' Access All Alternates in Latin lookup 0 subtable"  } ['aalt' ('latn' <'dflt' > ) ]
Lookup: 1 0 0 "'ss01' Style Set 1 lookup 1"  {"'ss01' Style Set 1 lookup 1 subtable"  } ['ss01' ('    ' <'dflt' > 'latn' <'dflt' > ) ]
Lookup: 1 0 0 "'locl' Localized Forms in Latin lookup 2"  {"'locl' Localized Forms in Latin lookup 2 subtable"  } ['locl' ('latn' <'TRK ' > ) ]
Lookup: 258 0 0 "'kern' Horizontal Kerning in Latin lookup 0"  {"'kern' Horizontal Kerning in Latin lookup 0 per glyph data 0"  "'kern' Horizontal Kerning in Latin lookup 0 kerning class 1"  } ['kern' ('latn' <'dflt' > ) ]
MarkAttachClasses: 1
DEI: 91125
KernClass2: 71+ 52 "'kern' Horizontal Kerning in Latin lookup 0 kerning class 1" 
 20 quotedbl quotesingle
 8 asterisk
 20 hyphen endash emdash

StartChar: .notdef
Encoding: 65536 -1 0
Width: 500
Flags: W
LayerCount: 2
Fore
SplineSet
50 0 m 1,0,-1
 50 580 l 1,1,-1
 450 580 l 1,2,-1
 450 0 l 1,3,-1
 50 0 l 1,0,-1
80 30 m 1,4,-1
 420 30 l 1,5,-1
 420 550 l 1,6,-1
 80 550 l 1,7,-1
 80 30 l 1,4,-1
EndSplineSet
EndChar

StartChar: exclam
Encoding: 33 33 4
Width: 240
GlyphClass: 2
Flags: W
LayerCount: 2
Fore
SplineSet
87 58 m 1,0,-1
 153 58 l 1,1,-1
 153 0 l 1,2,-1
 87 0 l 1,3,-1
 87 58 l 1,0,-1
135 135 m 1,4,-1
 105 135 l 1,5,-1
 105 700 l 1,6,-1
 135 700 l 1,7,-1
 135 135 l 1,4,-1
EndSplineSet
EndChar

StartChar: quotedbl
Encoding: 34 34 5
Width: 306
GlyphClass: 2
Flags: W
LayerCount: 2
Fore
SplineSet
193 700 m 1,0,-1
 223 700 l 1,1,-1
 223 518 l 1,2,-1
 193 518 l 1,3,-1
 193 700 l 1,0,-1
83 700 m 1,4,-1
 113 700 l 1,5,-1
 113 518 l 1,6,-1
 83 518 l 1,7,-1
 83 700 l 1,4,-1
EndSplineSet
EndChar

StartChar: numbersign
Encoding: 35 35 6
Width: 582
GlyphClass: 2
Flags: W
LayerCount: 2
Fore
SplineSet
146 3 m 1,0,-1
 116 8 l 1,1,-1
 156 235 l 1,2,-1
 57 235 l 1,3,-1
 57 265 l 1,4,-1
 162 265 l 1,5,-1
 192 435 l 1,6,-1
 77 435 l 1,7,-1
 77 465 l 1,8,-1
 197 465 l 1,9,-1
 238 697 l 1,10,-1
 268 692 l 1,11,-1
 228 465 l 1,12,-1
 395 465 l 1,13,-1
 436 697 l 1,14,-1
 466 692 l 1,15,-1
 426 465 l 1,16,-1
 525 465 l 1,17,-1
 525 435 l 1,18,-1
 420 435 l 1,19,-1
 390 265 l 1,20,-1
 505 265 l 1,21,-1
 505 235 l 1,22,-1
 385 235 l 1,23,-1
 344 3 l 1,24,-1
 314 8 l 1,25,-1
 354 235 l 1,26,-1
 187 235 l 1,27,-1
 146 3 l 1,0,-1
222 435 m 1,28,-1
 192 265 l 1,29,-1
 360 265 l 1,30,-1
 390 435 l 1,31,-1
 222 435 l 1,28,-1
EndSplineSet
EndChar

StartChar: dollar
Encoding: 36 36 7
Width: 526
GlyphClass: 2
Flags: W
LayerCount: 2
Fore
SplineSet
267 0 m 1,0,-1
 237 0 l 1,1,-1
 237 47 l 1,2,3
 114 51 114 51 66 102 c 1,4,-1
 86 124 l 1,5,6
 135 79 135 79 237 77 c 1,7,-1
 237 345 l 1,8,9
 198 357 198 357 173 367.5 c 128,-1,10
 148 378 148 378 121.5 395.5 c 128,-1,11
 95 413 95 413 82 439 c 128,-1,12
 69 465 69 465 69 500 c 0,13,14
 69 574 69 574 116 611.5 c 128,-1,15
 163 649 163 649 237 652 c 1,16,-1
 237 700 l 1,17,-1
 267 700 l 1,18,-1
 267 652 l 1,19,20
 378 649 378 649 427 597 c 1,21,-1
 407 575 l 1,22,23
 362 618 362 618 267 622 c 1,24,-1
 267 368 l 1,25,26
 302 358 302 358 317 353 c 128,-1,27
 332 348 332 348 361.5 337 c 128,-1,28
 391 326 391 326 405.5 315 c 128,-1,29
 420 304 420 304 437.5 287 c 128,-1,30
 455 270 455 270 462 248 c 128,-1,31
 469 226 469 226 469 198 c 0,32,33
 469 132 469 132 417 91.5 c 128,-1,34
 365 51 365 51 267 47 c 1,35,-1
 267 0 l 1,0,-1
267 336 m 1,36,-1
 267 78 l 1,37,38
 352 83 352 83 395.5 117.5 c 128,-1,39
 439 152 439 152 439 197 c 0,40,41
 439 222 439 222 428.5 242.5 c 128,-1,42
 418 263 418 263 404.5 276 c 128,-1,43
 391 289 391 289 364.5 301 c 128,-1,44
 338 313 338 313 319.5 319.5 c 128,-1,45
 301 326 301 326 267 336 c 1,36,-1
237 377 m 1,46,-1
 237 622 l 1,47,48
 99 615 99 615 99 498 c 0,49,50
 99 449 99 449 134.5 423 c 128,-1,51
 170 397 170 397 237 377 c 1,46,-1
EndSplineSet
EndChar

StartChar: percent
Encoding: 37 37 8
Width: 582
GlyphClass: 2
Flags: W
LayerCount: 2
Fore
SplineSet
421 289 m 0,0,1
 391 289 391 289 371 268 c 128,-1,2
 351 247 351 247 351 219 c 0,3,4
 351 189 351 189 372 169 c 128,-1,5
 393 149 393 149 421 149 c 0,6,7
 451 149 451 149 471 170 c 128,-1,8
 491 191 491 191 491 219 c 0,9,10
 491 249 491 249 470 269 c 128,-1,11
 449 289 449 289 421 289 c 0,0,1
321 219 m 0,12,13
 321 262 321 262 351 290.5 c 128,-1,14
 381 319 381 319 421 319 c 0,15,16
 464 319 464 319 492.5 289 c 128,-1,17
 521 259 521 259 521 219 c 0,18,19
 521 176 521 176 491 147.5 c 128,-1,20
 461 119 461 119 421 119 c 0,21,22
 378 119 378 119 349.5 149 c 128,-1,23
 321 179 321 179 321 219 c 0,12,13
159 551 m 0,24,25
 129 551 129 551 109 530 c 128,-1,26
 89 509 89 509 89 481 c 0,27,28
 89 451 89 451 110 431 c 128,-1,29
 131 411 131 411 159 411 c 0,30,31
 189 411 189 411 209 432 c 128,-1,32
 229 453 229 453 229 481 c 0,33,34
 229 511 229 511 208 531 c 128,-1,35
 187 551 187 551 159 551 c 0,24,25
59 481 m 0,36,37
 59 524 59 524 89 552.5 c 128,-1,38
 119 581 119 581 159 581 c 0,39,40
 202 581 202 581 230.5 551 c 128,-1,41
 259 521 259 521 259 481 c 0,42,43
 259 438 259 438 229 409.5 c 128,-1,44
 199 381 199 381 159 381 c 0,45,46
 116 381 116 381 87.5 411 c 128,-1,47
 59 441 59 441 59 481 c 0,36,37
138 177 m 1,48,-1
 117 198 l 1,49,-1
 442 523 l 1,50,-1
 463 502 l 1,51,-1
 138 177 l 1,48,-1
EndSplineSet
EndChar

StartChar: ampersand
Encoding: 38 38 9
Width: 586
GlyphClass: 2
Flags: W
LayerCount: 2
Fore
SplineSet
161 670 m 1,0,-1
 444 137 l 1,1,2
 494 220 494 220 494 334 c 1,3,-1
 524 334 l 1,4,5
 524 194 524 194 462 103 c 1,6,-1
 517 0 l 1,7,-1
 483 0 l 1,8,-1
 442 78 l 1,9,10
 368 -5 368 -5 252 -5 c 0,11,12
 172 -5 172 -5 112 56.5 c 128,-1,13
 52 118 52 118 52 224 c 0,14,15
 52 307 52 307 105 362 c 128,-1,16
 158 417 158 417 254 430 c 1,17,-1
 111 700 l 1,18,-1
 494 700 l 1,19,-1
 494 670 l 1,20,-1
 161 670 l 1,0,-1
425 109 m 1,21,-1
 270 401 l 1,22,23
 186 390 186 390 134 341 c 128,-1,24
 82 292 82 292 82 224 c 0,25,26
 82 139 82 139 134 82 c 128,-1,27
 186 25 186 25 252 25 c 0,28,29
 358 25 358 25 425 109 c 1,21,-1
EndSplineSet
EndChar

StartChar: quotesingle
Encoding: 39 39 10
Width: 196
GlyphClass: 2
Flags: W
LayerCount: 2
Fore
SplineSet
83 700 m 1,0,-1
 113 700 l 1,1,-1
 113 518 l 1,2,-1
 83 518 l 1,3,-1
 83 700 l 1,0,-1
EndSplineSet
EndChar

StartChar: parenleft
Encoding: 40 40 11
Width: 245
GlyphClass: 2
Flags: W
LayerCount: 2
Fore
SplineSet
82 221 m 2,0,-1
 82 479 l 2,1,2
 82 689 82 689 177 754 c 1,3,-1
 196 730 l 1,4,5
 112 673 112 673 112 479 c 2,6,-1
 112 221 l 2,7,8
 112 27 112 27 196 -30 c 1,9,-1
 177 -54 l 1,10,11
 82 11 82 11 82 221 c 2,0,-1
EndSplineSet
EndChar

StartChar: parenright
Encoding: 41 41 12
Width: 245
GlyphClass: 2
Flags: W
LayerCount: 2
Fore
SplineSet
163 479 m 2,0,-1
 163 221 l 2,1,2
 163 11 163 11 68 -54 c 1,3,-1
 49 -30 l 1,4,5
 133 27 133 27 133 221 c 2,6,-1
 133 479 l 2,7,8
 133 673 133 673 49 730 c 1,9,-1
 68 754 l 1,10,11
 163 689 163 689 163 479 c 2,0,-1
EndSplineSet
EndChar

StartChar: asterisk
Encoding: 42 42 13
Width: 436
GlyphClass: 2
Flags: W
LayerCount: 2
Fore
SplineSet
132 400 m 1,0,-1
 113 414 l 1,1,-1
 199 532 l 1,2,-1
 60 577 l 1,3,-1
 68 600 l 1,4,-1
 206 555 l 1,5,-1
 206 700 l 1,6,-1
 230 700 l 1,7,-1
 230 555 l 1,8,-1
 368 600 l 1,9,-1
 376 577 l 1,10,-1
 237 532 l 1,11,-1
 323 414 l 1,12,-1
 304 400 l 1,13,-1
 218 518 l 1,14,-1
 132 400 l 1,0,-1
EndSplineSet
EndChar

StartChar: plus
Encoding: 43 43 14
Width: 390
GlyphClass: 2
Flags: W
LayerCount: 2
Fore
SplineSet
66 235 m 1,0,-1
 66 265 l 1,1,-1
 180 265 l 1,2,-1
 180 379 l 1,3,-1
 210 379 l 1,4,-1
 210 265 l 1,5,-1
 324 265 l 1,6,-1
 324 235 l 1,7,-1
 210 235 l 1,8,-1
 210 121 l 1,9,-1
 180 121 l 1,10,-1
 180 235 l 1,11,-1
 66 235 l 1,0,-1
EndSplineSet
EndChar

StartChar: comma
Encoding: 44 44 15
Width: 224
GlyphClass: 2
Flags: W
LayerCount: 2
Fore
SplineSet
66 -156 m 1,0,1
 77 -141 77 -141 92.5 -94 c 128,-1,2
 108 -47 108 -47 108 0 c 1,3,-1
 79 0 l 1,4,-1
 79 58 l 1,5,-1
 145 58 l 1,6,7
 145 -93 145 -93 91 -172 c 1,8,-1
 66 -156 l 1,0,1
EndSplineSet
EndChar

StartChar: hyphen
Encoding: 45 45 16
Width: 364
GlyphClass: 2
Flags: W
LayerCount: 2
Fore
SplineSet
83 235 m 1,0,-1
 83 265 l 1,1,-1
 281 265 l 1,2,-1
 281 235 l 1,3,-1
 83 235 l 1,0,-1
EndSplineSet
EndChar

StartChar: period
Encoding: 46 46 17
Width: 224
GlyphClass: 2
Flags: W
LayerCount: 2
Fore
SplineSet
79 58 m 1,0,-1
 145 58 l 1,1,-1
 145 0 l 1,2,-1
 79 0 l 1,3,-1
 79 58 l 1,0,-1
EndSplineSet
EndChar

StartChar: slash
Encoding: 47 47 18
Width: 411
GlyphClass: 2
Flags: W
LayerCount: 2
Fore
SplineSet
66 -36 m 1,0,-1
 39 -25 l 1,1,-1
 346 736 l 1,2,-1
 373 725 l 1,3,-1
 66 -36 l 1,0,-1
EndSplineSet
EndChar

StartChar: zero
Encoding: 48 48 19
Width: 566
GlyphClass: 2
Flags: W
LayerCount: 2
Fore
SplineSet
283 -10 m 128,-1,1
 176 -10 176 -10 124.5 87 c 128,-1,2
 73 184 73 184 73 350 c 128,-1,3
 73 516 73 516 124.5 613 c 128,-1,4
 176 710 176 710 283 710 c 128,-1,5
 390 710 390 710 441.5 612.5 c 128,-1,6
 493 515 493 515 493 350 c 128,-1,7
 493 185 493 185 441.5 87.5 c 128,-1,0
 390 -10 390 -10 283 -10 c 128,-1,1
283 680 m 128,-1,9
 196 680 196 680 149.5 590 c 128,-1,10
 103 500 103 500 103 350 c 128,-1,11
 103 200 103 200 149.5 110 c 128,-1,12
 196 20 196 20 283 20 c 128,-1,13
 370 20 370 20 416.5 110.5 c 128,-1,14
 463 201 463 201 463 350 c 128,-1,15
 463 499 463 499 416.5 589.5 c 128,-1,8
 370 680 370 680 283 680 c 128,-1,9
EndSplineSet
EndChar

StartChar: one
Encoding: 49 49 20
Width: 261
GlyphClass: 2
Flags: W
LayerCount: 2
Fore
SplineSet
161 0 m 1,0,-1
 131 0 l 1,1,-1
 131 591 l 1,2,-1
 78 408 l 1,3,-1
 47 408 l 1,4,-1
 131 700 l 1,5,-1
 161 700 l 1,6,-1
 161 0 l 1,0,-1
EndSplineSet
EndChar

StartChar: two
Encoding: 50 50 21
Width: 527
GlyphClass: 2
Flags: W
LayerCount: 2
Fore
SplineSet
460 0 m 1,0,-1
 64 0 l 1,1,-1
 64 70 l 2,2,3
 64 116 64 116 91.5 161 c 128,-1,4
 119 206 119 206 160 240 c 128,-1,5
 201 274 201 274 249 311.5 c 128,-1,6
 297 349 297 349 338 380.5 c 128,-1,7
 379 412 379 412 406.5 451 c 128,-1,8
 434 490 434 490 434 527 c 0,9,10
 434 577 434 577 420 609 c 128,-1,11
 406 641 406 641 378.5 655.5 c 128,-1,12
 351 670 351 670 323.5 675 c 128,-1,13
 296 680 296 680 256 680 c 0,14,15
 198 680 198 680 158.5 653 c 128,-1,16
 119 626 119 626 98 559 c 1,17,-1
 206 478 l 1,18,-1
 157 478 l 1,19,-1
 64 548 l 1,20,21
 85 630 85 630 132 670 c 128,-1,22
 179 710 179 710 256 710 c 0,23,24
 366 710 366 710 415 667 c 128,-1,25
 464 624 464 624 464 527 c 0,26,27
 464 483 464 483 436.5 440 c 128,-1,28
 409 397 409 397 368 364 c 128,-1,29
 327 331 327 331 279 294.5 c 128,-1,30
 231 258 231 258 190 226 c 128,-1,31
 149 194 149 194 121.5 153 c 128,-1,32
 94 112 94 112 94 70 c 2,33,-1
 94 30 l 1,34,-1
 460 30 l 1,35,-1
 460 0 l 1,0,-1
EndSplineSet
EndChar

StartChar: three
Encoding: 51 51 22
Width: 557
GlyphClass: 2
Flags: W
LayerCount: 2
Fore
SplineSet
87 700 m 1,0,-1
 479 700 l 1,1,-1
 268 432 l 1,2,3
 313 426 313 426 352 411.5 c 128,-1,4
 391 397 391 397 425 371.5 c 128,-1,5
 459 346 459 346 479 305 c 128,-1,6
 499 264 499 264 499 212 c 0,7,8
 499 109 499 109 437.5 49.5 c 128,-1,9
 376 -10 376 -10 271 -10 c 0,10,11
 223 -10 223 -10 181 3 c 128,-1,12
 139 16 139 16 113.5 34 c 128,-1,13
 88 52 88 52 69 70 c 128,-1,14
 50 88 50 88 42 101 c 2,15,-1
 35 114 l 1,16,-1
 63 126 l 1,17,18
 66 122 66 122 71 114.5 c 128,-1,19
 76 107 76 107 95 89 c 128,-1,20
 114 71 114 71 136 57 c 128,-1,21
 158 43 158 43 194.5 31.5 c 128,-1,22
 231 20 231 20 271 20 c 0,23,24
 366 20 366 20 417.5 71.5 c 128,-1,25
 469 123 469 123 469 212 c 0,26,27
 469 295 469 295 412 341 c 128,-1,28
 355 387 355 387 264 402 c 2,29,-1
 214 410 l 1,30,-1
 417 670 l 1,31,-1
 87 670 l 1,32,-1
 87 700 l 1,0,-1
EndSplineSet
EndChar

StartChar: four
Encoding: 52 52 23
Width: 460
GlyphClass: 2
Flags: W
LayerCount: 2
Fore
SplineSet
337 0 m 1,0,-1
 307 0 l 1,1,-1
 307 204 l 1,2,-1
 33 204 l 1,3,-1
 33 234 l 1,4,-1
 302 700 l 1,5,-1
 337 700 l 1,6,-1
 337 234 l 1,7,-1
 417 234 l 1,8,-1
 417 204 l 1,9,-1
 337 204 l 1,10,-1
 337 0 l 1,0,-1
307 234 m 1,11,-1
 307 649 l 1,12,-1
 68 234 l 1,13,-1
 307 234 l 1,11,-1
EndSplineSet
EndChar

StartChar: five
Encoding: 53 53 24
Width: 532
GlyphClass: 2
Flags: W
LayerCount: 2
Fore
SplineSet
139 482 m 1,0,-1
 248 482 l 2,1,2
 341 482 341 482 410 412 c 128,-1,3
 479 342 479 342 479 237 c 0,4,5
 479 131 479 131 416.5 60.5 c 128,-1,6
 354 -10 354 -10 251 -10 c 0,7,8
 203 -10 203 -10 164 2.5 c 128,-1,9
 125 15 125 15 103.5 33 c 128,-1,10
 82 51 82 51 67 69 c 128,-1,11
 52 87 52 87 48 100 c 1,12,-1
 43 112 l 1,13,-1
 71 124 l 1,14,15
 72 120 72 120 75.5 113 c 128,-1,16
 79 106 79 106 93 88 c 128,-1,17
 107 70 107 70 125.5 56 c 128,-1,18
 144 42 144 42 177.5 31 c 128,-1,19
 211 20 211 20 251 20 c 0,20,21
 343 20 343 20 396 82.5 c 128,-1,22
 449 145 449 145 449 237 c 0,23,24
 449 325 449 325 388.5 388.5 c 128,-1,25
 328 452 328 452 244 452 c 2,26,-1
 109 452 l 1,27,-1
 109 700 l 1,28,-1
 405 700 l 1,29,-1
 405 670 l 1,30,-1
 139 670 l 1,31,-1
 139 482 l 1,0,-1
EndSplineSet
EndChar

StartChar: six
Encoding: 54 54 25
Width: 526
GlyphClass: 2
Flags: W
LayerCount: 2
Fore
SplineSet
84 238 m 0,0,1
 84 137 84 137 138 78 c 128,-1,2
 192 19 192 19 281 19 c 0,3,4
 347 19 347 19 395.5 54 c 128,-1,5
 444 89 444 89 444 173 c 0,6,7
 444 216 444 216 426 249.5 c 128,-1,8
 408 283 408 283 381.5 300.5 c 128,-1,9
 355 318 355 318 330 326.5 c 128,-1,10
 305 335 305 335 286 335 c 0,11,12
 257 335 257 335 227.5 326 c 128,-1,13
 198 317 198 317 183.5 309 c 128,-1,14
 169 301 169 301 165 297 c 1,15,-1
 147 322 l 1,16,17
 154 327 154 327 165.5 334 c 128,-1,18
 177 341 177 341 213 353 c 128,-1,19
 249 365 249 365 285 365 c 0,20,21
 351 365 351 365 412.5 314.5 c 128,-1,22
 474 264 474 264 474 172 c 0,23,24
 474 78 474 78 418.5 34 c 128,-1,25
 363 -10 363 -10 280 -10 c 0,26,27
 179 -10 179 -10 116.5 58 c 128,-1,28
 54 126 54 126 54 239 c 0,29,30
 54 303 54 303 77.5 376.5 c 128,-1,31
 101 450 101 450 144 520.5 c 128,-1,32
 187 591 187 591 260 644 c 128,-1,33
 333 697 333 697 422 711 c 1,34,-1
 430 682 l 1,35,36
 363 672 363 672 305 637.5 c 128,-1,37
 247 603 247 603 207.5 555.5 c 128,-1,38
 168 508 168 508 139.5 451.5 c 128,-1,39
 111 395 111 395 97.5 340.5 c 128,-1,40
 84 286 84 286 84 238 c 0,0,1
EndSplineSet
EndChar

StartChar: seven
Encoding: 55 55 26
Width: 412
GlyphClass: 2
Flags: W
LayerCount: 2
Fore
SplineSet
403 700 m 1,0,1
 393 683 393 683 376 653.5 c 128,-1,2
 359 624 359 624 316 536.5 c 128,-1,3
 273 449 273 449 240.5 367.5 c 128,-1,4
 208 286 208 286 181 183 c 128,-1,5
 154 80 154 80 154 0 c 1,6,-1
 124 0 l 1,7,8
 124 111 124 111 167.5 253.5 c 128,-1,9
 211 396 211 396 259 496 c 128,-1,10
 307 596 307 596 353 670 c 1,11,-1
 25 670 l 1,12,-1
 25 700 l 1,13,-1
 403 700 l 1,0,1
EndSplineSet
EndChar

StartChar: eight
Encoding: 56 56 27
Width: 584
GlyphClass: 2
Flags: W
LayerCount: 2
Fore
SplineSet
291 -10 m 128,-1,1
 178 -10 178 -10 119.5 47.5 c 128,-1,2
 61 105 61 105 61 195 c 0,3,4
 61 322 61 322 183 368 c 1,5,6
 99 415 99 415 99 515 c 0,7,8
 99 600 99 600 153.5 655 c 128,-1,9
 208 710 208 710 291 710 c 0,10,11
 375 710 375 710 430 655 c 128,-1,12
 485 600 485 600 485 515 c 0,13,14
 485 415 485 415 401 368 c 1,15,16
 523 322 523 322 523 195 c 0,17,18
 523 105 523 105 463.5 47.5 c 128,-1,0
 404 -10 404 -10 291 -10 c 128,-1,1
292 680 m 128,-1,20
 266 680 266 680 239 671 c 128,-1,21
 212 662 212 662 186.5 644 c 128,-1,22
 161 626 161 626 145 592.5 c 128,-1,23
 129 559 129 559 129 515 c 0,24,25
 129 432 129 432 198 394 c 1,26,-1
 254 362 l 1,27,-1
 194 340 l 2,28,29
 91 302 91 302 91 195 c 0,30,31
 91 105 91 105 151 62.5 c 128,-1,32
 211 20 211 20 291 20 c 128,-1,33
 371 20 371 20 432 62.5 c 128,-1,34
 493 105 493 105 493 195 c 0,35,36
 493 302 493 302 390 340 c 2,37,-1
 330 362 l 1,38,-1
 386 394 l 1,39,40
 455 432 455 432 455 515 c 0,41,42
 455 559 455 559 439 592.5 c 128,-1,43
 423 626 423 626 397.5 644 c 128,-1,44
 372 662 372 662 345 671 c 128,-1,19
 318 680 318 680 292 680 c 128,-1,20
EndSplineSet
EndChar

StartChar: nine
Encoding: 57 57 28
Width: 527
GlyphClass: 2
Flags: W
LayerCount: 2
Fore
SplineSet
442 462 m 0,0,1
 442 563 442 563 388 622 c 128,-1,2
 334 681 334 681 245 681 c 0,3,4
 179 681 179 681 130.5 646 c 128,-1,5
 82 611 82 611 82 527 c 0,6,7
 82 484 82 484 100 450.5 c 128,-1,8
 118 417 118 417 144.5 399.5 c 128,-1,9
 171 382 171 382 196 373.5 c 128,-1,10
 221 365 221 365 240 365 c 0,11,12
 269 365 269 365 298.5 374 c 128,-1,13
 328 383 328 383 342.5 391 c 128,-1,14
 357 399 357 399 361 403 c 1,15,-1
 379 378 l 1,16,17
 372 373 372 373 360.5 366 c 128,-1,18
 349 359 349 359 313 347 c 128,-1,19
 277 335 277 335 241 335 c 0,20,21
 175 335 175 335 113.5 385.5 c 128,-1,22
 52 436 52 436 52 528 c 0,23,24
 52 622 52 622 107.5 666 c 128,-1,25
 163 710 163 710 246 710 c 0,26,27
 347 710 347 710 409.5 642 c 128,-1,28
 472 574 472 574 472 461 c 0,29,30
 472 397 472 397 448.5 323.5 c 128,-1,31
 425 250 425 250 382 179.5 c 128,-1,32
 339 109 339 109 266 56 c 128,-1,33
 193 3 193 3 104 -11 c 1,34,-1
 96 18 l 1,35,36
 163 28 163 28 221 62.5 c 128,-1,37
 279 97 279 97 318.5 144.5 c 128,-1,38
 358 192 358 192 386.5 248.5 c 128,-1,39
 415 305 415 305 428.5 359.5 c 128,-1,40
 442 414 442 414 442 462 c 0,0,1
EndSplineSet
EndChar

StartChar: colon
Encoding: 58 58 29
Width: 244
GlyphClass: 2
Flags: W
LayerCount: 2
Fore
SplineSet
89 158 m 1,0,-1
 155 158 l 1,1,-1
 155 100 l 1,2,-1
 89 100 l 1,3,-1
 89 158 l 1,0,-1
89 358 m 1,4,-1
 155 358 l 1,5,-1
 155 300 l 1,6,-1
 89 300 l 1,7,-1
 89 358 l 1,4,-1
EndSplineSet
EndChar

StartChar: semicolon
Encoding: 59 59 30
Width: 262
GlyphClass: 2
Flags: W
LayerCount: 2
Fore
SplineSet
101 358 m 1,0,-1
 167 358 l 1,1,-1
 167 300 l 1,2,-1
 101 300 l 1,3,-1
 101 358 l 1,0,-1
88 -56 m 1,4,5
 99 -41 99 -41 114.5 6 c 128,-1,6
 130 53 130 53 130 100 c 1,7,-1
 101 100 l 1,8,-1
 101 158 l 1,9,-1
 167 158 l 1,10,11
 167 7 167 7 113 -72 c 1,12,-1
 88 -56 l 1,4,5
EndSplineSet
EndChar

StartChar: less
Encoding: 60 60 31
Width: 439
GlyphClass: 2
Flags: W
LayerCount: 2
Fore
SplineSet
43 350 m 1,0,-1
 351 658 l 1,1,-1
 372 637 l 1,2,-1
 85 350 l 1,3,-1
 372 63 l 1,4,-1
 351 42 l 1,5,-1
 43 350 l 1,0,-1
EndSplineSet
EndChar

StartChar: equal
Encoding: 61 61 32
Width: 436
GlyphClass: 2
Flags: W
LayerCount: 2
Fore
SplineSet
89 295 m 1,0,-1
 89 325 l 1,1,-1
 347 325 l 1,2,-1
 347 295 l 1,3,-1
 89 295 l 1,0,-1
89 375 m 1,4,-1
 89 405 l 1,5,-1
 347 405 l 1,6,-1
 347 375 l 1,7,-1
 89 375 l 1,4,-1
EndSplineSet
EndChar

StartChar: greater
Encoding: 62 62 33
Width: 439
GlyphClass: 2
Flags: W
LayerCount: 2
Fore
SplineSet
396 350 m 1,0,-1
 88 42 l 1,1,-1
 67 63 l 1,2,-1
 354 350 l 1,3,-1
 67 637 l 1,4,-1
 88 658 l 1,5,-1
 396 350 l 1,0,-1
EndSplineSet
EndChar

StartChar: question
Encoding: 63 63 34
Width: 507
GlyphClass: 2
Flags: W
LayerCount: 2
Fore
SplineSet
180 58 m 1,0,-1
 246 58 l 1,1,-1
 246 0 l 1,2,-1
 180 0 l 1,3,-1
 180 58 l 1,0,-1
198 156 m 1,4,5
 198 202 198 202 214.5 240.5 c 128,-1,6
 231 279 231 279 255 303.5 c 128,-1,7
 279 328 279 328 308 354.5 c 128,-1,8
 337 381 337 381 361 403 c 128,-1,9
 385 425 385 425 401.5 457.5 c 128,-1,10
 418 490 418 490 418 527 c 0,11,12
 418 577 418 577 404 609 c 128,-1,13
 390 641 390 641 362.5 655.5 c 128,-1,14
 335 670 335 670 307.5 675 c 128,-1,15
 280 680 280 680 240 680 c 0,16,17
 182 680 182 680 142.5 653 c 128,-1,18
 103 626 103 626 82 559 c 1,19,-1
 190 478 l 1,20,-1
 141 478 l 1,21,-1
 48 548 l 1,22,23
 69 630 69 630 116 670 c 128,-1,24
 163 710 163 710 240 710 c 0,25,26
 350 710 350 710 399 667 c 128,-1,27
 448 624 448 624 448 527 c 0,28,29
 448 485 448 485 431.5 449.5 c 128,-1,30
 415 414 415 414 391 390.5 c 128,-1,31
 367 367 367 367 338 341 c 128,-1,32
 309 315 309 315 285 291.5 c 128,-1,33
 261 268 261 268 244.5 233 c 128,-1,34
 228 198 228 198 228 156 c 1,35,-1
 198 156 l 1,4,5
EndSplineSet
EndChar

StartChar: at
Encoding: 64 64 35
Width: 632
GlyphClass: 2
Flags: W
LayerCount: 2
Fore
SplineSet
452 244 m 2,0,1
 318 244 318 244 318 342 c 0,2,3
 318 387 318 387 346.5 408.5 c 128,-1,4
 375 430 375 430 414 430 c 0,5,6
 457 430 457 430 496 401 c 1,7,8
 496 492 496 492 444 567 c 128,-1,9
 392 642 392 642 318 642 c 0,10,11
 224 642 224 642 161 561.5 c 128,-1,12
 98 481 98 481 98 346 c 0,13,14
 98 193 98 193 158.5 106.5 c 128,-1,15
 219 20 219 20 330 20 c 0,16,17
 395 20 395 20 453.5 52 c 128,-1,18
 512 84 512 84 553 142 c 1,19,-1
 578 125 l 1,20,21
 533 61 533 61 467.5 25.5 c 128,-1,22
 402 -10 402 -10 330 -10 c 0,23,24
 204 -10 204 -10 136 86 c 128,-1,25
 68 182 68 182 68 346 c 0,26,27
 68 492 68 492 139 582 c 128,-1,28
 210 672 210 672 318 672 c 0,29,30
 407 672 407 672 466.5 588 c 128,-1,31
 526 504 526 504 526 401 c 2,32,-1
 526 341 l 1,33,-1
 478 377 l 1,34,35
 445 400 445 400 414 400 c 0,36,37
 348 400 348 400 348 342 c 0,38,39
 348 274 348 274 452 274 c 2,40,-1
 553 274 l 1,41,-1
 553 244 l 1,42,-1
 452 244 l 2,0,1
EndSplineSet
EndChar

StartChar: A
Encoding: 65 65 36
Width: 546
GlyphClass: 2
Flags: W
LayerCount: 2
Fore
SplineSet
117 30 m 1,0,-1
 485 30 l 1,1,-1
 273 613 l 1,2,-1
 50 0 l 1,3,-1
 18 0 l 1,4,-1
 273 701 l 1,5,-1
 528 0 l 1,6,-1
 117 0 l 1,7,-1
 117 30 l 1,0,-1
EndSplineSet
EndChar

StartChar: B
Encoding: 66 66 37
Width: 579
GlyphClass: 2
Flags: W
LayerCount: 2
Fore
SplineSet
259 0 m 2,0,-1
 99 0 l 1,1,-1
 99 700 l 1,2,-1
 221 700 l 2,3,4
 353 700 353 700 420 651.5 c 128,-1,5
 487 603 487 603 487 515 c 0,6,7
 487 415 487 415 403 368 c 1,8,9
 525 322 525 322 525 195 c 0,10,11
 525 105 525 105 459 52.5 c 128,-1,12
 393 0 393 0 259 0 c 2,0,-1
259 30 m 2,13,14
 306 30 306 30 345 37.5 c 128,-1,15
 384 45 384 45 419.5 62.5 c 128,-1,16
 455 80 455 80 475 114 c 128,-1,17
 495 148 495 148 495 195 c 0,18,19
 495 302 495 302 392 340 c 2,20,-1
 332 362 l 1,21,-1
 388 394 l 1,22,23
 457 432 457 432 457 515 c 0,24,25
 457 670 457 670 221 670 c 2,26,-1
 129 670 l 1,27,-1
 129 30 l 1,28,-1
 259 30 l 2,13,14
EndSplineSet
EndChar

StartChar: C
Encoding: 67 67 38
Width: 587
GlyphClass: 2
Flags: W
LayerCount: 2
Fore
SplineSet
533 128 m 1,0,1
 506 62 506 62 457 26 c 128,-1,2
 408 -10 408 -10 310 -10 c 0,3,4
 187 -10 187 -10 132 65.5 c 128,-1,5
 77 141 77 141 77 301 c 2,6,-1
 77 399 l 2,7,8
 77 559 77 559 132 634.5 c 128,-1,9
 187 710 187 710 310 710 c 0,10,11
 408 710 408 710 457 674 c 128,-1,12
 506 638 506 638 533 572 c 1,13,-1
 506 559 l 1,14,15
 483 617 483 617 441 648.5 c 128,-1,16
 399 680 399 680 310 680 c 0,17,18
 261 680 261 680 226 667.5 c 128,-1,19
 191 655 191 655 163 625 c 128,-1,20
 135 595 135 595 121 538.5 c 128,-1,21
 107 482 107 482 107 399 c 2,22,-1
 107 301 l 2,23,24
 107 218 107 218 121 161.5 c 128,-1,25
 135 105 135 105 163 75 c 128,-1,26
 191 45 191 45 226 32.5 c 128,-1,27
 261 20 261 20 310 20 c 0,28,29
 399 20 399 20 441 51.5 c 128,-1,30
 483 83 483 83 506 141 c 1,31,-1
 533 128 l 1,0,1
EndSplineSet
EndChar

StartChar: D
Encoding: 68 68 39
Width: 593
GlyphClass: 2
Flags: W
LayerCount: 2
Fore
SplineSet
195 0 m 2,0,-1
 99 0 l 1,1,-1
 99 700 l 1,2,-1
 195 700 l 2,3,4
 339 700 339 700 439 594 c 128,-1,5
 539 488 539 488 539 350 c 128,-1,6
 539 212 539 212 439 106 c 128,-1,7
 339 0 339 0 195 0 c 2,0,-1
195 30 m 2,8,9
 326 30 326 30 417.5 126.5 c 128,-1,10
 509 223 509 223 509 350 c 128,-1,11
 509 477 509 477 417.5 573.5 c 128,-1,12
 326 670 326 670 195 670 c 2,13,-1
 129 670 l 1,14,-1
 129 30 l 1,15,-1
 195 30 l 2,8,9
EndSplineSet
EndChar

StartChar: E
Encoding: 69 69 40
Width: 576
GlyphClass: 2
Flags: W
LayerCount: 2
Fore
SplineSet
458 366 m 1,0,-1
 161 366 l 1,1,-1
 467 670 l 1,2,-1
 129 670 l 1,3,-1
 129 30 l 1,4,-1
 517 30 l 1,5,-1
 517 0 l 1,6,-1
 99 0 l 1,7,-1
 99 700 l 1,8,-1
 540 700 l 1,9,-1
 234 396 l 1,10,-1
 458 396 l 1,11,-1
 458 366 l 1,0,-1
EndSplineSet
EndChar

StartChar: F
Encoding: 70 70 41
Width: 550
GlyphClass: 2
Flags: W
LayerCount: 2
Fore
SplineSet
458 366 m 1,0,-1
 161 366 l 1,1,-1
 467 670 l 1,2,-1
 129 670 l 1,3,-1
 129 0 l 1,4,-1
 99 0 l 1,5,-1
 99 700 l 1,6,-1
 540 700 l 1,7,-1
 234 396 l 1,8,-1
 458 396 l 1,9,-1
 458 366 l 1,0,-1
EndSplineSet
EndChar

StartChar: G
Encoding: 71 71 42
Width: 615
GlyphClass: 2
Flags: W
LayerCount: 2
Fore
SplineSet
506 559 m 1,0,1
 483 617 483 617 441 648.5 c 128,-1,2
 399 680 399 680 310 680 c 0,3,4
 261 680 261 680 226 667.5 c 128,-1,5
 191 655 191 655 163 625 c 128,-1,6
 135 595 135 595 121 538.5 c 128,-1,7
 107 482 107 482 107 399 c 2,8,-1
 107 301 l 2,9,10
 107 218 107 218 121 161.5 c 128,-1,11
 135 105 135 105 163 75 c 128,-1,12
 191 45 191 45 226 32.5 c 128,-1,13
 261 20 261 20 310 20 c 0,14,15
 400 20 400 20 453 58.5 c 128,-1,16
 506 97 506 97 506 141 c 2,17,-1
 506 310 l 1,18,-1
 383 310 l 1,19,-1
 383 340 l 1,20,-1
 542 340 l 1,21,-1
 542 151 l 2,22,23
 542 84 542 84 481.5 37 c 128,-1,24
 421 -10 421 -10 310 -10 c 0,25,26
 187 -10 187 -10 132 65.5 c 128,-1,27
 77 141 77 141 77 301 c 2,28,-1
 77 399 l 2,29,30
 77 559 77 559 132 634.5 c 128,-1,31
 187 710 187 710 310 710 c 0,32,33
 409 710 409 710 458 673.5 c 128,-1,34
 507 637 507 637 534 570 c 1,35,-1
 506 559 l 1,0,1
EndSplineSet
EndChar

StartChar: H
Encoding: 72 72 43
Width: 618
GlyphClass: 2
Flags: W
LayerCount: 2
Fore
SplineSet
519 0 m 1,0,-1
 489 0 l 1,1,-1
 489 350 l 1,2,-1
 129 350 l 1,3,-1
 129 0 l 1,4,-1
 99 0 l 1,5,-1
 99 700 l 1,6,-1
 129 700 l 1,7,-1
 129 380 l 1,8,-1
 489 380 l 1,9,-1
 489 700 l 1,10,-1
 519 700 l 1,11,-1
 519 0 l 1,0,-1
EndSplineSet
EndChar

StartChar: I
Encoding: 73 73 44
Width: 228
GlyphClass: 2
Flags: W
LayerCount: 2
Fore
SplineSet
129 0 m 1,0,-1
 99 0 l 1,1,-1
 99 700 l 1,2,-1
 129 700 l 1,3,-1
 129 0 l 1,0,-1
EndSplineSet
EndChar

StartChar: J
Encoding: 74 74 45
Width: 504
GlyphClass: 2
Flags: W
LayerCount: 2
Fore
SplineSet
56 151 m 1,0,1
 100 20 100 20 226 20 c 0,2,3
 311 20 311 20 344.5 68.5 c 128,-1,4
 378 117 378 117 378 202 c 2,5,-1
 378 700 l 1,6,-1
 408 700 l 1,7,-1
 408 202 l 2,8,9
 408 -10 408 -10 226 -10 c 0,10,11
 140 -10 140 -10 93.5 33 c 128,-1,12
 47 76 47 76 20 151 c 1,13,-1
 56 151 l 1,0,1
EndSplineSet
EndChar

StartChar: K
Encoding: 75 75 46
Width: 573
GlyphClass: 2
Flags: W
LayerCount: 2
Fore
SplineSet
129 700 m 1,0,-1
 129 0 l 1,1,-1
 99 0 l 1,2,-1
 99 700 l 1,3,-1
 129 700 l 1,0,-1
540 700 m 1,4,-1
 204 366 l 1,5,-1
 572 0 l 1,6,-1
 529 0 l 1,7,-1
 161 366 l 1,8,-1
 497 700 l 1,9,-1
 540 700 l 1,4,-1
EndSplineSet
EndChar

StartChar: L
Encoding: 76 76 47
Width: 532
GlyphClass: 2
Flags: W
LayerCount: 2
Fore
SplineSet
517 30 m 1,0,-1
 517 0 l 1,1,-1
 99 0 l 1,2,-1
 99 700 l 1,3,-1
 129 700 l 1,4,-1
 129 30 l 1,5,-1
 517 30 l 1,0,-1
EndSplineSet
EndChar

StartChar: M
Encoding: 77 77 48
Width: 708
GlyphClass: 2
Flags: W
LayerCount: 2
Fore
SplineSet
185 30 m 1,0,-1
 579 30 l 1,1,-1
 579 629 l 1,2,-1
 354 147 l 1,3,-1
 129 630 l 1,4,-1
 129 0 l 1,5,-1
 99 1 l 1,6,-1
 99 701 l 1,7,-1
 129 701 l 1,8,-1
 354 218 l 1,9,-1
 579 700 l 1,10,-1
 609 701 l 1,11,-1
 609 0 l 1,12,-1
 185 1 l 1,13,-1
 185 30 l 1,0,-1
EndSplineSet
Substitution2: "'ss01' Style Set 1 lookup 1 subtable" M.ss01
Substitution2: "'aalt' Access All Alternates in Latin lookup 0 subtable" M.ss01
EndChar

StartChar: N
Encoding: 78 78 49
Width: 637
GlyphClass: 2
Flags: W
LayerCount: 2
Fore
SplineSet
177 30 m 1,0,-1
 487 30 l 1,1,-1
 129 649 l 1,2,-1
 129 0 l 1,3,-1
 99 0 l 1,4,-1
 99 700 l 1,5,-1
 134 700 l 1,6,-1
 508 53 l 1,7,-1
 508 700 l 1,8,-1
 538 700 l 1,9,-1
 538 0 l 1,10,-1
 177 0 l 1,11,-1
 177 30 l 1,0,-1
EndSplineSet
Substitution2: "'ss01' Style Set 1 lookup 1 subtable" N.ss01
Substitution2: "'aalt' Access All Alternates in Latin lookup 0 subtable" N.ss01
EndChar

StartChar: O
Encoding: 79 79 50
Width: 620
GlyphClass: 2
Flags: W
LayerCount: 2
Fore
SplineSet
310 -10 m 128,-1,1
 187 -10 187 -10 132 65.5 c 128,-1,2
 77 141 77 141 77 301 c 2,3,-1
 77 399 l 2,4,5
 77 559 77 559 132 634.5 c 128,-1,6
 187 710 187 710 310 710 c 128,-1,7
 433 710 433 710 488 634.5 c 128,-1,8
 543 559 543 559 543 399 c 2,9,-1
 543 301 l 2,10,11
 543 141 543 141 488 65.5 c 128,-1,0
 433 -10 433 -10 310 -10 c 128,-1,1
310 680 m 128,-1,13
 261 680 261 680 226 667.5 c 128,-1,14
 191 655 191 655 163 625 c 128,-1,15
 135 595 135 595 121 538.5 c 128,-1,16
 107 482 107 482 107 399 c 2,17,-1
 107 301 l 2,18,19
 107 218 107 218 121 161.5 c 128,-1,20
 135 105 135 105 163 75 c 128,-1,21
 191 45 191 45 226 32.5 c 128,-1,22
 261 20 261 20 310 20 c 128,-1,23
 359 20 359 20 394 32.5 c 128,-1,24
 429 45 429 45 457 75 c 128,-1,25
 485 105 485 105 499 161.5 c 128,-1,26
 513 218 513 218 513 301 c 2,27,-1
 513 399 l 2,28,29
 513 482 513 482 499 538.5 c 128,-1,30
 485 595 485 595 457 625 c 128,-1,31
 429 655 429 655 394 667.5 c 128,-1,12
 359 680 359 680 310 680 c 128,-1,13
EndSplineSet
EndChar

StartChar: P
Encoding: 80 80 51
Width: 526
GlyphClass: 2
Flags: W
LayerCount: 2
Fore
SplineSet
347 336 m 1,0,-1
 332 362 l 1,1,-1
 388 394 l 1,2,3
 457 432 457 432 457 515 c 0,4,5
 457 670 457 670 221 670 c 2,6,-1
 129 670 l 1,7,-1
 129 0 l 1,8,-1
 99 0 l 1,9,-1
 99 700 l 1,10,-1
 221 700 l 2,11,12
 353 700 353 700 420 651.5 c 128,-1,13
 487 603 487 603 487 515 c 0,14,15
 487 415 487 415 403 368 c 2,16,-1
 347 336 l 1,0,-1
EndSplineSet
EndChar

StartChar: Q
Encoding: 81 81 52
Width: 623
GlyphClass: 2
Flags: W
LayerCount: 2
Fore
SplineSet
543 301 m 2,0,1
 543 106 543 106 459 35 c 1,2,-1
 440 58 l 1,3,4
 513 120 513 120 513 301 c 2,5,-1
 513 399 l 2,6,7
 513 482 513 482 499 538.5 c 128,-1,8
 485 595 485 595 457 625 c 128,-1,9
 429 655 429 655 394 667.5 c 128,-1,10
 359 680 359 680 310 680 c 128,-1,11
 261 680 261 680 226 667.5 c 128,-1,12
 191 655 191 655 163 625 c 128,-1,13
 135 595 135 595 121 538.5 c 128,-1,14
 107 482 107 482 107 399 c 2,15,-1
 107 301 l 2,16,17
 107 218 107 218 121 161.5 c 128,-1,18
 135 105 135 105 163 75 c 128,-1,19
 191 45 191 45 226 32.5 c 128,-1,20
 261 20 261 20 310 20 c 1,21,22
 310 -91 310 -91 345.5 -130.5 c 128,-1,23
 381 -170 381 -170 456 -170 c 1,24,-1
 456 -200 l 1,25,26
 375 -200 375 -200 331 -160 c 128,-1,27
 287 -120 287 -120 281 -9 c 1,28,29
 174 0 174 0 125.5 75.5 c 128,-1,30
 77 151 77 151 77 301 c 2,31,-1
 77 399 l 2,32,33
 77 559 77 559 132 634.5 c 128,-1,34
 187 710 187 710 310 710 c 128,-1,35
 433 710 433 710 488 634.5 c 128,-1,36
 543 559 543 559 543 399 c 2,37,-1
 543 301 l 2,0,1
EndSplineSet
EndChar

StartChar: R
Encoding: 82 82 53
Width: 550
GlyphClass: 2
Flags: W
LayerCount: 2
Fore
SplineSet
177 30 m 1,0,-1
 453 30 l 1,1,-1
 332 362 l 1,2,-1
 388 394 l 1,3,4
 457 432 457 432 457 515 c 0,5,6
 457 670 457 670 221 670 c 2,7,-1
 129 670 l 1,8,-1
 129 0 l 1,9,-1
 99 0 l 1,10,-1
 99 700 l 1,11,-1
 221 700 l 2,12,13
 353 700 353 700 420 651.5 c 128,-1,14
 487 603 487 603 487 515 c 0,15,16
 487 415 487 415 403 368 c 2,17,-1
 369 349 l 1,18,-1
 496 0 l 1,19,-1
 177 0 l 1,20,-1
 177 30 l 1,0,-1
EndSplineSet
Substitution2: "'ss01' Style Set 1 lookup 1 subtable" R.ss01
Substitution2: "'aalt' Access All Alternates in Latin lookup 0 subtable" R.ss01
EndChar

StartChar: S
Encoding: 83 83 54
Width: 561
GlyphClass: 2
Flags: W
LayerCount: 2
Fore
SplineSet
78 527 m 0,0,1
 78 624 78 624 127 667 c 128,-1,2
 176 710 176 710 286 710 c 0,3,4
 363 710 363 710 410 670 c 128,-1,5
 457 630 457 630 478 548 c 1,6,-1
 385 478 l 1,7,-1
 336 478 l 1,8,-1
 444 559 l 1,9,10
 423 626 423 626 383.5 653 c 128,-1,11
 344 680 344 680 286 680 c 0,12,13
 246 680 246 680 218.5 675 c 128,-1,14
 191 670 191 670 163.5 655.5 c 128,-1,15
 136 641 136 641 122 609 c 128,-1,16
 108 577 108 577 108 527 c 0,17,18
 108 483 108 483 148.5 449 c 128,-1,19
 189 415 189 415 247 391 c 128,-1,20
 305 367 305 367 363.5 342 c 128,-1,21
 422 317 422 317 462.5 278 c 128,-1,22
 503 239 503 239 503 188 c 0,23,24
 503 88 503 88 453.5 39 c 128,-1,25
 404 -10 404 -10 284 -10 c 0,26,27
 186 -10 186 -10 130 29.5 c 128,-1,28
 74 69 74 69 53 152 c 1,29,-1
 81 164 l 1,30,31
 101 83 101 83 149.5 51.5 c 128,-1,32
 198 20 198 20 284 20 c 0,33,34
 380 20 380 20 426.5 57 c 128,-1,35
 473 94 473 94 473 188 c 0,36,37
 473 232 473 232 432.5 266 c 128,-1,38
 392 300 392 300 333.5 324 c 128,-1,39
 275 348 275 348 217 373 c 128,-1,40
 159 398 159 398 118.5 437 c 128,-1,41
 78 476 78 476 78 527 c 0,0,1
EndSplineSet
EndChar

StartChar: T
Encoding: 84 84 55
Width: 530
GlyphClass: 2
Flags: W
LayerCount: 2
Fore
SplineSet
515 700 m 1,0,-1
 515 670 l 1,1,-1
 280 670 l 1,2,-1
 280 0 l 1,3,-1
 250 0 l 1,4,-1
 250 670 l 1,5,-1
 15 670 l 1,6,-1
 15 700 l 1,7,-1
 515 700 l 1,0,-1
EndSplineSet
EndChar

StartChar: U
Encoding: 85 85 56
Width: 646
GlyphClass: 2
Flags: W
LayerCount: 2
Fore
SplineSet
173 700 m 1,0,-1
 556 700 l 1,1,-1
 556 301 l 2,2,3
 556 141 556 141 501 65.5 c 128,-1,4
 446 -10 446 -10 323 -10 c 128,-1,5
 200 -10 200 -10 145 65.5 c 128,-1,6
 90 141 90 141 90 301 c 2,7,-1
 90 700 l 1,8,-1
 120 700 l 1,9,-1
 120 301 l 2,10,11
 120 218 120 218 134 161.5 c 128,-1,12
 148 105 148 105 176 75 c 128,-1,13
 204 45 204 45 239 32.5 c 128,-1,14
 274 20 274 20 323 20 c 128,-1,15
 372 20 372 20 407 32.5 c 128,-1,16
 442 45 442 45 470 75 c 128,-1,17
 498 105 498 105 512 161.5 c 128,-1,18
 526 218 526 218 526 301 c 2,19,-1
 526 670 l 1,20,-1
 173 670 l 1,21,-1
 173 700 l 1,0,-1
EndSplineSet
Substitution2: "'ss01' Style Set 1 lookup 1 subtable" U.ss01
Substitution2: "'aalt' Access All Alternates in Latin lookup 0 subtable" U.ss01
EndChar

StartChar: V
Encoding: 86 86 57
Width: 544
GlyphClass: 2
Flags: W
LayerCount: 2
Fore
SplineSet
117 700 m 1,0,-1
 527 700 l 1,1,-1
 272 -1 l 1,2,-1
 17 700 l 1,3,-1
 49 700 l 1,4,-1
 272 87 l 1,5,-1
 484 670 l 1,6,-1
 117 670 l 1,7,-1
 117 700 l 1,0,-1
EndSplineSet
Substitution2: "'ss01' Style Set 1 lookup 1 subtable" V.ss01
Substitution2: "'aalt' Access All Alternates in Latin lookup 0 subtable" V.ss01
EndChar

StartChar: W
Encoding: 87 87 58
Width: 803
GlyphClass: 2
Flags: W
LayerCount: 2
Fore
SplineSet
117 670 m 1,0,-1
 117 700 l 1,1,-1
 786 700 l 1,2,-1
 531 -1 l 1,3,-1
 401 355 l 1,4,-1
 272 -1 l 1,5,-1
 17 700 l 1,6,-1
 49 700 l 1,7,-1
 272 87 l 1,8,-1
 401 443 l 1,9,-1
 531 87 l 1,10,-1
 743 670 l 1,11,-1
 117 670 l 1,0,-1
EndSplineSet
Substitution2: "'ss01' Style Set 1 lookup 1 subtable" W.ss01
Substitution2: "'aalt' Access All Alternates in Latin lookup 0 subtable" W.ss01
EndChar

StartChar: X
Encoding: 88 88 59
Width: 484
GlyphClass: 2
Flags: W
LayerCount: 2
Fore
SplineSet
259 369 m 1,0,-1
 455 0 l 1,1,-1
 421 0 l 1,2,-1
 242 337 l 1,3,-1
 63 0 l 1,4,-1
 29 0 l 1,5,-1
 225 369 l 1,6,-1
 49 700 l 1,7,-1
 83 700 l 1,8,-1
 242 401 l 1,9,-1
 401 700 l 1,10,-1
 435 700 l 1,11,-1
 259 369 l 1,0,-1
EndSplineSet
EndChar

StartChar: Y
Encoding: 89 89 60
Width: 546
GlyphClass: 2
Flags: W
LayerCount: 2
Fore
SplineSet
133 700 m 1,0,-1
 538 700 l 1,1,-1
 288 300 l 1,2,-1
 288 0 l 1,3,-1
 258 0 l 1,4,-1
 258 300 l 1,5,-1
 8 700 l 1,6,-1
 43 700 l 1,7,-1
 273 333 l 1,8,-1
 484 670 l 1,9,-1
 133 670 l 1,10,-1
 133 700 l 1,0,-1
EndSplineSet
Substitution2: "'ss01' Style Set 1 lookup 1 subtable" y.ss01
Substitution2: "'aalt' Access All Alternates in Latin lookup 0 subtable" y.ss01
EndChar

StartChar: Z
Encoding: 90 90 61
Width: 480
GlyphClass: 2
Flags: W
LayerCount: 2
Fore
SplineSet
439 0 m 1,0,-1
 31 0 l 1,1,-1
 387 670 l 1,2,-1
 57 670 l 1,3,-1
 57 700 l 1,4,-1
 437 700 l 1,5,-1
 81 30 l 1,6,-1
 439 30 l 1,7,-1
 439 0 l 1,0,-1
EndSplineSet
EndChar

StartChar: bracketleft
Encoding: 91 91 62
Width: 261
GlyphClass: 2
Flags: W
LayerCount: 2
Fore
SplineSet
208 0 m 1,0,-1
 100 0 l 1,1,-1
 100 700 l 1,2,-1
 208 700 l 1,3,-1
 208 670 l 1,4,-1
 130 670 l 1,5,-1
 130 30 l 1,6,-1
 208 30 l 1,7,-1
 208 0 l 1,0,-1
EndSplineSet
EndChar

StartChar: backslash
Encoding: 92 92 63
Width: 411
GlyphClass: 2
Flags: W
LayerCount: 2
Fore
SplineSet
345 -36 m 1,0,-1
 38 725 l 1,1,-1
 65 736 l 1,2,-1
 372 -25 l 1,3,-1
 345 -36 l 1,0,-1
EndSplineSet
EndChar

StartChar: bracketright
Encoding: 93 93 64
Width: 261
GlyphClass: 2
Flags: W
LayerCount: 2
Fore
SplineSet
53 700 m 1,0,-1
 161 700 l 1,1,-1
 161 0 l 1,2,-1
 53 0 l 1,3,-1
 53 30 l 1,4,-1
 131 30 l 1,5,-1
 131 670 l 1,6,-1
 53 670 l 1,7,-1
 53 700 l 1,0,-1
EndSplineSet
EndChar

StartChar: asciicircum
Encoding: 94 94 65
Width: 324
GlyphClass: 2
Flags: W
LayerCount: 2
Fore
SplineSet
162 784 m 1,0,-1
 279 644 l 1,1,-1
 256 625 l 1,2,-1
 162 737 l 1,3,-1
 68 625 l 1,4,-1
 45 644 l 1,5,-1
 162 784 l 1,0,-1
EndSplineSet
EndChar

StartChar: underscore
Encoding: 95 95 66
Width: 502
GlyphClass: 2
Flags: W
LayerCount: 2
Fore
SplineSet
51 -90 m 1,0,-1
 51 -60 l 1,1,-1
 451 -60 l 1,2,-1
 451 -90 l 1,3,-1
 51 -90 l 1,0,-1
EndSplineSet
EndChar

StartChar: grave
Encoding: 96 96 67
Width: 230
GlyphClass: 2
Flags: W
LayerCount: 2
Fore
SplineSet
45 764 m 1,0,-1
 68 784 l 1,1,-1
 185 644 l 1,2,-1
 162 625 l 1,3,-1
 45 764 l 1,0,-1
EndSplineSet
EndChar

StartChar: a
Encoding: 97 97 68
Width: 538
GlyphClass: 2
Flags: W
LayerCount: 2
Fore
SplineSet
148 30 m 1,0,-1
 474 30 l 1,1,-1
 269 513 l 1,2,-1
 51 0 l 1,3,-1
 19 0 l 1,4,-1
 269 590 l 1,5,-1
 519 0 l 1,6,-1
 148 0 l 1,7,-1
 148 30 l 1,0,-1
EndSplineSet
EndChar

StartChar: b
Encoding: 98 98 69
Width: 536
GlyphClass: 2
Flags: W
LayerCount: 2
Fore
SplineSet
239 0 m 2,0,-1
 95 0 l 1,1,-1
 95 580 l 1,2,-1
 205 580 l 2,3,4
 323 580 323 580 383.5 539 c 128,-1,5
 444 498 444 498 444 427 c 0,6,7
 444 342 444 342 369 304 c 1,8,9
 424 285 424 285 451 247.5 c 128,-1,10
 478 210 478 210 478 161 c 0,11,12
 478 89 478 89 418.5 44.5 c 128,-1,13
 359 0 359 0 239 0 c 2,0,-1
239 30 m 2,14,15
 327 30 327 30 387.5 62 c 128,-1,16
 448 94 448 94 448 161 c 0,17,18
 448 192 448 192 425 228.5 c 128,-1,19
 402 265 402 265 354 282 c 2,20,-1
 302 300 l 1,21,-1
 350 325 l 2,22,23
 375 338 375 338 394.5 364.5 c 128,-1,24
 414 391 414 391 414 427 c 0,25,26
 414 490 414 490 354 520 c 128,-1,27
 294 550 294 550 205 550 c 2,28,-1
 125 550 l 1,29,-1
 125 30 l 1,30,-1
 239 30 l 2,14,15
EndSplineSet
EndChar

StartChar: c
Encoding: 99 99 70
Width: 537
GlyphClass: 2
Flags: W
LayerCount: 2
Fore
SplineSet
70 290 m 128,-1,1
 70 448 70 448 124 519 c 128,-1,2
 178 590 178 590 303 590 c 128,-1,3
 428 590 428 590 483 521 c 1,4,-1
 461 501 l 1,5,6
 417 560 417 560 303 560 c 0,7,8
 253 560 253 560 219 549.5 c 128,-1,9
 185 539 185 539 156.5 510.5 c 128,-1,10
 128 482 128 482 114 427.5 c 128,-1,11
 100 373 100 373 100 290 c 128,-1,12
 100 207 100 207 114 152.5 c 128,-1,13
 128 98 128 98 156.5 69.5 c 128,-1,14
 185 41 185 41 219 30.5 c 128,-1,15
 253 20 253 20 303 20 c 0,16,17
 417 20 417 20 461 79 c 1,18,-1
 483 59 l 1,19,20
 428 -10 428 -10 303 -10 c 128,-1,21
 178 -10 178 -10 124 61 c 128,-1,0
 70 132 70 132 70 290 c 128,-1,1
EndSplineSet
EndChar

StartChar: d
Encoding: 100 100 71
Width: 553
GlyphClass: 2
Flags: W
LayerCount: 2
Fore
SplineSet
171 0 m 2,0,-1
 95 0 l 1,1,-1
 95 580 l 1,2,-1
 171 580 l 2,3,4
 319 580 319 580 407 502 c 128,-1,5
 495 424 495 424 495 290 c 128,-1,6
 495 156 495 156 407 78 c 128,-1,7
 319 0 319 0 171 0 c 2,0,-1
171 30 m 2,8,9
 306 30 306 30 385.5 99 c 128,-1,10
 465 168 465 168 465 290 c 128,-1,11
 465 412 465 412 385.5 481 c 128,-1,12
 306 550 306 550 171 550 c 2,13,-1
 125 550 l 1,14,-1
 125 30 l 1,15,-1
 171 30 l 2,8,9
EndSplineSet
EndChar

StartChar: e
Encoding: 101 101 72
Width: 548
GlyphClass: 2
Flags: W
LayerCount: 2
Fore
SplineSet
483 59 m 1,0,1
 428 -10 428 -10 303 -10 c 128,-1,2
 178 -10 178 -10 124 61 c 128,-1,3
 70 132 70 132 70 290 c 128,-1,4
 70 448 70 448 124 519 c 128,-1,5
 178 590 178 590 303 590 c 0,6,7
 448 590 448 590 500 495 c 1,8,-1
 255 290 l 1,9,-1
 208 290 l 1,10,-1
 461 501 l 1,11,12
 417 560 417 560 303 560 c 0,13,14
 253 560 253 560 219 549.5 c 128,-1,15
 185 539 185 539 156.5 510.5 c 128,-1,16
 128 482 128 482 114 427.5 c 128,-1,17
 100 373 100 373 100 290 c 128,-1,18
 100 207 100 207 114 152.5 c 128,-1,19
 128 98 128 98 156.5 69.5 c 128,-1,20
 185 41 185 41 219 30.5 c 128,-1,21
 253 20 253 20 303 20 c 0,22,23
 417 20 417 20 461 79 c 1,24,-1
 483 59 l 1,0,1
EndSplineSet
EndChar

StartChar: f
Encoding: 102 102 73
Width: 574
GlyphClass: 2
Flags: W
LayerCount: 2
Fore
SplineSet
85 0 m 1,0,-1
 85 290 l 2,1,2
 85 448 85 448 139.5 519 c 128,-1,3
 194 590 194 590 318 590 c 0,4,5
 463 590 463 590 515 495 c 1,6,-1
 306 320 l 1,7,-1
 519 320 l 1,8,-1
 519 290 l 1,9,-1
 223 290 l 1,10,-1
 476 501 l 1,11,12
 432 560 432 560 318 560 c 0,13,14
 268 560 268 560 234 549.5 c 128,-1,15
 200 539 200 539 171.5 510.5 c 128,-1,16
 143 482 143 482 129 427.5 c 128,-1,17
 115 373 115 373 115 290 c 2,18,-1
 115 0 l 1,19,-1
 85 0 l 1,0,-1
EndSplineSet
EndChar

StartChar: g
Encoding: 103 103 74
Width: 570
GlyphClass: 2
Flags: W
LayerCount: 2
Fore
SplineSet
328 390 m 1,0,-1
 461 501 l 1,1,2
 417 560 417 560 303 560 c 0,3,4
 253 560 253 560 219 549.5 c 128,-1,5
 185 539 185 539 156.5 510.5 c 128,-1,6
 128 482 128 482 114 427.5 c 128,-1,7
 100 373 100 373 100 290 c 128,-1,8
 100 207 100 207 114 152.5 c 128,-1,9
 128 98 128 98 156.5 69.5 c 128,-1,10
 185 41 185 41 219 30.5 c 128,-1,11
 253 20 253 20 303 20 c 0,12,13
 416 20 416 20 460 78 c 1,14,-1
 460 255 l 1,15,-1
 490 255 l 1,16,-1
 490 -9 l 2,17,18
 490 -200 490 -200 315 -200 c 2,19,-1
 198 -200 l 1,20,-1
 198 -170 l 1,21,-1
 315 -170 l 2,22,23
 390 -170 390 -170 425 -130.5 c 128,-1,24
 460 -91 460 -91 460 20 c 2,25,-1
 460 35 l 1,26,27
 406 -10 406 -10 303 -10 c 0,28,29
 178 -10 178 -10 124 61 c 128,-1,30
 70 132 70 132 70 290 c 128,-1,31
 70 448 70 448 124 519 c 128,-1,32
 178 590 178 590 303 590 c 0,33,34
 448 590 448 590 500 495 c 1,35,-1
 375 390 l 1,36,-1
 328 390 l 1,0,-1
EndSplineSet
EndChar

StartChar: h
Encoding: 104 104 75
Width: 550
GlyphClass: 2
Flags: W
LayerCount: 2
Fore
SplineSet
455 0 m 1,0,-1
 425 0 l 1,1,-1
 425 290 l 1,2,-1
 125 290 l 1,3,-1
 125 0 l 1,4,-1
 95 0 l 1,5,-1
 95 580 l 1,6,-1
 125 580 l 1,7,-1
 125 320 l 1,8,-1
 425 320 l 1,9,-1
 425 580 l 1,10,-1
 455 580 l 1,11,-1
 455 0 l 1,0,-1
EndSplineSet
EndChar

StartChar: i
Encoding: 105 105 76
Width: 220
GlyphClass: 2
Flags: W
LayerCount: 2
Fore
SplineSet
95 580 m 1,0,-1
 125 580 l 1,1,-1
 125 0 l 1,2,-1
 95 0 l 1,3,-1
 95 580 l 1,0,-1
EndSplineSet
Substitution2: "'locl' Localized Forms in Latin lookup 2 subtable" i.TRK
Substitution2: "'aalt' Access All Alternates in Latin lookup 0 subtable" i.TRK
EndChar

StartChar: j
Encoding: 106 106 77
Width: 432
GlyphClass: 2
Flags: W
LayerCount: 2
Fore
SplineSet
15 -39 m 1,0,1
 42 -170 42 -170 170 -170 c 0,2,3
 253 -170 253 -170 280 -123.5 c 128,-1,4
 307 -77 307 -77 307 12 c 2,5,-1
 307 580 l 1,6,-1
 337 580 l 1,7,-1
 337 12 l 2,8,9
 337 -16 337 -16 336 -33 c 128,-1,10
 335 -50 335 -50 331 -79 c 128,-1,11
 327 -108 327 -108 316 -125.5 c 128,-1,12
 305 -143 305 -143 287.5 -162.5 c 128,-1,13
 270 -182 270 -182 240 -191 c 128,-1,14
 210 -200 210 -200 170 -200 c 0,15,16
 13 -200 13 -200 -21 -39 c 1,17,-1
 15 -39 l 1,0,1
EndSplineSet
EndChar

StartChar: k
Encoding: 107 107 78
Width: 515
GlyphClass: 2
Flags: W
LayerCount: 2
Fore
SplineSet
95 0 m 1,0,-1
 95 580 l 1,1,-1
 125 580 l 1,2,-1
 125 0 l 1,3,-1
 95 0 l 1,0,-1
465 0 m 1,4,-1
 157 306 l 1,5,-1
 433 580 l 1,6,-1
 476 580 l 1,7,-1
 200 306 l 1,8,-1
 508 0 l 1,9,-1
 465 0 l 1,4,-1
EndSplineSet
EndChar

StartChar: l
Encoding: 108 108 79
Width: 449
GlyphClass: 2
Flags: W
LayerCount: 2
Fore
SplineSet
429 30 m 1,0,-1
 429 0 l 1,1,-1
 95 0 l 1,2,-1
 95 580 l 1,3,-1
 125 580 l 1,4,-1
 125 30 l 1,5,-1
 429 30 l 1,0,-1
EndSplineSet
EndChar

StartChar: m
Encoding: 109 109 80
Width: 700
GlyphClass: 2
Flags: W
LayerCount: 2
Fore
SplineSet
189 30 m 1,0,-1
 575 30 l 1,1,-1
 575 538 l 1,2,-1
 350 313 l 1,3,-1
 125 538 l 1,4,-1
 125 0 l 1,5,-1
 95 1 l 1,6,-1
 95 580 l 1,7,-1
 125 580 l 1,8,-1
 350 355 l 1,9,-1
 575 580 l 1,10,-1
 605 580 l 1,11,-1
 605 0 l 1,12,-1
 189 1 l 1,13,-1
 189 30 l 1,0,-1
EndSplineSet
Substitution2: "'ss01' Style Set 1 lookup 1 subtable" m.ss01
Substitution2: "'aalt' Access All Alternates in Latin lookup 0 subtable" m.ss01
EndChar

StartChar: n
Encoding: 110 110 81
Width: 576
GlyphClass: 2
Flags: W
LayerCount: 2
Fore
SplineSet
95 0 m 1,0,-1
 95 580 l 1,1,-1
 125 580 l 1,2,-1
 451 55 l 1,3,-1
 451 580 l 1,4,-1
 481 580 l 1,5,-1
 481 0 l 1,6,-1
 451 0 l 1,7,-1
 125 526 l 1,8,-1
 125 0 l 1,9,-1
 95 0 l 1,0,-1
EndSplineSet
EndChar

StartChar: o
Encoding: 111 111 82
Width: 606
GlyphClass: 2
Flags: W
LayerCount: 2
Fore
SplineSet
303 560 m 128,-1,1
 253 560 253 560 219 549.5 c 128,-1,2
 185 539 185 539 156.5 510.5 c 128,-1,3
 128 482 128 482 114 427.5 c 128,-1,4
 100 373 100 373 100 290 c 128,-1,5
 100 207 100 207 114 152.5 c 128,-1,6
 128 98 128 98 156.5 69.5 c 128,-1,7
 185 41 185 41 219 30.5 c 128,-1,8
 253 20 253 20 303 20 c 128,-1,9
 353 20 353 20 387 30.5 c 128,-1,10
 421 41 421 41 449.5 69.5 c 128,-1,11
 478 98 478 98 492 152.5 c 128,-1,12
 506 207 506 207 506 290 c 128,-1,13
 506 373 506 373 492 427.5 c 128,-1,14
 478 482 478 482 449.5 510.5 c 128,-1,15
 421 539 421 539 387 549.5 c 128,-1,0
 353 560 353 560 303 560 c 128,-1,1
303 -10 m 128,-1,17
 178 -10 178 -10 124 61 c 128,-1,18
 70 132 70 132 70 290 c 128,-1,19
 70 448 70 448 124 519 c 128,-1,20
 178 590 178 590 303 590 c 128,-1,21
 428 590 428 590 482 519 c 128,-1,22
 536 448 536 448 536 290 c 128,-1,23
 536 132 536 132 482 61 c 128,-1,16
 428 -10 428 -10 303 -10 c 128,-1,17
EndSplineSet
EndChar

StartChar: p
Encoding: 112 112 83
Width: 529
GlyphClass: 2
Flags: W
LayerCount: 2
Fore
SplineSet
343 216 m 1,0,-1
 328 242 l 1,1,-1
 384 274 l 1,2,3
 453 312 453 312 453 395 c 0,4,5
 453 550 453 550 217 550 c 2,6,-1
 125 550 l 1,7,-1
 125 -200 l 1,8,-1
 95 -200 l 1,9,-1
 95 580 l 1,10,-1
 217 580 l 2,11,12
 349 580 349 580 416 531.5 c 128,-1,13
 483 483 483 483 483 395 c 0,14,15
 483 295 483 295 399 248 c 2,16,-1
 343 216 l 1,0,-1
EndSplineSet
EndChar

StartChar: q
Encoding: 113 113 84
Width: 607
GlyphClass: 2
Flags: W
LayerCount: 2
Fore
SplineSet
275 -9 m 1,0,1
 166 -2 166 -2 118.5 69.5 c 128,-1,2
 71 141 71 141 71 290 c 0,3,4
 71 448 71 448 125.5 519 c 128,-1,5
 180 590 180 590 304 590 c 128,-1,6
 428 590 428 590 482.5 519 c 128,-1,7
 537 448 537 448 537 290 c 0,8,9
 537 90 537 90 446 26 c 1,10,-1
 429 50 l 1,11,12
 507 103 507 103 507 290 c 0,13,14
 507 373 507 373 493 427.5 c 128,-1,15
 479 482 479 482 450.5 510.5 c 128,-1,16
 422 539 422 539 388 549.5 c 128,-1,17
 354 560 354 560 304 560 c 128,-1,18
 254 560 254 560 220 549.5 c 128,-1,19
 186 539 186 539 157.5 510.5 c 128,-1,20
 129 482 129 482 115 427.5 c 128,-1,21
 101 373 101 373 101 290 c 128,-1,22
 101 207 101 207 115 152.5 c 128,-1,23
 129 98 129 98 157.5 69.5 c 128,-1,24
 186 41 186 41 220 30.5 c 128,-1,25
 254 20 254 20 304 20 c 1,26,27
 304 -91 304 -91 339.5 -130.5 c 128,-1,28
 375 -170 375 -170 450 -170 c 1,29,-1
 450 -200 l 1,30,31
 369 -200 369 -200 325 -160 c 128,-1,32
 281 -120 281 -120 275 -9 c 1,0,1
EndSplineSet
EndChar

StartChar: r
Encoding: 114 114 85
Width: 516
GlyphClass: 2
Flags: W
LayerCount: 2
Fore
SplineSet
339 291 m 1,0,-1
 475 0 l 1,1,-1
 442 0 l 1,2,-1
 302 300 l 1,3,4
 304 301 304 301 319.5 308.5 c 128,-1,5
 335 316 335 316 341 319.5 c 128,-1,6
 347 323 347 323 361 332 c 128,-1,7
 375 341 375 341 382 349.5 c 128,-1,8
 389 358 389 358 397.5 369.5 c 128,-1,9
 406 381 406 381 410 395.5 c 128,-1,10
 414 410 414 410 414 427 c 0,11,12
 414 490 414 490 354 520 c 128,-1,13
 294 550 294 550 205 550 c 2,14,-1
 125 550 l 1,15,-1
 125 0 l 1,16,-1
 95 0 l 1,17,-1
 95 580 l 1,18,-1
 205 580 l 2,19,20
 323 580 323 580 383.5 539 c 128,-1,21
 444 498 444 498 444 427 c 0,22,23
 444 381 444 381 413 345.5 c 128,-1,24
 382 310 382 310 339 291 c 1,0,-1
EndSplineSet
EndChar

StartChar: s
Encoding: 115 115 86
Width: 517
GlyphClass: 2
Flags: W
LayerCount: 2
Fore
SplineSet
248 592 m 0,0,1
 372 592 372 592 424 537 c 1,2,-1
 404 515 l 1,3,4
 356 562 356 562 252 562 c 0,5,6
 96 562 96 562 96 438 c 0,7,8
 96 390 96 390 134 361.5 c 128,-1,9
 172 333 172 333 226.5 318 c 128,-1,10
 281 303 281 303 335.5 286.5 c 128,-1,11
 390 270 390 270 428 233.5 c 128,-1,12
 466 197 466 197 466 138 c 0,13,14
 466 69 466 69 409 28 c 128,-1,15
 352 -13 352 -13 244 -13 c 0,16,17
 191 -13 191 -13 139.5 1 c 128,-1,18
 88 15 88 15 63 42 c 1,19,-1
 83 64 l 1,20,21
 134 17 134 17 240 17 c 0,22,23
 337 17 337 17 386.5 53 c 128,-1,24
 436 89 436 89 436 137 c 0,25,26
 436 187 436 187 398 218 c 128,-1,27
 360 249 360 249 305.5 264.5 c 128,-1,28
 251 280 251 280 196.5 296.5 c 128,-1,29
 142 313 142 313 104 348 c 128,-1,30
 66 383 66 383 66 440 c 0,31,32
 66 517 66 517 117.5 554.5 c 128,-1,33
 169 592 169 592 248 592 c 0,0,1
EndSplineSet
EndChar

StartChar: t
Encoding: 116 116 87
Width: 490
GlyphClass: 2
Flags: W
LayerCount: 2
Fore
SplineSet
470 580 m 1,0,-1
 470 550 l 1,1,-1
 260 550 l 1,2,-1
 260 0 l 1,3,-1
 230 0 l 1,4,-1
 230 550 l 1,5,-1
 20 550 l 1,6,-1
 20 580 l 1,7,-1
 470 580 l 1,0,-1
EndSplineSet
EndChar

StartChar: u
Encoding: 117 117 88
Width: 586
GlyphClass: 2
Flags: W
LayerCount: 2
Fore
SplineSet
115 580 m 1,0,-1
 115 290 l 2,1,2
 115 141 115 141 162.5 80.5 c 128,-1,3
 210 20 210 20 293 20 c 128,-1,4
 376 20 376 20 423.5 80.5 c 128,-1,5
 471 141 471 141 471 290 c 2,6,-1
 471 580 l 1,7,-1
 501 580 l 1,8,-1
 501 290 l 2,9,10
 501 -10 501 -10 293 -10 c 128,-1,11
 85 -10 85 -10 85 290 c 2,12,-1
 85 580 l 1,13,-1
 115 580 l 1,0,-1
EndSplineSet
EndChar

StartChar: v
Encoding: 118 118 89
Width: 536
GlyphClass: 2
Flags: W
LayerCount: 2
Fore
SplineSet
518 580 m 1,0,-1
 268 -10 l 1,1,-1
 18 580 l 1,2,-1
 50 580 l 1,3,-1
 268 67 l 1,4,-1
 486 580 l 1,5,-1
 518 580 l 1,0,-1
EndSplineSet
EndChar

StartChar: w
Encoding: 119 119 90
Width: 837
GlyphClass: 2
Flags: W
LayerCount: 2
Fore
SplineSet
50 580 m 1,0,-1
 268 67 l 1,1,-1
 419 422 l 1,2,-1
 569 67 l 1,3,-1
 774 550 l 1,4,-1
 129 550 l 1,5,-1
 129 580 l 1,6,-1
 819 580 l 1,7,-1
 569 -10 l 1,8,-1
 419 345 l 1,9,-1
 268 -10 l 1,10,-1
 18 580 l 1,11,-1
 50 580 l 1,0,-1
EndSplineSet
Substitution2: "'ss01' Style Set 1 lookup 1 subtable" w.ss01
Substitution2: "'aalt' Access All Alternates in Latin lookup 0 subtable" w.ss01
EndChar

StartChar: x
Encoding: 120 120 91
Width: 458
GlyphClass: 2
Flags: W
LayerCount: 2
Fore
SplineSet
247 313 m 1,0,-1
 427 0 l 1,1,-1
 392 0 l 1,2,-1
 229 282 l 1,3,-1
 66 0 l 1,4,-1
 31 0 l 1,5,-1
 211 313 l 1,6,-1
 57 580 l 1,7,-1
 92 580 l 1,8,-1
 229 343 l 1,9,-1
 366 580 l 1,10,-1
 401 580 l 1,11,-1
 247 313 l 1,0,-1
EndSplineSet
EndChar

StartChar: y
Encoding: 121 121 92
Width: 534
GlyphClass: 2
Flags: W
LayerCount: 2
Fore
SplineSet
130 580 m 1,0,-1
 517 580 l 1,1,-1
 282 25 l 1,2,-1
 282 -200 l 1,3,-1
 252 -200 l 1,4,-1
 252 25 l 1,5,-1
 17 580 l 1,6,-1
 49 580 l 1,7,-1
 267 67 l 1,8,-1
 472 550 l 1,9,-1
 130 550 l 1,10,-1
 130 580 l 1,0,-1
EndSplineSet
Substitution2: "'ss01' Style Set 1 lookup 1 subtable" y.ss01
Substitution2: "'aalt' Access All Alternates in Latin lookup 0 subtable" y.ss01
EndChar

StartChar: z
Encoding: 122 122 93
Width: 462
GlyphClass: 2
Flags: W
LayerCount: 2
Fore
SplineSet
361 550 m 1,0,-1
 49 550 l 1,1,-1
 49 580 l 1,2,-1
 413 580 l 1,3,-1
 95 30 l 1,4,-1
 417 30 l 1,5,-1
 417 0 l 1,6,-1
 43 0 l 1,7,-1
 361 550 l 1,0,-1
EndSplineSet
EndChar

StartChar: braceleft
Encoding: 123 123 94
Width: 271
GlyphClass: 2
Flags: W
LayerCount: 2
Fore
SplineSet
30 354 m 1,0,1
 114 397 114 397 114 542 c 0,2,3
 114 705 114 705 215 756 c 1,4,-1
 227 731 l 1,5,6
 144 689 144 689 144 542 c 0,7,8
 144 402 144 402 72 350 c 1,9,10
 144 298 144 298 144 158 c 0,11,12
 144 11 144 11 227 -31 c 1,13,-1
 215 -56 l 1,14,15
 114 -5 114 -5 114 158 c 0,16,17
 114 303 114 303 30 346 c 1,18,-1
 30 354 l 1,0,1
EndSplineSet
EndChar

StartChar: bar
Encoding: 124 124 95
Width: 226
GlyphClass: 2
Flags: W
LayerCount: 2
Fore
SplineSet
128 -60 m 1,0,-1
 98 -60 l 1,1,-1
 98 760 l 1,2,-1
 128 760 l 1,3,-1
 128 -60 l 1,0,-1
EndSplineSet
EndChar

StartChar: braceright
Encoding: 125 125 96
Width: 271
GlyphClass: 2
Flags: W
LayerCount: 2
Fore
SplineSet
241 346 m 1,0,1
 157 303 157 303 157 158 c 0,2,3
 157 -5 157 -5 56 -56 c 1,4,-1
 44 -31 l 1,5,6
 127 11 127 11 127 158 c 0,7,8
 127 298 127 298 199 350 c 1,9,10
 127 402 127 402 127 542 c 0,11,12
 127 689 127 689 44 731 c 1,13,-1
 56 756 l 1,14,15
 157 705 157 705 157 542 c 0,16,17
 157 397 157 397 241 354 c 1,18,-1
 241 346 l 1,0,1
EndSplineSet
EndChar

StartChar: asciitilde
Encoding: 126 126 97
Width: 361
GlyphClass: 2
Flags: W
LayerCount: 2
Fore
SplineSet
236 622 m 0,0,1
 208 622 208 622 183 646 c 128,-1,2
 158 670 158 670 138 670 c 0,3,4
 122 670 122 670 110 657 c 128,-1,5
 98 644 98 644 98 622 c 1,6,-1
 68 622 l 1,7,8
 68 657 68 657 89.5 678.5 c 128,-1,9
 111 700 111 700 138 700 c 0,10,11
 166 700 166 700 191 676 c 128,-1,12
 216 652 216 652 236 652 c 0,13,14
 252 652 252 652 264 665 c 128,-1,15
 276 678 276 678 276 700 c 1,16,-1
 306 700 l 1,17,18
 306 665 306 665 284.5 643.5 c 128,-1,19
 263 622 263 622 236 622 c 0,0,1
EndSplineSet
EndChar

StartChar: exclamdown
Encoding: 161 161 99
Width: 228
GlyphClass: 2
Flags: W
LayerCount: 2
Fore
SplineSet
147 522 m 1,0,-1
 81 522 l 1,1,-1
 81 580 l 1,2,-1
 147 580 l 1,3,-1
 147 522 l 1,0,-1
99 445 m 1,4,-1
 129 445 l 1,5,-1
 129 -120 l 1,6,-1
 99 -120 l 1,7,-1
 99 445 l 1,4,-1
EndSplineSet
EndChar

StartChar: cent
Encoding: 162 162 100
Width: 533
GlyphClass: 2
Flags: W
LayerCount: 2
Fore
SplineSet
301 0 m 1,0,-1
 271 0 l 1,1,-1
 271 71 l 1,2,3
 163 78 163 78 112 150 c 128,-1,4
 61 222 61 222 61 343 c 0,5,6
 61 594 61 594 271 607 c 1,7,-1
 271 700 l 1,8,-1
 301 700 l 1,9,-1
 301 608 l 1,10,11
 421 607 421 607 474 539 c 1,12,-1
 452 519 l 1,13,14
 408 576 408 576 301 578 c 1,15,-1
 301 108 l 1,16,17
 408 110 408 110 452 167 c 1,18,-1
 474 147 l 1,19,20
 416 73 416 73 301 70 c 1,21,-1
 301 0 l 1,0,-1
271 109 m 1,22,-1
 271 577 l 1,23,24
 91 564 91 564 91 343 c 128,-1,25
 91 122 91 122 271 109 c 1,22,-1
EndSplineSet
EndChar

StartChar: sterling
Encoding: 163 163 101
Width: 537
GlyphClass: 2
Flags: W
LayerCount: 2
Fore
SplineSet
51 32 m 1,0,1
 88 53 88 53 105 90.5 c 128,-1,2
 122 128 122 128 122 198 c 2,3,-1
 122 399 l 2,4,5
 122 561 122 561 163 635.5 c 128,-1,6
 204 710 204 710 305 710 c 0,7,8
 391 710 391 710 436 652 c 1,9,-1
 409 634 l 1,10,11
 370 680 370 680 305 680 c 0,12,13
 229 680 229 680 190.5 619.5 c 128,-1,14
 152 559 152 559 152 399 c 1,15,-1
 271 399 l 1,16,-1
 271 369 l 1,17,-1
 152 369 l 1,18,-1
 152 198 l 2,19,20
 152 85 152 85 94 30 c 1,21,-1
 490 30 l 1,22,-1
 490 0 l 1,23,-1
 51 0 l 1,24,-1
 51 32 l 1,0,1
EndSplineSet
EndChar

StartChar: currency
Encoding: 164 164 102
Width: 481
GlyphClass: 2
Flags: W
LayerCount: 2
Fore
SplineSet
140 256 m 128,-1,1
 140 215 140 215 169.5 185.5 c 128,-1,2
 199 156 199 156 240 156 c 128,-1,3
 281 156 281 156 311 185.5 c 128,-1,4
 341 215 341 215 341 256 c 128,-1,5
 341 297 341 297 311 326.5 c 128,-1,6
 281 356 281 356 240 356 c 128,-1,7
 199 356 199 356 169.5 326.5 c 128,-1,0
 140 297 140 297 140 256 c 128,-1,1
141 172 m 1,8,9
 110 210 110 210 110 256 c 0,10,11
 110 297 110 297 136 333 c 1,12,-1
 82 387 l 1,13,-1
 104 408 l 1,14,-1
 157 355 l 1,15,16
 195 386 195 386 240 386 c 0,17,18
 286 386 286 386 324 355 c 1,19,-1
 377 408 l 1,20,-1
 399 387 l 1,21,-1
 345 333 l 1,22,23
 371 297 371 297 371 256 c 0,24,25
 371 210 371 210 340 172 c 1,26,-1
 399 113 l 1,27,-1
 377 92 l 1,28,-1
 317 152 l 1,29,30
 281 126 281 126 240 126 c 128,-1,31
 199 126 199 126 163 152 c 1,32,-1
 104 92 l 1,33,-1
 82 113 l 1,34,-1
 141 172 l 1,8,9
EndSplineSet
EndChar

StartChar: yen
Encoding: 165 165 103
Width: 510
GlyphClass: 2
Flags: W
LayerCount: 2
Fore
SplineSet
82 700 m 1,0,-1
 255 423 l 1,1,-1
 428 700 l 1,2,-1
 464 700 l 1,3,-1
 270 390 l 1,4,-1
 270 330 l 1,5,-1
 408 330 l 1,6,-1
 408 300 l 1,7,-1
 270 300 l 1,8,-1
 270 230 l 1,9,-1
 408 230 l 1,10,-1
 408 200 l 1,11,-1
 270 200 l 1,12,-1
 270 0 l 1,13,-1
 240 0 l 1,14,-1
 240 200 l 1,15,-1
 102 200 l 1,16,-1
 102 230 l 1,17,-1
 240 230 l 1,18,-1
 240 300 l 1,19,-1
 102 300 l 1,20,-1
 102 330 l 1,21,-1
 240 330 l 1,22,-1
 240 390 l 1,23,-1
 46 700 l 1,24,-1
 82 700 l 1,0,-1
EndSplineSet
EndChar

StartChar: brokenbar
Encoding: 166 166 104
Width: 230
GlyphClass: 2
Flags: W
LayerCount: 2
Fore
SplineSet
100 400 m 1,0,-1
 100 760 l 1,1,-1
 130 760 l 1,2,-1
 130 400 l 1,3,-1
 100 400 l 1,0,-1
130 300 m 1,4,-1
 130 -60 l 1,5,-1
 100 -60 l 1,6,-1
 100 300 l 1,7,-1
 130 300 l 1,4,-1
EndSplineSet
EndChar

StartChar: dieresis
Encoding: 168 168 105
Width: 334
GlyphClass: 2
Flags: W
LayerCount: 2
Fore
SplineSet
223 712 m 1,0,-1
 289 712 l 1,1,-1
 289 654 l 1,2,-1
 223 654 l 1,3,-1
 223 712 l 1,0,-1
45 712 m 1,4,-1
 111 712 l 1,5,-1
 111 654 l 1,6,-1
 45 654 l 1,7,-1
 45 712 l 1,4,-1
EndSplineSet
EndChar

StartChar: copyright
Encoding: 169 169 106
Width: 610
GlyphClass: 2
Flags: W
LayerCount: 2
Fore
SplineSet
305 560 m 128,-1,1
 255 560 255 560 221 549.5 c 128,-1,2
 187 539 187 539 158.5 510.5 c 128,-1,3
 130 482 130 482 116 427.5 c 128,-1,4
 102 373 102 373 102 290 c 128,-1,5
 102 207 102 207 116 152.5 c 128,-1,6
 130 98 130 98 158.5 69.5 c 128,-1,7
 187 41 187 41 221 30.5 c 128,-1,8
 255 20 255 20 305 20 c 128,-1,9
 355 20 355 20 389 30.5 c 128,-1,10
 423 41 423 41 451.5 69.5 c 128,-1,11
 480 98 480 98 494 152.5 c 128,-1,12
 508 207 508 207 508 290 c 128,-1,13
 508 373 508 373 494 427.5 c 128,-1,14
 480 482 480 482 451.5 510.5 c 128,-1,15
 423 539 423 539 389 549.5 c 128,-1,0
 355 560 355 560 305 560 c 128,-1,1
305 -10 m 128,-1,17
 180 -10 180 -10 126 61 c 128,-1,18
 72 132 72 132 72 290 c 128,-1,19
 72 448 72 448 126 519 c 128,-1,20
 180 590 180 590 305 590 c 128,-1,21
 430 590 430 590 484 519 c 128,-1,22
 538 448 538 448 538 290 c 128,-1,23
 538 132 538 132 484 61 c 128,-1,16
 430 -10 430 -10 305 -10 c 128,-1,17
306 132 m 0,24,25
 237 132 237 132 209.5 172 c 128,-1,26
 182 212 182 212 182 290 c 0,27,28
 182 369 182 369 210 408.5 c 128,-1,29
 238 448 238 448 306 448 c 0,30,31
 372 448 372 448 406 405 c 1,32,-1
 384 385 l 1,33,-1
 379 392 l 1,34,35
 359 418 359 418 306 418 c 0,36,37
 251 418 251 418 231.5 388 c 128,-1,38
 212 358 212 358 212 290 c 0,39,40
 212 221 212 221 232 191.5 c 128,-1,41
 252 162 252 162 306 162 c 128,-1,42
 360 162 360 162 379 188 c 2,43,-1
 384 195 l 1,44,-1
 406 175 l 1,45,-1
 402 169 l 1,46,47
 373 132 373 132 306 132 c 0,24,25
EndSplineSet
EndChar

StartChar: guillemotleft
Encoding: 171 171 107
Width: 432
GlyphClass: 2
Flags: W
LayerCount: 2
Fore
SplineSet
61 350 m 1,0,-1
 201 467 l 1,1,-1
 220 444 l 1,2,-1
 108 350 l 1,3,-1
 220 256 l 1,4,-1
 201 233 l 1,5,-1
 61 350 l 1,0,-1
181 350 m 1,6,-1
 321 467 l 1,7,-1
 340 444 l 1,8,-1
 228 350 l 1,9,-1
 340 256 l 1,10,-1
 321 233 l 1,11,-1
 181 350 l 1,6,-1
EndSplineSet
EndChar

StartChar: registered
Encoding: 174 174 108
Width: 610
GlyphClass: 2
Flags: W
LayerCount: 2
Fore
SplineSet
305 560 m 128,-1,1
 255 560 255 560 221 549.5 c 128,-1,2
 187 539 187 539 158.5 510.5 c 128,-1,3
 130 482 130 482 116 427.5 c 128,-1,4
 102 373 102 373 102 290 c 128,-1,5
 102 207 102 207 116 152.5 c 128,-1,6
 130 98 130 98 158.5 69.5 c 128,-1,7
 187 41 187 41 221 30.5 c 128,-1,8
 255 20 255 20 305 20 c 128,-1,9
 355 20 355 20 389 30.5 c 128,-1,10
 423 41 423 41 451.5 69.5 c 128,-1,11
 480 98 480 98 494 152.5 c 128,-1,12
 508 207 508 207 508 290 c 128,-1,13
 508 373 508 373 494 427.5 c 128,-1,14
 480 482 480 482 451.5 510.5 c 128,-1,15
 423 539 423 539 389 549.5 c 128,-1,0
 355 560 355 560 305 560 c 128,-1,1
305 -10 m 128,-1,17
 180 -10 180 -10 126 61 c 128,-1,18
 72 132 72 132 72 290 c 128,-1,19
 72 448 72 448 126 519 c 128,-1,20
 180 590 180 590 305 590 c 128,-1,21
 430 590 430 590 484 519 c 128,-1,22
 538 448 538 448 538 290 c 128,-1,23
 538 132 538 132 484 61 c 128,-1,16
 430 -10 430 -10 305 -10 c 128,-1,17
312 298 m 1,24,25
 314 299 314 299 322.5 303 c 128,-1,26
 331 307 331 307 334 309 c 128,-1,27
 337 311 337 311 344.5 315.5 c 128,-1,28
 352 320 352 320 355 323.5 c 128,-1,29
 358 327 358 327 362.5 332.5 c 128,-1,30
 367 338 367 338 368.5 344.5 c 128,-1,31
 370 351 370 351 370 358 c 0,32,33
 370 385 370 385 342.5 398.5 c 128,-1,34
 315 412 315 412 273 412 c 2,35,-1
 241 412 l 1,36,-1
 241 138 l 1,37,-1
 211 138 l 1,38,-1
 211 442 l 1,39,-1
 273 442 l 2,40,41
 335 442 335 442 367.5 419.5 c 128,-1,42
 400 397 400 397 400 358 c 0,43,44
 400 314 400 314 350 287 c 1,45,-1
 420 138 l 1,46,-1
 387 138 l 1,47,-1
 312 298 l 1,24,25
EndSplineSet
EndChar

StartChar: macron
Encoding: 175 175 109
Width: 300
GlyphClass: 2
Flags: W
LayerCount: 2
Fore
SplineSet
34 670 m 1,0,-1
 34 700 l 1,1,-1
 254 700 l 1,2,-1
 254 670 l 1,3,-1
 34 670 l 1,0,-1
EndSplineSet
EndChar

StartChar: degree
Encoding: 176 176 110
Width: 322
GlyphClass: 2
Flags: W
LayerCount: 2
Fore
SplineSet
161 741 m 0,0,1
 131 741 131 741 111 720 c 128,-1,2
 91 699 91 699 91 671 c 0,3,4
 91 641 91 641 112 621 c 128,-1,5
 133 601 133 601 161 601 c 0,6,7
 191 601 191 601 211 622 c 128,-1,8
 231 643 231 643 231 671 c 0,9,10
 231 701 231 701 210 721 c 128,-1,11
 189 741 189 741 161 741 c 0,0,1
61 671 m 0,12,13
 61 714 61 714 91 742.5 c 128,-1,14
 121 771 121 771 161 771 c 0,15,16
 204 771 204 771 232.5 741 c 128,-1,17
 261 711 261 711 261 671 c 0,18,19
 261 628 261 628 231 599.5 c 128,-1,20
 201 571 201 571 161 571 c 0,21,22
 118 571 118 571 89.5 601 c 128,-1,23
 61 631 61 631 61 671 c 0,12,13
EndSplineSet
EndChar

StartChar: acute
Encoding: 180 180 111
Width: 230
GlyphClass: 2
Flags: W
LayerCount: 2
Fore
SplineSet
185 764 m 1,0,-1
 68 625 l 1,1,-1
 45 644 l 1,2,-1
 162 784 l 1,3,-1
 185 764 l 1,0,-1
EndSplineSet
EndChar

StartChar: periodcentered
Encoding: 183 183 112
Width: 244
GlyphClass: 2
Flags: W
LayerCount: 2
Fore
SplineSet
89 358 m 1,0,-1
 155 358 l 1,1,-1
 155 300 l 1,2,-1
 89 300 l 1,3,-1
 89 358 l 1,0,-1
EndSplineSet
EndChar

StartChar: cedilla
Encoding: 184 184 113
Width: 170
GlyphClass: 2
Flags: W
LayerCount: 2
Fore
SplineSet
45 -176 m 1,0,1
 88 -143 88 -143 88 -95 c 1,2,-1
 59 -95 l 1,3,-1
 59 -37 l 1,4,-1
 125 -37 l 1,5,6
 125 -108 125 -108 112 -138 c 128,-1,7
 99 -168 99 -168 65 -198 c 1,8,-1
 45 -176 l 1,0,1
EndSplineSet
EndChar

StartChar: guillemotright
Encoding: 187 187 114
Width: 432
GlyphClass: 2
Flags: W
LayerCount: 2
Fore
SplineSet
251 350 m 1,0,-1
 111 233 l 1,1,-1
 92 256 l 1,2,-1
 204 350 l 1,3,-1
 92 444 l 1,4,-1
 111 467 l 1,5,-1
 251 350 l 1,0,-1
371 350 m 1,6,-1
 231 233 l 1,7,-1
 212 256 l 1,8,-1
 324 350 l 1,9,-1
 212 444 l 1,10,-1
 231 467 l 1,11,-1
 371 350 l 1,6,-1
EndSplineSet
EndChar

StartChar: questiondown
Encoding: 191 191 115
Width: 501
GlyphClass: 2
Flags: W
LayerCount: 2
Fore
SplineSet
324 522 m 1,0,-1
 258 522 l 1,1,-1
 258 580 l 1,2,-1
 324 580 l 1,3,-1
 324 522 l 1,0,-1
306 424 m 1,4,5
 306 378 306 378 289.5 339.5 c 128,-1,6
 273 301 273 301 249 276.5 c 128,-1,7
 225 252 225 252 196 225.5 c 128,-1,8
 167 199 167 199 143 177 c 128,-1,9
 119 155 119 155 102.5 122.5 c 128,-1,10
 86 90 86 90 86 53 c 0,11,12
 86 3 86 3 100 -29 c 128,-1,13
 114 -61 114 -61 141.5 -75.5 c 128,-1,14
 169 -90 169 -90 196.5 -95 c 128,-1,15
 224 -100 224 -100 264 -100 c 0,16,17
 322 -100 322 -100 361.5 -73 c 128,-1,18
 401 -46 401 -46 422 21 c 1,19,-1
 314 102 l 1,20,-1
 363 102 l 1,21,-1
 456 32 l 1,22,23
 435 -50 435 -50 388 -90 c 128,-1,24
 341 -130 341 -130 264 -130 c 0,25,26
 154 -130 154 -130 105 -87 c 128,-1,27
 56 -44 56 -44 56 53 c 0,28,29
 56 95 56 95 72.5 130.5 c 128,-1,30
 89 166 89 166 113 189.5 c 128,-1,31
 137 213 137 213 166 239 c 128,-1,32
 195 265 195 265 219 288.5 c 128,-1,33
 243 312 243 312 259.5 347 c 128,-1,34
 276 382 276 382 276 424 c 1,35,-1
 306 424 l 1,4,5
EndSplineSet
EndChar

StartChar: Agrave
Encoding: 192 192 116
Width: 546
GlyphClass: 2
Flags: W
LayerCount: 2
Fore
SplineSet
180 860 m 1,0,-1
 203 880 l 1,1,-1
 320 740 l 1,2,-1
 297 721 l 1,3,-1
 180 860 l 1,0,-1
117 30 m 1,4,-1
 485 30 l 1,5,-1
 273 613 l 1,6,-1
 50 0 l 1,7,-1
 18 0 l 1,8,-1
 273 701 l 1,9,-1
 528 0 l 1,10,-1
 117 0 l 1,11,-1
 117 30 l 1,4,-1
EndSplineSet
EndChar

StartChar: Aacute
Encoding: 193 193 117
Width: 546
GlyphClass: 2
Flags: W
LayerCount: 2
Fore
SplineSet
367 860 m 1,0,-1
 250 721 l 1,1,-1
 227 740 l 1,2,-1
 344 880 l 1,3,-1
 367 860 l 1,0,-1
117 30 m 1,4,-1
 485 30 l 1,5,-1
 273 613 l 1,6,-1
 50 0 l 1,7,-1
 18 0 l 1,8,-1
 273 701 l 1,9,-1
 528 0 l 1,10,-1
 117 0 l 1,11,-1
 117 30 l 1,4,-1
EndSplineSet
EndChar

StartChar: Acircumflex
Encoding: 194 194 118
Width: 546
GlyphClass: 2
Flags: W
LayerCount: 2
Fore
SplineSet
273 864 m 1,0,-1
 390 724 l 1,1,-1
 367 705 l 1,2,-1
 273 817 l 1,3,-1
 179 705 l 1,4,-1
 156 724 l 1,5,-1
 273 864 l 1,0,-1
117 30 m 1,6,-1
 485 30 l 1,7,-1
 273 613 l 1,8,-1
 50 0 l 1,9,-1
 18 0 l 1,10,-1
 273 701 l 1,11,-1
 528 0 l 1,12,-1
 117 0 l 1,13,-1
 117 30 l 1,6,-1
EndSplineSet
EndChar

StartChar: Atilde
Encoding: 195 195 119
Width: 546
GlyphClass: 2
Flags: W
LayerCount: 2
Fore
SplineSet
324 722 m 0,0,1
 296 722 296 722 271 746 c 128,-1,2
 246 770 246 770 226 770 c 0,3,4
 210 770 210 770 198 757 c 128,-1,5
 186 744 186 744 186 722 c 1,6,-1
 156 722 l 1,7,8
 156 757 156 757 177.5 778.5 c 128,-1,9
 199 800 199 800 226 800 c 0,10,11
 254 800 254 800 279 776 c 128,-1,12
 304 752 304 752 324 752 c 0,13,14
 340 752 340 752 352 765 c 128,-1,15
 364 778 364 778 364 800 c 1,16,-1
 394 800 l 1,17,18
 394 765 394 765 372.5 743.5 c 128,-1,19
 351 722 351 722 324 722 c 0,0,1
117 30 m 1,20,-1
 485 30 l 1,21,-1
 273 613 l 1,22,-1
 50 0 l 1,23,-1
 18 0 l 1,24,-1
 273 701 l 1,25,-1
 528 0 l 1,26,-1
 117 0 l 1,27,-1
 117 30 l 1,20,-1
EndSplineSet
EndChar

StartChar: Adieresis
Encoding: 196 196 120
Width: 546
GlyphClass: 2
Flags: W
LayerCount: 2
Fore
SplineSet
329 812 m 1,0,-1
 395 812 l 1,1,-1
 395 754 l 1,2,-1
 329 754 l 1,3,-1
 329 812 l 1,0,-1
151 812 m 1,4,-1
 217 812 l 1,5,-1
 217 754 l 1,6,-1
 151 754 l 1,7,-1
 151 812 l 1,4,-1
117 30 m 1,8,-1
 485 30 l 1,9,-1
 273 613 l 1,10,-1
 50 0 l 1,11,-1
 18 0 l 1,12,-1
 273 701 l 1,13,-1
 528 0 l 1,14,-1
 117 0 l 1,15,-1
 117 30 l 1,8,-1
EndSplineSet
EndChar

StartChar: Aring
Encoding: 197 197 121
Width: 546
GlyphClass: 2
Flags: W
LayerCount: 2
Fore
SplineSet
273 826 m 0,0,1
 254 826 254 826 241 812.5 c 128,-1,2
 228 799 228 799 228 781 c 0,3,4
 228 762 228 762 241.5 749 c 128,-1,5
 255 736 255 736 273 736 c 0,6,7
 292 736 292 736 305 749.5 c 128,-1,8
 318 763 318 763 318 781 c 0,9,10
 318 800 318 800 304.5 813 c 128,-1,11
 291 826 291 826 273 826 c 0,0,1
273 851 m 0,12,13
 301 851 301 851 322 831 c 128,-1,14
 343 811 343 811 343 781 c 0,15,16
 343 753 343 753 323 732 c 128,-1,17
 303 711 303 711 273 711 c 0,18,19
 245 711 245 711 224 731 c 128,-1,20
 203 751 203 751 203 781 c 0,21,22
 203 809 203 809 223 830 c 128,-1,23
 243 851 243 851 273 851 c 0,12,13
117 30 m 1,24,-1
 485 30 l 1,25,-1
 273 613 l 1,26,-1
 50 0 l 1,27,-1
 18 0 l 1,28,-1
 273 701 l 1,29,-1
 528 0 l 1,30,-1
 117 0 l 1,31,-1
 117 30 l 1,24,-1
EndSplineSet
EndChar

StartChar: AE
Encoding: 198 198 122
Width: 805
GlyphClass: 2
Flags: W
LayerCount: 2
Fore
SplineSet
687 366 m 1,0,-1
 390 366 l 1,1,-1
 696 670 l 1,2,-1
 358 670 l 1,3,-1
 358 30 l 1,4,-1
 746 30 l 1,5,-1
 746 0 l 1,6,-1
 328 0 l 1,7,-1
 328 627 l 1,8,-1
 49 30 l 1,9,-1
 234 30 l 1,10,-1
 234 0 l 1,11,-1
 2 0 l 1,12,-1
 328 700 l 1,13,-1
 769 700 l 1,14,-1
 463 396 l 1,15,-1
 687 396 l 1,16,-1
 687 366 l 1,0,-1
EndSplineSet
EndChar

StartChar: Ccedilla
Encoding: 199 199 123
Width: 587
GlyphClass: 2
Flags: W
LayerCount: 2
Fore
SplineSet
268 -176 m 1,0,1
 311 -143 311 -143 311 -95 c 1,2,-1
 282 -95 l 1,3,-1
 282 -37 l 1,4,-1
 348 -37 l 1,5,6
 348 -108 348 -108 335 -138 c 128,-1,7
 322 -168 322 -168 288 -198 c 1,8,-1
 268 -176 l 1,0,1
533 128 m 1,9,10
 506 62 506 62 457 26 c 128,-1,11
 408 -10 408 -10 310 -10 c 0,12,13
 187 -10 187 -10 132 65.5 c 128,-1,14
 77 141 77 141 77 301 c 2,15,-1
 77 399 l 2,16,17
 77 559 77 559 132 634.5 c 128,-1,18
 187 710 187 710 310 710 c 0,19,20
 408 710 408 710 457 674 c 128,-1,21
 506 638 506 638 533 572 c 1,22,-1
 506 559 l 1,23,24
 483 617 483 617 441 648.5 c 128,-1,25
 399 680 399 680 310 680 c 0,26,27
 261 680 261 680 226 667.5 c 128,-1,28
 191 655 191 655 163 625 c 128,-1,29
 135 595 135 595 121 538.5 c 128,-1,30
 107 482 107 482 107 399 c 2,31,-1
 107 301 l 2,32,33
 107 218 107 218 121 161.5 c 128,-1,34
 135 105 135 105 163 75 c 128,-1,35
 191 45 191 45 226 32.5 c 128,-1,36
 261 20 261 20 310 20 c 0,37,38
 399 20 399 20 441 51.5 c 128,-1,39
 483 83 483 83 506 141 c 1,40,-1
 533 128 l 1,9,10
EndSplineSet
EndChar

StartChar: Egrave
Encoding: 200 200 124
Width: 576
GlyphClass: 2
Flags: W
LayerCount: 2
Fore
SplineSet
216 860 m 1,0,-1
 239 880 l 1,1,-1
 356 740 l 1,2,-1
 333 721 l 1,3,-1
 216 860 l 1,0,-1
458 366 m 1,4,-1
 161 366 l 1,5,-1
 467 670 l 1,6,-1
 129 670 l 1,7,-1
 129 30 l 1,8,-1
 517 30 l 1,9,-1
 517 0 l 1,10,-1
 99 0 l 1,11,-1
 99 700 l 1,12,-1
 540 700 l 1,13,-1
 234 396 l 1,14,-1
 458 396 l 1,15,-1
 458 366 l 1,4,-1
EndSplineSet
EndChar

StartChar: Eacute
Encoding: 201 201 125
Width: 576
GlyphClass: 2
Flags: W
LayerCount: 2
Fore
SplineSet
402 860 m 1,0,-1
 285 721 l 1,1,-1
 262 740 l 1,2,-1
 379 880 l 1,3,-1
 402 860 l 1,0,-1
458 366 m 1,4,-1
 161 366 l 1,5,-1
 467 670 l 1,6,-1
 129 670 l 1,7,-1
 129 30 l 1,8,-1
 517 30 l 1,9,-1
 517 0 l 1,10,-1
 99 0 l 1,11,-1
 99 700 l 1,12,-1
 540 700 l 1,13,-1
 234 396 l 1,14,-1
 458 396 l 1,15,-1
 458 366 l 1,4,-1
EndSplineSet
EndChar

StartChar: Ecircumflex
Encoding: 202 202 126
Width: 576
GlyphClass: 2
Flags: W
LayerCount: 2
Fore
SplineSet
309 864 m 1,0,-1
 426 724 l 1,1,-1
 403 705 l 1,2,-1
 309 817 l 1,3,-1
 215 705 l 1,4,-1
 192 724 l 1,5,-1
 309 864 l 1,0,-1
458 366 m 1,6,-1
 161 366 l 1,7,-1
 467 670 l 1,8,-1
 129 670 l 1,9,-1
 129 30 l 1,10,-1
 517 30 l 1,11,-1
 517 0 l 1,12,-1
 99 0 l 1,13,-1
 99 700 l 1,14,-1
 540 700 l 1,15,-1
 234 396 l 1,16,-1
 458 396 l 1,17,-1
 458 366 l 1,6,-1
EndSplineSet
EndChar

StartChar: Edieresis
Encoding: 203 203 127
Width: 576
GlyphClass: 2
Flags: W
LayerCount: 2
Fore
SplineSet
365 812 m 1,0,-1
 431 812 l 1,1,-1
 431 754 l 1,2,-1
 365 754 l 1,3,-1
 365 812 l 1,0,-1
187 812 m 1,4,-1
 253 812 l 1,5,-1
 253 754 l 1,6,-1
 187 754 l 1,7,-1
 187 812 l 1,4,-1
458 366 m 1,8,-1
 161 366 l 1,9,-1
 467 670 l 1,10,-1
 129 670 l 1,11,-1
 129 30 l 1,12,-1
 517 30 l 1,13,-1
 517 0 l 1,14,-1
 99 0 l 1,15,-1
 99 700 l 1,16,-1
 540 700 l 1,17,-1
 234 396 l 1,18,-1
 458 396 l 1,19,-1
 458 366 l 1,8,-1
EndSplineSet
EndChar

StartChar: Igrave
Encoding: 204 204 128
Width: 228
GlyphClass: 2
Flags: W
LayerCount: 2
Fore
SplineSet
39 860 m 1,0,-1
 62 880 l 1,1,-1
 179 740 l 1,2,-1
 156 721 l 1,3,-1
 39 860 l 1,0,-1
129 0 m 1,4,-1
 99 0 l 1,5,-1
 99 700 l 1,6,-1
 129 700 l 1,7,-1
 129 0 l 1,4,-1
EndSplineSet
EndChar

StartChar: Iacute
Encoding: 205 205 129
Width: 228
GlyphClass: 2
Flags: W
LayerCount: 2
Fore
SplineSet
189 860 m 1,0,-1
 72 721 l 1,1,-1
 49 740 l 1,2,-1
 166 880 l 1,3,-1
 189 860 l 1,0,-1
129 0 m 1,4,-1
 99 0 l 1,5,-1
 99 700 l 1,6,-1
 129 700 l 1,7,-1
 129 0 l 1,4,-1
EndSplineSet
EndChar

StartChar: Icircumflex
Encoding: 206 206 130
Width: 228
GlyphClass: 2
Flags: W
LayerCount: 2
Fore
SplineSet
114 864 m 1,0,-1
 231 724 l 1,1,-1
 208 705 l 1,2,-1
 114 817 l 1,3,-1
 20 705 l 1,4,-1
 -3 724 l 1,5,-1
 114 864 l 1,0,-1
129 0 m 1,6,-1
 99 0 l 1,7,-1
 99 700 l 1,8,-1
 129 700 l 1,9,-1
 129 0 l 1,6,-1
EndSplineSet
EndChar

StartChar: Idieresis
Encoding: 207 207 131
Width: 228
GlyphClass: 2
Flags: W
LayerCount: 2
Fore
SplineSet
170 812 m 1,0,-1
 236 812 l 1,1,-1
 236 754 l 1,2,-1
 170 754 l 1,3,-1
 170 812 l 1,0,-1
-8 812 m 1,4,-1
 58 812 l 1,5,-1
 58 754 l 1,6,-1
 -8 754 l 1,7,-1
 -8 812 l 1,4,-1
129 0 m 1,8,-1
 99 0 l 1,9,-1
 99 700 l 1,10,-1
 129 700 l 1,11,-1
 129 0 l 1,8,-1
EndSplineSet
EndChar

StartChar: Eth
Encoding: 208 208 132
Width: 593
GlyphClass: 2
Flags: W
LayerCount: 2
Fore
SplineSet
35 335 m 1,0,-1
 35 365 l 1,1,-1
 99 365 l 1,2,-1
 99 700 l 1,3,-1
 195 700 l 2,4,5
 339 700 339 700 439 594 c 128,-1,6
 539 488 539 488 539 350 c 128,-1,7
 539 212 539 212 439 106 c 128,-1,8
 339 0 339 0 195 0 c 2,9,-1
 99 0 l 1,10,-1
 99 335 l 1,11,-1
 35 335 l 1,0,-1
195 30 m 2,12,13
 326 30 326 30 417.5 126.5 c 128,-1,14
 509 223 509 223 509 350 c 128,-1,15
 509 477 509 477 417.5 573.5 c 128,-1,16
 326 670 326 670 195 670 c 2,17,-1
 129 670 l 1,18,-1
 129 365 l 1,19,-1
 233 365 l 1,20,-1
 233 335 l 1,21,-1
 129 335 l 1,22,-1
 129 30 l 1,23,-1
 195 30 l 2,12,13
EndSplineSet
EndChar

StartChar: Ntilde
Encoding: 209 209 133
Width: 637
GlyphClass: 2
Flags: W
LayerCount: 2
Fore
SplineSet
368 722 m 0,0,1
 340 722 340 722 315 746 c 128,-1,2
 290 770 290 770 270 770 c 0,3,4
 254 770 254 770 242 757 c 128,-1,5
 230 744 230 744 230 722 c 1,6,-1
 200 722 l 1,7,8
 200 757 200 757 221.5 778.5 c 128,-1,9
 243 800 243 800 270 800 c 0,10,11
 298 800 298 800 323 776 c 128,-1,12
 348 752 348 752 368 752 c 0,13,14
 384 752 384 752 396 765 c 128,-1,15
 408 778 408 778 408 800 c 1,16,-1
 438 800 l 1,17,18
 438 765 438 765 416.5 743.5 c 128,-1,19
 395 722 395 722 368 722 c 0,0,1
177 30 m 1,20,-1
 487 30 l 1,21,-1
 129 649 l 1,22,-1
 129 0 l 1,23,-1
 99 0 l 1,24,-1
 99 700 l 1,25,-1
 134 700 l 1,26,-1
 508 53 l 1,27,-1
 508 700 l 1,28,-1
 538 700 l 1,29,-1
 538 0 l 1,30,-1
 177 0 l 1,31,-1
 177 30 l 1,20,-1
EndSplineSet
EndChar

StartChar: Ograve
Encoding: 210 210 134
Width: 620
GlyphClass: 2
Flags: W
LayerCount: 2
Fore
SplineSet
217 860 m 1,0,-1
 240 880 l 1,1,-1
 357 740 l 1,2,-1
 334 721 l 1,3,-1
 217 860 l 1,0,-1
310 -10 m 128,-1,5
 187 -10 187 -10 132 65.5 c 128,-1,6
 77 141 77 141 77 301 c 2,7,-1
 77 399 l 2,8,9
 77 559 77 559 132 634.5 c 128,-1,10
 187 710 187 710 310 710 c 128,-1,11
 433 710 433 710 488 634.5 c 128,-1,12
 543 559 543 559 543 399 c 2,13,-1
 543 301 l 2,14,15
 543 141 543 141 488 65.5 c 128,-1,4
 433 -10 433 -10 310 -10 c 128,-1,5
310 680 m 128,-1,17
 261 680 261 680 226 667.5 c 128,-1,18
 191 655 191 655 163 625 c 128,-1,19
 135 595 135 595 121 538.5 c 128,-1,20
 107 482 107 482 107 399 c 2,21,-1
 107 301 l 2,22,23
 107 218 107 218 121 161.5 c 128,-1,24
 135 105 135 105 163 75 c 128,-1,25
 191 45 191 45 226 32.5 c 128,-1,26
 261 20 261 20 310 20 c 128,-1,27
 359 20 359 20 394 32.5 c 128,-1,28
 429 45 429 45 457 75 c 128,-1,29
 485 105 485 105 499 161.5 c 128,-1,30
 513 218 513 218 513 301 c 2,31,-1
 513 399 l 2,32,33
 513 482 513 482 499 538.5 c 128,-1,34
 485 595 485 595 457 625 c 128,-1,35
 429 655 429 655 394 667.5 c 128,-1,16
 359 680 359 680 310 680 c 128,-1,17
EndSplineSet
EndChar

StartChar: Oacute
Encoding: 211 211 135
Width: 620
GlyphClass: 2
Flags: W
LayerCount: 2
Fore
SplineSet
403 860 m 1,0,-1
 286 721 l 1,1,-1
 263 740 l 1,2,-1
 380 880 l 1,3,-1
 403 860 l 1,0,-1
310 -10 m 128,-1,5
 187 -10 187 -10 132 65.5 c 128,-1,6
 77 141 77 141 77 301 c 2,7,-1
 77 399 l 2,8,9
 77 559 77 559 132 634.5 c 128,-1,10
 187 710 187 710 310 710 c 128,-1,11
 433 710 433 710 488 634.5 c 128,-1,12
 543 559 543 559 543 399 c 2,13,-1
 543 301 l 2,14,15
 543 141 543 141 488 65.5 c 128,-1,4
 433 -10 433 -10 310 -10 c 128,-1,5
310 680 m 128,-1,17
 261 680 261 680 226 667.5 c 128,-1,18
 191 655 191 655 163 625 c 128,-1,19
 135 595 135 595 121 538.5 c 128,-1,20
 107 482 107 482 107 399 c 2,21,-1
 107 301 l 2,22,23
 107 218 107 218 121 161.5 c 128,-1,24
 135 105 135 105 163 75 c 128,-1,25
 191 45 191 45 226 32.5 c 128,-1,26
 261 20 261 20 310 20 c 128,-1,27
 359 20 359 20 394 32.5 c 128,-1,28
 429 45 429 45 457 75 c 128,-1,29
 485 105 485 105 499 161.5 c 128,-1,30
 513 218 513 218 513 301 c 2,31,-1
 513 399 l 2,32,33
 513 482 513 482 499 538.5 c 128,-1,34
 485 595 485 595 457 625 c 128,-1,35
 429 655 429 655 394 667.5 c 128,-1,16
 359 680 359 680 310 680 c 128,-1,17
EndSplineSet
EndChar

StartChar: Ocircumflex
Encoding: 212 212 136
Width: 620
GlyphClass: 2
Flags: W
LayerCount: 2
Fore
SplineSet
310 864 m 1,0,-1
 427 724 l 1,1,-1
 404 705 l 1,2,-1
 310 817 l 1,3,-1
 216 705 l 1,4,-1
 193 724 l 1,5,-1
 310 864 l 1,0,-1
310 -10 m 128,-1,7
 187 -10 187 -10 132 65.5 c 128,-1,8
 77 141 77 141 77 301 c 2,9,-1
 77 399 l 2,10,11
 77 559 77 559 132 634.5 c 128,-1,12
 187 710 187 710 310 710 c 128,-1,13
 433 710 433 710 488 634.5 c 128,-1,14
 543 559 543 559 543 399 c 2,15,-1
 543 301 l 2,16,17
 543 141 543 141 488 65.5 c 128,-1,6
 433 -10 433 -10 310 -10 c 128,-1,7
310 680 m 128,-1,19
 261 680 261 680 226 667.5 c 128,-1,20
 191 655 191 655 163 625 c 128,-1,21
 135 595 135 595 121 538.5 c 128,-1,22
 107 482 107 482 107 399 c 2,23,-1
 107 301 l 2,24,25
 107 218 107 218 121 161.5 c 128,-1,26
 135 105 135 105 163 75 c 128,-1,27
 191 45 191 45 226 32.5 c 128,-1,28
 261 20 261 20 310 20 c 128,-1,29
 359 20 359 20 394 32.5 c 128,-1,30
 429 45 429 45 457 75 c 128,-1,31
 485 105 485 105 499 161.5 c 128,-1,32
 513 218 513 218 513 301 c 2,33,-1
 513 399 l 2,34,35
 513 482 513 482 499 538.5 c 128,-1,36
 485 595 485 595 457 625 c 128,-1,37
 429 655 429 655 394 667.5 c 128,-1,18
 359 680 359 680 310 680 c 128,-1,19
EndSplineSet
EndChar

StartChar: Otilde
Encoding: 213 213 137
Width: 620
GlyphClass: 2
Flags: W
LayerCount: 2
Fore
SplineSet
361 722 m 0,0,1
 333 722 333 722 308 746 c 128,-1,2
 283 770 283 770 263 770 c 0,3,4
 247 770 247 770 235 757 c 128,-1,5
 223 744 223 744 223 722 c 1,6,-1
 193 722 l 1,7,8
 193 757 193 757 214.5 778.5 c 128,-1,9
 236 800 236 800 263 800 c 0,10,11
 291 800 291 800 316 776 c 128,-1,12
 341 752 341 752 361 752 c 0,13,14
 377 752 377 752 389 765 c 128,-1,15
 401 778 401 778 401 800 c 1,16,-1
 431 800 l 1,17,18
 431 765 431 765 409.5 743.5 c 128,-1,19
 388 722 388 722 361 722 c 0,0,1
310 -10 m 128,-1,21
 187 -10 187 -10 132 65.5 c 128,-1,22
 77 141 77 141 77 301 c 2,23,-1
 77 399 l 2,24,25
 77 559 77 559 132 634.5 c 128,-1,26
 187 710 187 710 310 710 c 128,-1,27
 433 710 433 710 488 634.5 c 128,-1,28
 543 559 543 559 543 399 c 2,29,-1
 543 301 l 2,30,31
 543 141 543 141 488 65.5 c 128,-1,20
 433 -10 433 -10 310 -10 c 128,-1,21
310 680 m 128,-1,33
 261 680 261 680 226 667.5 c 128,-1,34
 191 655 191 655 163 625 c 128,-1,35
 135 595 135 595 121 538.5 c 128,-1,36
 107 482 107 482 107 399 c 2,37,-1
 107 301 l 2,38,39
 107 218 107 218 121 161.5 c 128,-1,40
 135 105 135 105 163 75 c 128,-1,41
 191 45 191 45 226 32.5 c 128,-1,42
 261 20 261 20 310 20 c 128,-1,43
 359 20 359 20 394 32.5 c 128,-1,44
 429 45 429 45 457 75 c 128,-1,45
 485 105 485 105 499 161.5 c 128,-1,46
 513 218 513 218 513 301 c 2,47,-1
 513 399 l 2,48,49
 513 482 513 482 499 538.5 c 128,-1,50
 485 595 485 595 457 625 c 128,-1,51
 429 655 429 655 394 667.5 c 128,-1,32
 359 680 359 680 310 680 c 128,-1,33
EndSplineSet
EndChar

StartChar: Odieresis
Encoding: 214 214 138
Width: 620
GlyphClass: 2
Flags: W
LayerCount: 2
Fore
SplineSet
366 812 m 1,0,-1
 432 812 l 1,1,-1
 432 754 l 1,2,-1
 366 754 l 1,3,-1
 366 812 l 1,0,-1
188 812 m 1,4,-1
 254 812 l 1,5,-1
 254 754 l 1,6,-1
 188 754 l 1,7,-1
 188 812 l 1,4,-1
310 -10 m 128,-1,9
 187 -10 187 -10 132 65.5 c 128,-1,10
 77 141 77 141 77 301 c 2,11,-1
 77 399 l 2,12,13
 77 559 77 559 132 634.5 c 128,-1,14
 187 710 187 710 310 710 c 128,-1,15
 433 710 433 710 488 634.5 c 128,-1,16
 543 559 543 559 543 399 c 2,17,-1
 543 301 l 2,18,19
 543 141 543 141 488 65.5 c 128,-1,8
 433 -10 433 -10 310 -10 c 128,-1,9
310 680 m 128,-1,21
 261 680 261 680 226 667.5 c 128,-1,22
 191 655 191 655 163 625 c 128,-1,23
 135 595 135 595 121 538.5 c 128,-1,24
 107 482 107 482 107 399 c 2,25,-1
 107 301 l 2,26,27
 107 218 107 218 121 161.5 c 128,-1,28
 135 105 135 105 163 75 c 128,-1,29
 191 45 191 45 226 32.5 c 128,-1,30
 261 20 261 20 310 20 c 128,-1,31
 359 20 359 20 394 32.5 c 128,-1,32
 429 45 429 45 457 75 c 128,-1,33
 485 105 485 105 499 161.5 c 128,-1,34
 513 218 513 218 513 301 c 2,35,-1
 513 399 l 2,36,37
 513 482 513 482 499 538.5 c 128,-1,38
 485 595 485 595 457 625 c 128,-1,39
 429 655 429 655 394 667.5 c 128,-1,20
 359 680 359 680 310 680 c 128,-1,21
EndSplineSet
EndChar

StartChar: multiply
Encoding: 215 215 139
Width: 479
GlyphClass: 2
Flags: W
LayerCount: 2
Fore
SplineSet
81 387 m 1,0,-1
 103 408 l 1,1,-1
 239 271 l 1,2,-1
 376 408 l 1,3,-1
 398 387 l 1,4,-1
 261 250 l 1,5,-1
 398 113 l 1,6,-1
 376 92 l 1,7,-1
 239 229 l 1,8,-1
 103 92 l 1,9,-1
 81 113 l 1,10,-1
 218 250 l 1,11,-1
 81 387 l 1,0,-1
EndSplineSet
EndChar

StartChar: Oslash
Encoding: 216 216 140
Width: 620
GlyphClass: 2
Flags: W
LayerCount: 2
Fore
SplineSet
310 680 m 0,0,1
 261 680 261 680 226 667.5 c 128,-1,2
 191 655 191 655 163 625 c 128,-1,3
 135 595 135 595 121 538.5 c 128,-1,4
 107 482 107 482 107 399 c 2,5,-1
 107 301 l 2,6,7
 107 121 107 121 177 60 c 1,8,-1
 418 657 l 1,9,10
 377 680 377 680 310 680 c 0,0,1
170 -36 m 1,11,-1
 143 -25 l 1,12,-1
 166 31 l 1,13,14
 77 100 77 100 77 301 c 2,15,-1
 77 399 l 2,16,17
 77 559 77 559 132 634.5 c 128,-1,18
 187 710 187 710 310 710 c 0,19,20
 382 710 382 710 429 685 c 1,21,-1
 450 736 l 1,22,-1
 477 725 l 1,23,-1
 454 669 l 1,24,25
 543 600 543 600 543 399 c 2,26,-1
 543 301 l 2,27,28
 543 141 543 141 488 65.5 c 128,-1,29
 433 -10 433 -10 310 -10 c 0,30,31
 238 -10 238 -10 191 15 c 1,32,-1
 170 -36 l 1,11,-1
443 640 m 1,33,-1
 202 43 l 1,34,35
 243 20 243 20 310 20 c 0,36,37
 359 20 359 20 394 32.5 c 128,-1,38
 429 45 429 45 457 75 c 128,-1,39
 485 105 485 105 499 161.5 c 128,-1,40
 513 218 513 218 513 301 c 2,41,-1
 513 399 l 2,42,43
 513 579 513 579 443 640 c 1,33,-1
EndSplineSet
EndChar

StartChar: Ugrave
Encoding: 217 217 141
Width: 646
GlyphClass: 2
Flags: W
LayerCount: 2
Fore
SplineSet
556 700 m 1,0,-1
 556 301 l 2,1,2
 556 141 556 141 501 65.5 c 128,-1,3
 446 -10 446 -10 323 -10 c 128,-1,4
 200 -10 200 -10 145 65.5 c 128,-1,5
 90 141 90 141 90 301 c 2,6,-1
 90 700 l 1,7,-1
 120 700 l 1,8,-1
 120 301 l 2,9,10
 120 218 120 218 134 161.5 c 128,-1,11
 148 105 148 105 176 75 c 128,-1,12
 204 45 204 45 239 32.5 c 128,-1,13
 274 20 274 20 323 20 c 128,-1,14
 372 20 372 20 407 32.5 c 128,-1,15
 442 45 442 45 470 75 c 128,-1,16
 498 105 498 105 512 161.5 c 128,-1,17
 526 218 526 218 526 301 c 2,18,-1
 526 700 l 1,19,-1
 556 700 l 1,0,-1
230 860 m 1,20,-1
 253 880 l 1,21,-1
 370 740 l 1,22,-1
 347 721 l 1,23,-1
 230 860 l 1,20,-1
EndSplineSet
EndChar

StartChar: Uacute
Encoding: 218 218 142
Width: 646
GlyphClass: 2
Flags: W
LayerCount: 2
Fore
SplineSet
556 700 m 1,0,-1
 556 301 l 2,1,2
 556 141 556 141 501 65.5 c 128,-1,3
 446 -10 446 -10 323 -10 c 128,-1,4
 200 -10 200 -10 145 65.5 c 128,-1,5
 90 141 90 141 90 301 c 2,6,-1
 90 700 l 1,7,-1
 120 700 l 1,8,-1
 120 301 l 2,9,10
 120 218 120 218 134 161.5 c 128,-1,11
 148 105 148 105 176 75 c 128,-1,12
 204 45 204 45 239 32.5 c 128,-1,13
 274 20 274 20 323 20 c 128,-1,14
 372 20 372 20 407 32.5 c 128,-1,15
 442 45 442 45 470 75 c 128,-1,16
 498 105 498 105 512 161.5 c 128,-1,17
 526 218 526 218 526 301 c 2,18,-1
 526 700 l 1,19,-1
 556 700 l 1,0,-1
416 860 m 1,20,-1
 299 721 l 1,21,-1
 276 740 l 1,22,-1
 393 880 l 1,23,-1
 416 860 l 1,20,-1
EndSplineSet
EndChar

StartChar: Ucircumflex
Encoding: 219 219 143
Width: 646
GlyphClass: 2
Flags: W
LayerCount: 2
Fore
SplineSet
556 700 m 1,0,-1
 556 301 l 2,1,2
 556 141 556 141 501 65.5 c 128,-1,3
 446 -10 446 -10 323 -10 c 128,-1,4
 200 -10 200 -10 145 65.5 c 128,-1,5
 90 141 90 141 90 301 c 2,6,-1
 90 700 l 1,7,-1
 120 700 l 1,8,-1
 120 301 l 2,9,10
 120 218 120 218 134 161.5 c 128,-1,11
 148 105 148 105 176 75 c 128,-1,12
 204 45 204 45 239 32.5 c 128,-1,13
 274 20 274 20 323 20 c 128,-1,14
 372 20 372 20 407 32.5 c 128,-1,15
 442 45 442 45 470 75 c 128,-1,16
 498 105 498 105 512 161.5 c 128,-1,17
 526 218 526 218 526 301 c 2,18,-1
 526 700 l 1,19,-1
 556 700 l 1,0,-1
323 864 m 1,20,-1
 440 724 l 1,21,-1
 417 705 l 1,22,-1
 323 817 l 1,23,-1
 229 705 l 1,24,-1
 206 724 l 1,25,-1
 323 864 l 1,20,-1
EndSplineSet
EndChar

StartChar: Udieresis
Encoding: 220 220 144
Width: 646
GlyphClass: 2
Flags: W
LayerCount: 2
Fore
SplineSet
556 700 m 1,0,-1
 556 301 l 2,1,2
 556 141 556 141 501 65.5 c 128,-1,3
 446 -10 446 -10 323 -10 c 128,-1,4
 200 -10 200 -10 145 65.5 c 128,-1,5
 90 141 90 141 90 301 c 2,6,-1
 90 700 l 1,7,-1
 120 700 l 1,8,-1
 120 301 l 2,9,10
 120 218 120 218 134 161.5 c 128,-1,11
 148 105 148 105 176 75 c 128,-1,12
 204 45 204 45 239 32.5 c 128,-1,13
 274 20 274 20 323 20 c 128,-1,14
 372 20 372 20 407 32.5 c 128,-1,15
 442 45 442 45 470 75 c 128,-1,16
 498 105 498 105 512 161.5 c 128,-1,17
 526 218 526 218 526 301 c 2,18,-1
 526 700 l 1,19,-1
 556 700 l 1,0,-1
379 812 m 1,20,-1
 445 812 l 1,21,-1
 445 754 l 1,22,-1
 379 754 l 1,23,-1
 379 812 l 1,20,-1
201 812 m 1,24,-1
 267 812 l 1,25,-1
 267 754 l 1,26,-1
 201 754 l 1,27,-1
 201 812 l 1,24,-1
EndSplineSet
EndChar

StartChar: Yacute
Encoding: 221 221 145
Width: 546
GlyphClass: 2
Flags: W
LayerCount: 2
Fore
SplineSet
538 700 m 1,0,-1
 288 300 l 1,1,-1
 288 0 l 1,2,-1
 258 0 l 1,3,-1
 258 300 l 1,4,-1
 8 700 l 1,5,-1
 43 700 l 1,6,-1
 273 333 l 1,7,-1
 503 700 l 1,8,-1
 538 700 l 1,0,-1
370 860 m 1,9,-1
 253 721 l 1,10,-1
 230 740 l 1,11,-1
 347 880 l 1,12,-1
 370 860 l 1,9,-1
EndSplineSet
EndChar

StartChar: Thorn
Encoding: 222 222 146
Width: 528
GlyphClass: 2
Flags: W
LayerCount: 2
Fore
SplineSet
99 700 m 1,0,-1
 129 700 l 1,1,-1
 129 550 l 1,2,-1
 221 550 l 2,3,4
 353 550 353 550 420 501.5 c 128,-1,5
 487 453 487 453 487 365 c 128,-1,6
 487 277 487 277 420 228.5 c 128,-1,7
 353 180 353 180 221 180 c 2,8,-1
 129 180 l 1,9,-1
 129 0 l 1,10,-1
 99 0 l 1,11,-1
 99 700 l 1,0,-1
129 520 m 1,12,-1
 129 210 l 1,13,-1
 221 210 l 2,14,15
 457 210 457 210 457 365 c 128,-1,16
 457 520 457 520 221 520 c 2,17,-1
 129 520 l 1,12,-1
EndSplineSet
EndChar

StartChar: germandbls
Encoding: 223 223 147
Width: 584
GlyphClass: 2
Flags: W
LayerCount: 2
Fore
SplineSet
252 700 m 2,0,-1
 310 700 l 2,1,2
 360 700 360 700 386.5 673 c 128,-1,3
 413 646 413 646 413 605 c 0,4,5
 413 581 413 581 394.5 562.5 c 128,-1,6
 376 544 376 544 349.5 533 c 128,-1,7
 323 522 323 522 296.5 510.5 c 128,-1,8
 270 499 270 499 251.5 480.5 c 128,-1,9
 233 462 233 462 233 438 c 0,10,11
 233 390 233 390 264.5 361.5 c 128,-1,12
 296 333 296 333 341 318 c 128,-1,13
 386 303 386 303 431 286.5 c 128,-1,14
 476 270 476 270 507.5 233.5 c 128,-1,15
 539 197 539 197 539 138 c 0,16,17
 539 71 539 71 495.5 29 c 128,-1,18
 452 -13 452 -13 381 -13 c 0,19,20
 328 -13 328 -13 276.5 1 c 128,-1,21
 225 15 225 15 200 42 c 1,22,-1
 220 64 l 1,23,24
 271 17 271 17 377 17 c 0,25,26
 440 17 440 17 474.5 53.5 c 128,-1,27
 509 90 509 90 509 137 c 0,28,29
 509 187 509 187 477.5 218 c 128,-1,30
 446 249 446 249 401 264.5 c 128,-1,31
 356 280 356 280 311 296.5 c 128,-1,32
 266 313 266 313 234.5 348 c 128,-1,33
 203 383 203 383 203 440 c 0,34,35
 203 477 203 477 231 503 c 128,-1,36
 259 529 259 529 293 541 c 128,-1,37
 327 553 327 553 355 569.5 c 128,-1,38
 383 586 383 586 383 605 c 0,39,40
 383 632 383 632 365.5 651 c 128,-1,41
 348 670 348 670 310 670 c 2,42,-1
 252 670 l 2,43,44
 198 670 198 670 161.5 622.5 c 128,-1,45
 125 575 125 575 125 472 c 2,46,-1
 125 0 l 1,47,-1
 95 0 l 1,48,-1
 95 472 l 2,49,50
 95 582 95 582 136.5 641 c 128,-1,51
 178 700 178 700 252 700 c 2,0,-1
EndSplineSet
EndChar

StartChar: agrave
Encoding: 224 224 148
Width: 538
GlyphClass: 2
Flags: W
LayerCount: 2
Fore
SplineSet
176 764 m 1,0,-1
 199 784 l 1,1,-1
 316 644 l 1,2,-1
 293 625 l 1,3,-1
 176 764 l 1,0,-1
148 30 m 1,4,-1
 474 30 l 1,5,-1
 269 513 l 1,6,-1
 51 0 l 1,7,-1
 19 0 l 1,8,-1
 269 590 l 1,9,-1
 519 0 l 1,10,-1
 148 0 l 1,11,-1
 148 30 l 1,4,-1
EndSplineSet
EndChar

StartChar: aacute
Encoding: 225 225 149
Width: 538
GlyphClass: 2
Flags: W
LayerCount: 2
Fore
SplineSet
362 764 m 1,0,-1
 245 625 l 1,1,-1
 222 644 l 1,2,-1
 339 784 l 1,3,-1
 362 764 l 1,0,-1
148 30 m 1,4,-1
 474 30 l 1,5,-1
 269 513 l 1,6,-1
 51 0 l 1,7,-1
 19 0 l 1,8,-1
 269 590 l 1,9,-1
 519 0 l 1,10,-1
 148 0 l 1,11,-1
 148 30 l 1,4,-1
EndSplineSet
EndChar

StartChar: acircumflex
Encoding: 226 226 150
Width: 538
GlyphClass: 2
Flags: W
LayerCount: 2
Fore
SplineSet
269 784 m 1,0,-1
 386 644 l 1,1,-1
 363 625 l 1,2,-1
 269 737 l 1,3,-1
 175 625 l 1,4,-1
 152 644 l 1,5,-1
 269 784 l 1,0,-1
148 30 m 1,6,-1
 474 30 l 1,7,-1
 269 513 l 1,8,-1
 51 0 l 1,9,-1
 19 0 l 1,10,-1
 269 590 l 1,11,-1
 519 0 l 1,12,-1
 148 0 l 1,13,-1
 148 30 l 1,6,-1
EndSplineSet
EndChar

StartChar: atilde
Encoding: 227 227 151
Width: 538
GlyphClass: 2
Flags: W
LayerCount: 2
Fore
SplineSet
320 622 m 0,0,1
 292 622 292 622 267 646 c 128,-1,2
 242 670 242 670 222 670 c 0,3,4
 206 670 206 670 194 657 c 128,-1,5
 182 644 182 644 182 622 c 1,6,-1
 152 622 l 1,7,8
 152 657 152 657 173.5 678.5 c 128,-1,9
 195 700 195 700 222 700 c 0,10,11
 250 700 250 700 275 676 c 128,-1,12
 300 652 300 652 320 652 c 0,13,14
 336 652 336 652 348 665 c 128,-1,15
 360 678 360 678 360 700 c 1,16,-1
 390 700 l 1,17,18
 390 665 390 665 368.5 643.5 c 128,-1,19
 347 622 347 622 320 622 c 0,0,1
148 30 m 1,20,-1
 474 30 l 1,21,-1
 269 513 l 1,22,-1
 51 0 l 1,23,-1
 19 0 l 1,24,-1
 269 590 l 1,25,-1
 519 0 l 1,26,-1
 148 0 l 1,27,-1
 148 30 l 1,20,-1
EndSplineSet
EndChar

StartChar: adieresis
Encoding: 228 228 152
Width: 538
GlyphClass: 2
Flags: W
LayerCount: 2
Fore
SplineSet
325 712 m 1,0,-1
 391 712 l 1,1,-1
 391 654 l 1,2,-1
 325 654 l 1,3,-1
 325 712 l 1,0,-1
147 712 m 1,4,-1
 213 712 l 1,5,-1
 213 654 l 1,6,-1
 147 654 l 1,7,-1
 147 712 l 1,4,-1
148 30 m 1,8,-1
 474 30 l 1,9,-1
 269 513 l 1,10,-1
 51 0 l 1,11,-1
 19 0 l 1,12,-1
 269 590 l 1,13,-1
 519 0 l 1,14,-1
 148 0 l 1,15,-1
 148 30 l 1,8,-1
EndSplineSet
EndChar

StartChar: aring
Encoding: 229 229 153
Width: 538
GlyphClass: 2
Flags: W
LayerCount: 2
Fore
SplineSet
269 746 m 0,0,1
 250 746 250 746 237 732.5 c 128,-1,2
 224 719 224 719 224 701 c 0,3,4
 224 682 224 682 237.5 669 c 128,-1,5
 251 656 251 656 269 656 c 0,6,7
 288 656 288 656 301 669.5 c 128,-1,8
 314 683 314 683 314 701 c 0,9,10
 314 720 314 720 300.5 733 c 128,-1,11
 287 746 287 746 269 746 c 0,0,1
269 771 m 0,12,13
 297 771 297 771 318 751 c 128,-1,14
 339 731 339 731 339 701 c 0,15,16
 339 673 339 673 319 652 c 128,-1,17
 299 631 299 631 269 631 c 0,18,19
 241 631 241 631 220 651 c 128,-1,20
 199 671 199 671 199 701 c 0,21,22
 199 729 199 729 219 750 c 128,-1,23
 239 771 239 771 269 771 c 0,12,13
148 30 m 1,24,-1
 474 30 l 1,25,-1
 269 513 l 1,26,-1
 51 0 l 1,27,-1
 19 0 l 1,28,-1
 269 590 l 1,29,-1
 519 0 l 1,30,-1
 148 0 l 1,31,-1
 148 30 l 1,24,-1
EndSplineSet
EndChar

StartChar: ae
Encoding: 230 230 154
Width: 758
GlyphClass: 2
Flags: W
LayerCount: 2
Fore
SplineSet
693 59 m 1,0,1
 638 -10 638 -10 513 -10 c 128,-1,2
 388 -10 388 -10 334 61 c 128,-1,3
 280 132 280 132 280 290 c 2,4,-1
 280 509 l 1,5,-1
 57 30 l 1,6,-1
 238 30 l 1,7,-1
 238 0 l 1,8,-1
 10 0 l 1,9,-1
 280 580 l 1,10,-1
 310 580 l 1,11,-1
 310 478 l 1,12,13
 359 590 359 590 513 590 c 0,14,15
 658 590 658 590 710 495 c 1,16,-1
 465 290 l 1,17,-1
 418 290 l 1,18,-1
 671 501 l 1,19,20
 627 560 627 560 513 560 c 0,21,22
 463 560 463 560 429 549.5 c 128,-1,23
 395 539 395 539 366.5 510.5 c 128,-1,24
 338 482 338 482 324 427.5 c 128,-1,25
 310 373 310 373 310 290 c 128,-1,26
 310 207 310 207 324 152.5 c 128,-1,27
 338 98 338 98 366.5 69.5 c 128,-1,28
 395 41 395 41 429 30.5 c 128,-1,29
 463 20 463 20 513 20 c 0,30,31
 627 20 627 20 671 79 c 1,32,-1
 693 59 l 1,0,1
EndSplineSet
EndChar

StartChar: ccedilla
Encoding: 231 231 155
Width: 537
GlyphClass: 2
Flags: W
LayerCount: 2
Fore
SplineSet
256 -176 m 1,0,1
 299 -143 299 -143 299 -95 c 1,2,-1
 270 -95 l 1,3,-1
 270 -37 l 1,4,-1
 336 -37 l 1,5,6
 336 -108 336 -108 323 -138 c 128,-1,7
 310 -168 310 -168 276 -198 c 1,8,-1
 256 -176 l 1,0,1
70 290 m 128,-1,10
 70 448 70 448 124 519 c 128,-1,11
 178 590 178 590 303 590 c 128,-1,12
 428 590 428 590 483 521 c 1,13,-1
 461 501 l 1,14,15
 417 560 417 560 303 560 c 0,16,17
 253 560 253 560 219 549.5 c 128,-1,18
 185 539 185 539 156.5 510.5 c 128,-1,19
 128 482 128 482 114 427.5 c 128,-1,20
 100 373 100 373 100 290 c 128,-1,21
 100 207 100 207 114 152.5 c 128,-1,22
 128 98 128 98 156.5 69.5 c 128,-1,23
 185 41 185 41 219 30.5 c 128,-1,24
 253 20 253 20 303 20 c 0,25,26
 417 20 417 20 461 79 c 1,27,-1
 483 59 l 1,28,29
 428 -10 428 -10 303 -10 c 128,-1,30
 178 -10 178 -10 124 61 c 128,-1,9
 70 132 70 132 70 290 c 128,-1,10
EndSplineSet
EndChar

StartChar: egrave
Encoding: 232 232 156
Width: 548
GlyphClass: 2
Flags: W
LayerCount: 2
Fore
SplineSet
199 764 m 1,0,-1
 222 784 l 1,1,-1
 339 644 l 1,2,-1
 316 625 l 1,3,-1
 199 764 l 1,0,-1
483 59 m 1,4,5
 428 -10 428 -10 303 -10 c 128,-1,6
 178 -10 178 -10 124 61 c 128,-1,7
 70 132 70 132 70 290 c 128,-1,8
 70 448 70 448 124 519 c 128,-1,9
 178 590 178 590 303 590 c 0,10,11
 448 590 448 590 500 495 c 1,12,-1
 255 290 l 1,13,-1
 208 290 l 1,14,-1
 461 501 l 1,15,16
 417 560 417 560 303 560 c 0,17,18
 253 560 253 560 219 549.5 c 128,-1,19
 185 539 185 539 156.5 510.5 c 128,-1,20
 128 482 128 482 114 427.5 c 128,-1,21
 100 373 100 373 100 290 c 128,-1,22
 100 207 100 207 114 152.5 c 128,-1,23
 128 98 128 98 156.5 69.5 c 128,-1,24
 185 41 185 41 219 30.5 c 128,-1,25
 253 20 253 20 303 20 c 0,26,27
 417 20 417 20 461 79 c 1,28,-1
 483 59 l 1,4,5
EndSplineSet
EndChar

StartChar: eacute
Encoding: 233 233 157
Width: 548
GlyphClass: 2
Flags: W
LayerCount: 2
Fore
SplineSet
385 764 m 1,0,-1
 268 625 l 1,1,-1
 245 644 l 1,2,-1
 362 784 l 1,3,-1
 385 764 l 1,0,-1
483 59 m 1,4,5
 428 -10 428 -10 303 -10 c 128,-1,6
 178 -10 178 -10 124 61 c 128,-1,7
 70 132 70 132 70 290 c 128,-1,8
 70 448 70 448 124 519 c 128,-1,9
 178 590 178 590 303 590 c 0,10,11
 448 590 448 590 500 495 c 1,12,-1
 255 290 l 1,13,-1
 208 290 l 1,14,-1
 461 501 l 1,15,16
 417 560 417 560 303 560 c 0,17,18
 253 560 253 560 219 549.5 c 128,-1,19
 185 539 185 539 156.5 510.5 c 128,-1,20
 128 482 128 482 114 427.5 c 128,-1,21
 100 373 100 373 100 290 c 128,-1,22
 100 207 100 207 114 152.5 c 128,-1,23
 128 98 128 98 156.5 69.5 c 128,-1,24
 185 41 185 41 219 30.5 c 128,-1,25
 253 20 253 20 303 20 c 0,26,27
 417 20 417 20 461 79 c 1,28,-1
 483 59 l 1,4,5
EndSplineSet
EndChar

StartChar: ecircumflex
Encoding: 234 234 158
Width: 548
GlyphClass: 2
Flags: W
LayerCount: 2
Fore
SplineSet
292 784 m 1,0,-1
 409 644 l 1,1,-1
 386 625 l 1,2,-1
 292 737 l 1,3,-1
 198 625 l 1,4,-1
 175 644 l 1,5,-1
 292 784 l 1,0,-1
483 59 m 1,6,7
 428 -10 428 -10 303 -10 c 128,-1,8
 178 -10 178 -10 124 61 c 128,-1,9
 70 132 70 132 70 290 c 128,-1,10
 70 448 70 448 124 519 c 128,-1,11
 178 590 178 590 303 590 c 0,12,13
 448 590 448 590 500 495 c 1,14,-1
 255 290 l 1,15,-1
 208 290 l 1,16,-1
 461 501 l 1,17,18
 417 560 417 560 303 560 c 0,19,20
 253 560 253 560 219 549.5 c 128,-1,21
 185 539 185 539 156.5 510.5 c 128,-1,22
 128 482 128 482 114 427.5 c 128,-1,23
 100 373 100 373 100 290 c 128,-1,24
 100 207 100 207 114 152.5 c 128,-1,25
 128 98 128 98 156.5 69.5 c 128,-1,26
 185 41 185 41 219 30.5 c 128,-1,27
 253 20 253 20 303 20 c 0,28,29
 417 20 417 20 461 79 c 1,30,-1
 483 59 l 1,6,7
EndSplineSet
EndChar

StartChar: edieresis
Encoding: 235 235 159
Width: 548
GlyphClass: 2
Flags: W
LayerCount: 2
Fore
SplineSet
348 712 m 1,0,-1
 414 712 l 1,1,-1
 414 654 l 1,2,-1
 348 654 l 1,3,-1
 348 712 l 1,0,-1
170 712 m 1,4,-1
 236 712 l 1,5,-1
 236 654 l 1,6,-1
 170 654 l 1,7,-1
 170 712 l 1,4,-1
483 59 m 1,8,9
 428 -10 428 -10 303 -10 c 128,-1,10
 178 -10 178 -10 124 61 c 128,-1,11
 70 132 70 132 70 290 c 128,-1,12
 70 448 70 448 124 519 c 128,-1,13
 178 590 178 590 303 590 c 0,14,15
 448 590 448 590 500 495 c 1,16,-1
 255 290 l 1,17,-1
 208 290 l 1,18,-1
 461 501 l 1,19,20
 417 560 417 560 303 560 c 0,21,22
 253 560 253 560 219 549.5 c 128,-1,23
 185 539 185 539 156.5 510.5 c 128,-1,24
 128 482 128 482 114 427.5 c 128,-1,25
 100 373 100 373 100 290 c 128,-1,26
 100 207 100 207 114 152.5 c 128,-1,27
 128 98 128 98 156.5 69.5 c 128,-1,28
 185 41 185 41 219 30.5 c 128,-1,29
 253 20 253 20 303 20 c 0,30,31
 417 20 417 20 461 79 c 1,32,-1
 483 59 l 1,8,9
EndSplineSet
EndChar

StartChar: igrave
Encoding: 236 236 160
Width: 220
GlyphClass: 2
Flags: W
LayerCount: 2
Fore
SplineSet
35 764 m 1,0,-1
 58 784 l 1,1,-1
 175 644 l 1,2,-1
 152 625 l 1,3,-1
 35 764 l 1,0,-1
95 580 m 1,4,-1
 125 580 l 1,5,-1
 125 0 l 1,6,-1
 95 0 l 1,7,-1
 95 580 l 1,4,-1
EndSplineSet
EndChar

StartChar: iacute
Encoding: 237 237 161
Width: 220
GlyphClass: 2
Flags: W
LayerCount: 2
Fore
SplineSet
185 764 m 1,0,-1
 68 625 l 1,1,-1
 45 644 l 1,2,-1
 162 784 l 1,3,-1
 185 764 l 1,0,-1
95 580 m 1,4,-1
 125 580 l 1,5,-1
 125 0 l 1,6,-1
 95 0 l 1,7,-1
 95 580 l 1,4,-1
EndSplineSet
EndChar

StartChar: icircumflex
Encoding: 238 238 162
Width: 220
GlyphClass: 2
Flags: W
LayerCount: 2
Fore
SplineSet
110 784 m 1,0,-1
 227 644 l 1,1,-1
 204 625 l 1,2,-1
 110 737 l 1,3,-1
 16 625 l 1,4,-1
 -7 644 l 1,5,-1
 110 784 l 1,0,-1
95 580 m 1,6,-1
 125 580 l 1,7,-1
 125 0 l 1,8,-1
 95 0 l 1,9,-1
 95 580 l 1,6,-1
EndSplineSet
EndChar

StartChar: idieresis
Encoding: 239 239 163
Width: 220
GlyphClass: 2
Flags: W
LayerCount: 2
Fore
SplineSet
166 712 m 1,0,-1
 232 712 l 1,1,-1
 232 654 l 1,2,-1
 166 654 l 1,3,-1
 166 712 l 1,0,-1
-12 712 m 1,4,-1
 54 712 l 1,5,-1
 54 654 l 1,6,-1
 -12 654 l 1,7,-1
 -12 712 l 1,4,-1
95 580 m 1,8,-1
 125 580 l 1,9,-1
 125 0 l 1,10,-1
 95 0 l 1,11,-1
 95 580 l 1,8,-1
EndSplineSet
EndChar

StartChar: eth
Encoding: 240 240 164
Width: 583
GlyphClass: 2
Flags: W
LayerCount: 2
Fore
SplineSet
291 -10 m 128,-1,1
 58 -10 58 -10 58 240 c 128,-1,2
 58 490 58 490 291 490 c 0,3,4
 346 490 346 490 385 477 c 1,5,-1
 277 605 l 1,6,-1
 212 550 l 1,7,-1
 192 573 l 1,8,-1
 258 628 l 1,9,-1
 203 694 l 1,10,-1
 226 714 l 1,11,-1
 281 648 l 1,12,-1
 344 700 l 1,13,-1
 363 677 l 1,14,-1
 301 624 l 1,15,-1
 467 425 l 2,16,17
 524 356 524 356 524 240 c 0,18,0
 524 -10 524 -10 291 -10 c 128,-1,1
291 460 m 128,-1,20
 88 460 88 460 88 240 c 128,-1,21
 88 20 88 20 291 20 c 128,-1,22
 494 20 494 20 494 240 c 128,-1,19
 494 460 494 460 291 460 c 128,-1,20
EndSplineSet
EndChar

StartChar: ntilde
Encoding: 241 241 165
Width: 576
GlyphClass: 2
Flags: W
LayerCount: 2
Fore
SplineSet
339 622 m 0,0,1
 311 622 311 622 286 646 c 128,-1,2
 261 670 261 670 241 670 c 0,3,4
 225 670 225 670 213 657 c 128,-1,5
 201 644 201 644 201 622 c 1,6,-1
 171 622 l 1,7,8
 171 657 171 657 192.5 678.5 c 128,-1,9
 214 700 214 700 241 700 c 0,10,11
 269 700 269 700 294 676 c 128,-1,12
 319 652 319 652 339 652 c 0,13,14
 355 652 355 652 367 665 c 128,-1,15
 379 678 379 678 379 700 c 1,16,-1
 409 700 l 1,17,18
 409 665 409 665 387.5 643.5 c 128,-1,19
 366 622 366 622 339 622 c 0,0,1
95 0 m 1,20,-1
 95 580 l 1,21,-1
 125 580 l 1,22,-1
 451 55 l 1,23,-1
 451 580 l 1,24,-1
 481 580 l 1,25,-1
 481 0 l 1,26,-1
 451 0 l 1,27,-1
 125 526 l 1,28,-1
 125 0 l 1,29,-1
 95 0 l 1,20,-1
EndSplineSet
EndChar

StartChar: ograve
Encoding: 242 242 166
Width: 606
GlyphClass: 2
Flags: W
LayerCount: 2
Fore
SplineSet
210 764 m 1,0,-1
 233 784 l 1,1,-1
 350 644 l 1,2,-1
 327 625 l 1,3,-1
 210 764 l 1,0,-1
303 560 m 128,-1,5
 253 560 253 560 219 549.5 c 128,-1,6
 185 539 185 539 156.5 510.5 c 128,-1,7
 128 482 128 482 114 427.5 c 128,-1,8
 100 373 100 373 100 290 c 128,-1,9
 100 207 100 207 114 152.5 c 128,-1,10
 128 98 128 98 156.5 69.5 c 128,-1,11
 185 41 185 41 219 30.5 c 128,-1,12
 253 20 253 20 303 20 c 128,-1,13
 353 20 353 20 387 30.5 c 128,-1,14
 421 41 421 41 449.5 69.5 c 128,-1,15
 478 98 478 98 492 152.5 c 128,-1,16
 506 207 506 207 506 290 c 128,-1,17
 506 373 506 373 492 427.5 c 128,-1,18
 478 482 478 482 449.5 510.5 c 128,-1,19
 421 539 421 539 387 549.5 c 128,-1,4
 353 560 353 560 303 560 c 128,-1,5
303 -10 m 128,-1,21
 178 -10 178 -10 124 61 c 128,-1,22
 70 132 70 132 70 290 c 128,-1,23
 70 448 70 448 124 519 c 128,-1,24
 178 590 178 590 303 590 c 128,-1,25
 428 590 428 590 482 519 c 128,-1,26
 536 448 536 448 536 290 c 128,-1,27
 536 132 536 132 482 61 c 128,-1,20
 428 -10 428 -10 303 -10 c 128,-1,21
EndSplineSet
EndChar

StartChar: oacute
Encoding: 243 243 167
Width: 606
GlyphClass: 2
Flags: W
LayerCount: 2
Fore
SplineSet
396 764 m 1,0,-1
 279 625 l 1,1,-1
 256 644 l 1,2,-1
 373 784 l 1,3,-1
 396 764 l 1,0,-1
303 560 m 128,-1,5
 253 560 253 560 219 549.5 c 128,-1,6
 185 539 185 539 156.5 510.5 c 128,-1,7
 128 482 128 482 114 427.5 c 128,-1,8
 100 373 100 373 100 290 c 128,-1,9
 100 207 100 207 114 152.5 c 128,-1,10
 128 98 128 98 156.5 69.5 c 128,-1,11
 185 41 185 41 219 30.5 c 128,-1,12
 253 20 253 20 303 20 c 128,-1,13
 353 20 353 20 387 30.5 c 128,-1,14
 421 41 421 41 449.5 69.5 c 128,-1,15
 478 98 478 98 492 152.5 c 128,-1,16
 506 207 506 207 506 290 c 128,-1,17
 506 373 506 373 492 427.5 c 128,-1,18
 478 482 478 482 449.5 510.5 c 128,-1,19
 421 539 421 539 387 549.5 c 128,-1,4
 353 560 353 560 303 560 c 128,-1,5
303 -10 m 128,-1,21
 178 -10 178 -10 124 61 c 128,-1,22
 70 132 70 132 70 290 c 128,-1,23
 70 448 70 448 124 519 c 128,-1,24
 178 590 178 590 303 590 c 128,-1,25
 428 590 428 590 482 519 c 128,-1,26
 536 448 536 448 536 290 c 128,-1,27
 536 132 536 132 482 61 c 128,-1,20
 428 -10 428 -10 303 -10 c 128,-1,21
EndSplineSet
EndChar

StartChar: ocircumflex
Encoding: 244 244 168
Width: 606
GlyphClass: 2
Flags: W
LayerCount: 2
Fore
SplineSet
303 784 m 1,0,-1
 420 644 l 1,1,-1
 397 625 l 1,2,-1
 303 737 l 1,3,-1
 209 625 l 1,4,-1
 186 644 l 1,5,-1
 303 784 l 1,0,-1
303 560 m 128,-1,7
 253 560 253 560 219 549.5 c 128,-1,8
 185 539 185 539 156.5 510.5 c 128,-1,9
 128 482 128 482 114 427.5 c 128,-1,10
 100 373 100 373 100 290 c 128,-1,11
 100 207 100 207 114 152.5 c 128,-1,12
 128 98 128 98 156.5 69.5 c 128,-1,13
 185 41 185 41 219 30.5 c 128,-1,14
 253 20 253 20 303 20 c 128,-1,15
 353 20 353 20 387 30.5 c 128,-1,16
 421 41 421 41 449.5 69.5 c 128,-1,17
 478 98 478 98 492 152.5 c 128,-1,18
 506 207 506 207 506 290 c 128,-1,19
 506 373 506 373 492 427.5 c 128,-1,20
 478 482 478 482 449.5 510.5 c 128,-1,21
 421 539 421 539 387 549.5 c 128,-1,6
 353 560 353 560 303 560 c 128,-1,7
303 -10 m 128,-1,23
 178 -10 178 -10 124 61 c 128,-1,24
 70 132 70 132 70 290 c 128,-1,25
 70 448 70 448 124 519 c 128,-1,26
 178 590 178 590 303 590 c 128,-1,27
 428 590 428 590 482 519 c 128,-1,28
 536 448 536 448 536 290 c 128,-1,29
 536 132 536 132 482 61 c 128,-1,22
 428 -10 428 -10 303 -10 c 128,-1,23
EndSplineSet
EndChar

StartChar: otilde
Encoding: 245 245 169
Width: 606
GlyphClass: 2
Flags: W
LayerCount: 2
Fore
SplineSet
354 622 m 0,0,1
 326 622 326 622 301 646 c 128,-1,2
 276 670 276 670 256 670 c 0,3,4
 240 670 240 670 228 657 c 128,-1,5
 216 644 216 644 216 622 c 1,6,-1
 186 622 l 1,7,8
 186 657 186 657 207.5 678.5 c 128,-1,9
 229 700 229 700 256 700 c 0,10,11
 284 700 284 700 309 676 c 128,-1,12
 334 652 334 652 354 652 c 0,13,14
 370 652 370 652 382 665 c 128,-1,15
 394 678 394 678 394 700 c 1,16,-1
 424 700 l 1,17,18
 424 665 424 665 402.5 643.5 c 128,-1,19
 381 622 381 622 354 622 c 0,0,1
303 560 m 128,-1,21
 253 560 253 560 219 549.5 c 128,-1,22
 185 539 185 539 156.5 510.5 c 128,-1,23
 128 482 128 482 114 427.5 c 128,-1,24
 100 373 100 373 100 290 c 128,-1,25
 100 207 100 207 114 152.5 c 128,-1,26
 128 98 128 98 156.5 69.5 c 128,-1,27
 185 41 185 41 219 30.5 c 128,-1,28
 253 20 253 20 303 20 c 128,-1,29
 353 20 353 20 387 30.5 c 128,-1,30
 421 41 421 41 449.5 69.5 c 128,-1,31
 478 98 478 98 492 152.5 c 128,-1,32
 506 207 506 207 506 290 c 128,-1,33
 506 373 506 373 492 427.5 c 128,-1,34
 478 482 478 482 449.5 510.5 c 128,-1,35
 421 539 421 539 387 549.5 c 128,-1,20
 353 560 353 560 303 560 c 128,-1,21
303 -10 m 128,-1,37
 178 -10 178 -10 124 61 c 128,-1,38
 70 132 70 132 70 290 c 128,-1,39
 70 448 70 448 124 519 c 128,-1,40
 178 590 178 590 303 590 c 128,-1,41
 428 590 428 590 482 519 c 128,-1,42
 536 448 536 448 536 290 c 128,-1,43
 536 132 536 132 482 61 c 128,-1,36
 428 -10 428 -10 303 -10 c 128,-1,37
EndSplineSet
EndChar

StartChar: odieresis
Encoding: 246 246 170
Width: 606
GlyphClass: 2
Flags: W
LayerCount: 2
Fore
SplineSet
359 712 m 1,0,-1
 425 712 l 1,1,-1
 425 654 l 1,2,-1
 359 654 l 1,3,-1
 359 712 l 1,0,-1
181 712 m 1,4,-1
 247 712 l 1,5,-1
 247 654 l 1,6,-1
 181 654 l 1,7,-1
 181 712 l 1,4,-1
303 560 m 128,-1,9
 253 560 253 560 219 549.5 c 128,-1,10
 185 539 185 539 156.5 510.5 c 128,-1,11
 128 482 128 482 114 427.5 c 128,-1,12
 100 373 100 373 100 290 c 128,-1,13
 100 207 100 207 114 152.5 c 128,-1,14
 128 98 128 98 156.5 69.5 c 128,-1,15
 185 41 185 41 219 30.5 c 128,-1,16
 253 20 253 20 303 20 c 128,-1,17
 353 20 353 20 387 30.5 c 128,-1,18
 421 41 421 41 449.5 69.5 c 128,-1,19
 478 98 478 98 492 152.5 c 128,-1,20
 506 207 506 207 506 290 c 128,-1,21
 506 373 506 373 492 427.5 c 128,-1,22
 478 482 478 482 449.5 510.5 c 128,-1,23
 421 539 421 539 387 549.5 c 128,-1,8
 353 560 353 560 303 560 c 128,-1,9
303 -10 m 128,-1,25
 178 -10 178 -10 124 61 c 128,-1,26
 70 132 70 132 70 290 c 128,-1,27
 70 448 70 448 124 519 c 128,-1,28
 178 590 178 590 303 590 c 128,-1,29
 428 590 428 590 482 519 c 128,-1,30
 536 448 536 448 536 290 c 128,-1,31
 536 132 536 132 482 61 c 128,-1,24
 428 -10 428 -10 303 -10 c 128,-1,25
EndSplineSet
EndChar

StartChar: divide
Encoding: 247 247 171
Width: 486
GlyphClass: 2
Flags: W
LayerCount: 2
Fore
SplineSet
210 383 m 1,0,-1
 276 383 l 1,1,-1
 276 325 l 1,2,-1
 210 325 l 1,3,-1
 210 383 l 1,0,-1
87 235 m 1,4,-1
 87 265 l 1,5,-1
 399 265 l 1,6,-1
 399 235 l 1,7,-1
 87 235 l 1,4,-1
210 175 m 1,8,-1
 276 175 l 1,9,-1
 276 117 l 1,10,-1
 210 117 l 1,11,-1
 210 175 l 1,8,-1
EndSplineSet
EndChar

StartChar: oslash
Encoding: 248 248 172
Width: 606
GlyphClass: 2
Flags: W
LayerCount: 2
Fore
SplineSet
303 560 m 0,0,1
 253 560 253 560 219 549.5 c 128,-1,2
 185 539 185 539 156.5 510.5 c 128,-1,3
 128 482 128 482 114 427.5 c 128,-1,4
 100 373 100 373 100 290 c 0,5,6
 100 99 100 99 183 47 c 1,7,-1
 387 550 l 1,8,9
 356 560 356 560 303 560 c 0,0,1
178 -44 m 1,10,-1
 151 -33 l 1,11,-1
 172 19 l 1,12,13
 70 77 70 77 70 290 c 0,14,15
 70 448 70 448 124 519 c 128,-1,16
 178 590 178 590 303 590 c 0,17,18
 359 590 359 590 398 577 c 1,19,-1
 423 640 l 1,20,-1
 450 629 l 1,21,-1
 425 566 l 1,22,23
 483 537 483 537 509.5 470 c 128,-1,24
 536 403 536 403 536 290 c 0,25,26
 536 132 536 132 482 61 c 128,-1,27
 428 -10 428 -10 303 -10 c 0,28,29
 240 -10 240 -10 198 6 c 1,30,-1
 178 -44 l 1,10,-1
414 539 m 1,31,-1
 209 34 l 1,32,33
 247 20 247 20 303 20 c 0,34,35
 353 20 353 20 387 30.5 c 128,-1,36
 421 41 421 41 449.5 69.5 c 128,-1,37
 478 98 478 98 492 152.5 c 128,-1,38
 506 207 506 207 506 290 c 0,39,40
 506 491 506 491 414 539 c 1,31,-1
EndSplineSet
EndChar

StartChar: ugrave
Encoding: 249 249 173
Width: 586
GlyphClass: 2
Flags: W
LayerCount: 2
Fore
SplineSet
200 764 m 1,0,-1
 223 784 l 1,1,-1
 340 644 l 1,2,-1
 317 625 l 1,3,-1
 200 764 l 1,0,-1
115 580 m 1,4,-1
 115 290 l 2,5,6
 115 141 115 141 162.5 80.5 c 128,-1,7
 210 20 210 20 293 20 c 128,-1,8
 376 20 376 20 423.5 80.5 c 128,-1,9
 471 141 471 141 471 290 c 2,10,-1
 471 580 l 1,11,-1
 501 580 l 1,12,-1
 501 290 l 2,13,14
 501 -10 501 -10 293 -10 c 128,-1,15
 85 -10 85 -10 85 290 c 2,16,-1
 85 580 l 1,17,-1
 115 580 l 1,4,-1
EndSplineSet
EndChar

StartChar: uacute
Encoding: 250 250 174
Width: 586
GlyphClass: 2
Flags: W
LayerCount: 2
Fore
SplineSet
386 764 m 1,0,-1
 269 625 l 1,1,-1
 246 644 l 1,2,-1
 363 784 l 1,3,-1
 386 764 l 1,0,-1
115 580 m 1,4,-1
 115 290 l 2,5,6
 115 141 115 141 162.5 80.5 c 128,-1,7
 210 20 210 20 293 20 c 128,-1,8
 376 20 376 20 423.5 80.5 c 128,-1,9
 471 141 471 141 471 290 c 2,10,-1
 471 580 l 1,11,-1
 501 580 l 1,12,-1
 501 290 l 2,13,14
 501 -10 501 -10 293 -10 c 128,-1,15
 85 -10 85 -10 85 290 c 2,16,-1
 85 580 l 1,17,-1
 115 580 l 1,4,-1
EndSplineSet
EndChar

StartChar: ucircumflex
Encoding: 251 251 175
Width: 586
GlyphClass: 2
Flags: W
LayerCount: 2
Fore
SplineSet
293 784 m 1,0,-1
 410 644 l 1,1,-1
 387 625 l 1,2,-1
 293 737 l 1,3,-1
 199 625 l 1,4,-1
 176 644 l 1,5,-1
 293 784 l 1,0,-1
115 580 m 1,6,-1
 115 290 l 2,7,8
 115 141 115 141 162.5 80.5 c 128,-1,9
 210 20 210 20 293 20 c 128,-1,10
 376 20 376 20 423.5 80.5 c 128,-1,11
 471 141 471 141 471 290 c 2,12,-1
 471 580 l 1,13,-1
 501 580 l 1,14,-1
 501 290 l 2,15,16
 501 -10 501 -10 293 -10 c 128,-1,17
 85 -10 85 -10 85 290 c 2,18,-1
 85 580 l 1,19,-1
 115 580 l 1,6,-1
EndSplineSet
EndChar

StartChar: udieresis
Encoding: 252 252 176
Width: 586
GlyphClass: 2
Flags: W
LayerCount: 2
Fore
SplineSet
349 712 m 1,0,-1
 415 712 l 1,1,-1
 415 654 l 1,2,-1
 349 654 l 1,3,-1
 349 712 l 1,0,-1
171 712 m 1,4,-1
 237 712 l 1,5,-1
 237 654 l 1,6,-1
 171 654 l 1,7,-1
 171 712 l 1,4,-1
115 580 m 1,8,-1
 115 290 l 2,9,10
 115 141 115 141 162.5 80.5 c 128,-1,11
 210 20 210 20 293 20 c 128,-1,12
 376 20 376 20 423.5 80.5 c 128,-1,13
 471 141 471 141 471 290 c 2,14,-1
 471 580 l 1,15,-1
 501 580 l 1,16,-1
 501 290 l 2,17,18
 501 -10 501 -10 293 -10 c 128,-1,19
 85 -10 85 -10 85 290 c 2,20,-1
 85 580 l 1,21,-1
 115 580 l 1,8,-1
EndSplineSet
EndChar

StartChar: yacute
Encoding: 253 253 177
Width: 534
GlyphClass: 2
Flags: W
LayerCount: 2
Fore
SplineSet
517 580 m 1,0,-1
 282 25 l 1,1,-1
 282 -200 l 1,2,-1
 252 -200 l 1,3,-1
 252 25 l 1,4,-1
 17 580 l 1,5,-1
 49 580 l 1,6,-1
 267 67 l 1,7,-1
 485 580 l 1,8,-1
 517 580 l 1,0,-1
360 764 m 1,9,-1
 243 625 l 1,10,-1
 220 644 l 1,11,-1
 337 784 l 1,12,-1
 360 764 l 1,9,-1
EndSplineSet
EndChar

StartChar: thorn
Encoding: 254 254 178
Width: 541
GlyphClass: 2
Flags: W
LayerCount: 2
Fore
SplineSet
483 322 m 0,0,1
 483 219 483 219 408.5 138 c 128,-1,2
 334 57 334 57 217 25 c 2,3,-1
 125 0 l 1,4,-1
 125 -200 l 1,5,-1
 95 -200 l 1,6,-1
 95 700 l 1,7,-1
 125 700 l 1,8,-1
 125 546 l 1,9,-1
 217 576 l 2,10,11
 262 590 262 590 297 590 c 0,12,13
 388 590 388 590 435.5 519.5 c 128,-1,14
 483 449 483 449 483 322 c 0,0,1
125 516 m 1,15,-1
 125 30 l 1,16,-1
 217 55 l 2,17,18
 314 81 314 81 383.5 155.5 c 128,-1,19
 453 230 453 230 453 322 c 0,20,21
 453 445 453 445 407.5 502.5 c 128,-1,22
 362 560 362 560 285 560 c 0,23,24
 259 560 259 560 217 546 c 2,25,-1
 125 516 l 1,15,-1
EndSplineSet
EndChar

StartChar: ydieresis
Encoding: 255 255 179
Width: 534
GlyphClass: 2
Flags: W
LayerCount: 2
Fore
SplineSet
517 580 m 1,0,-1
 282 25 l 1,1,-1
 282 -200 l 1,2,-1
 252 -200 l 1,3,-1
 252 25 l 1,4,-1
 17 580 l 1,5,-1
 49 580 l 1,6,-1
 267 67 l 1,7,-1
 485 580 l 1,8,-1
 517 580 l 1,0,-1
323 712 m 1,9,-1
 389 712 l 1,10,-1
 389 654 l 1,11,-1
 323 654 l 1,12,-1
 323 712 l 1,9,-1
145 712 m 1,13,-1
 211 712 l 1,14,-1
 211 654 l 1,15,-1
 145 654 l 1,16,-1
 145 712 l 1,13,-1
EndSplineSet
EndChar

StartChar: Amacron
Encoding: 256 256 180
Width: 546
GlyphClass: 2
Flags: W
LayerCount: 2
Fore
SplineSet
117 30 m 1,0,-1
 485 30 l 1,1,-1
 273 613 l 1,2,-1
 50 0 l 1,3,-1
 18 0 l 1,4,-1
 273 701 l 1,5,-1
 528 0 l 1,6,-1
 117 0 l 1,7,-1
 117 30 l 1,0,-1
163 770 m 1,8,-1
 163 800 l 1,9,-1
 383 800 l 1,10,-1
 383 770 l 1,11,-1
 163 770 l 1,8,-1
EndSplineSet
EndChar

StartChar: amacron
Encoding: 257 257 181
Width: 538
GlyphClass: 2
Flags: W
LayerCount: 2
Fore
SplineSet
164 670 m 1,0,-1
 164 700 l 1,1,-1
 384 700 l 1,2,-1
 384 670 l 1,3,-1
 164 670 l 1,0,-1
148 30 m 1,4,-1
 474 30 l 1,5,-1
 269 513 l 1,6,-1
 51 0 l 1,7,-1
 19 0 l 1,8,-1
 269 590 l 1,9,-1
 519 0 l 1,10,-1
 148 0 l 1,11,-1
 148 30 l 1,4,-1
EndSplineSet
EndChar

StartChar: Abreve
Encoding: 258 258 182
Width: 546
GlyphClass: 2
Flags: W
LayerCount: 2
Fore
SplineSet
373 819 m 1,0,1
 373 776 373 776 343 747.5 c 128,-1,2
 313 719 313 719 273 719 c 0,3,4
 230 719 230 719 201.5 749 c 128,-1,5
 173 779 173 779 173 819 c 1,6,-1
 203 819 l 1,7,8
 203 789 203 789 224 769 c 128,-1,9
 245 749 245 749 273 749 c 0,10,11
 303 749 303 749 323 770 c 128,-1,12
 343 791 343 791 343 819 c 1,13,-1
 373 819 l 1,0,1
117 30 m 1,14,-1
 485 30 l 1,15,-1
 273 613 l 1,16,-1
 50 0 l 1,17,-1
 18 0 l 1,18,-1
 273 701 l 1,19,-1
 528 0 l 1,20,-1
 117 0 l 1,21,-1
 117 30 l 1,14,-1
EndSplineSet
EndChar

StartChar: abreve
Encoding: 259 259 183
Width: 538
GlyphClass: 2
Flags: W
LayerCount: 2
Fore
SplineSet
369 719 m 1,0,1
 369 676 369 676 339 647.5 c 128,-1,2
 309 619 309 619 269 619 c 0,3,4
 226 619 226 619 197.5 649 c 128,-1,5
 169 679 169 679 169 719 c 1,6,-1
 199 719 l 1,7,8
 199 689 199 689 220 669 c 128,-1,9
 241 649 241 649 269 649 c 0,10,11
 299 649 299 649 319 670 c 128,-1,12
 339 691 339 691 339 719 c 1,13,-1
 369 719 l 1,0,1
148 30 m 1,14,-1
 474 30 l 1,15,-1
 269 513 l 1,16,-1
 51 0 l 1,17,-1
 19 0 l 1,18,-1
 269 590 l 1,19,-1
 519 0 l 1,20,-1
 148 0 l 1,21,-1
 148 30 l 1,14,-1
EndSplineSet
EndChar

StartChar: Aogonek
Encoding: 260 260 184
Width: 546
GlyphClass: 2
Flags: W
LayerCount: 2
Fore
SplineSet
117 30 m 1,0,-1
 485 30 l 1,1,-1
 273 613 l 1,2,-1
 50 0 l 1,3,-1
 18 0 l 1,4,-1
 273 701 l 1,5,-1
 528 0 l 1,6,-1
 457 0 l 1,7,8
 416 -26 416 -26 416 -76 c 0,9,10
 416 -114 416 -114 442 -140 c 128,-1,11
 468 -166 468 -166 506 -166 c 1,12,-1
 506 -196 l 1,13,14
 456 -196 456 -196 421 -161 c 128,-1,15
 386 -126 386 -126 386 -76 c 0,16,17
 386 -33 386 -33 413 0 c 1,18,-1
 117 0 l 1,19,-1
 117 30 l 1,0,-1
EndSplineSet
EndChar

StartChar: aogonek
Encoding: 261 261 185
Width: 538
GlyphClass: 2
Flags: W
LayerCount: 2
Fore
SplineSet
148 30 m 1,0,-1
 474 30 l 1,1,-1
 269 513 l 1,2,-1
 51 0 l 1,3,-1
 19 0 l 1,4,-1
 269 590 l 1,5,-1
 519 0 l 1,6,-1
 446 0 l 1,7,8
 405 -26 405 -26 405 -76 c 0,9,10
 405 -114 405 -114 431.5 -140 c 128,-1,11
 458 -166 458 -166 495 -166 c 1,12,-1
 495 -196 l 1,13,14
 446 -196 446 -196 410.5 -161 c 128,-1,15
 375 -126 375 -126 375 -76 c 0,16,17
 375 -33 375 -33 402 0 c 1,18,-1
 148 0 l 1,19,-1
 148 30 l 1,0,-1
EndSplineSet
EndChar

StartChar: Cacute
Encoding: 262 262 186
Width: 587
GlyphClass: 2
Flags: W
LayerCount: 2
Fore
SplineSet
393 860 m 1,0,-1
 276 721 l 1,1,-1
 253 740 l 1,2,-1
 370 880 l 1,3,-1
 393 860 l 1,0,-1
533 128 m 1,4,5
 506 62 506 62 457 26 c 128,-1,6
 408 -10 408 -10 310 -10 c 0,7,8
 187 -10 187 -10 132 65.5 c 128,-1,9
 77 141 77 141 77 301 c 2,10,-1
 77 399 l 2,11,12
 77 559 77 559 132 634.5 c 128,-1,13
 187 710 187 710 310 710 c 0,14,15
 408 710 408 710 457 674 c 128,-1,16
 506 638 506 638 533 572 c 1,17,-1
 506 559 l 1,18,19
 483 617 483 617 441 648.5 c 128,-1,20
 399 680 399 680 310 680 c 0,21,22
 261 680 261 680 226 667.5 c 128,-1,23
 191 655 191 655 163 625 c 128,-1,24
 135 595 135 595 121 538.5 c 128,-1,25
 107 482 107 482 107 399 c 2,26,-1
 107 301 l 2,27,28
 107 218 107 218 121 161.5 c 128,-1,29
 135 105 135 105 163 75 c 128,-1,30
 191 45 191 45 226 32.5 c 128,-1,31
 261 20 261 20 310 20 c 0,32,33
 399 20 399 20 441 51.5 c 128,-1,34
 483 83 483 83 506 141 c 1,35,-1
 533 128 l 1,4,5
EndSplineSet
EndChar

StartChar: cacute
Encoding: 263 263 187
Width: 537
GlyphClass: 2
Flags: W
LayerCount: 2
Fore
SplineSet
390 764 m 1,0,-1
 273 625 l 1,1,-1
 250 644 l 1,2,-1
 367 784 l 1,3,-1
 390 764 l 1,0,-1
70 290 m 128,-1,5
 70 448 70 448 124 519 c 128,-1,6
 178 590 178 590 303 590 c 128,-1,7
 428 590 428 590 483 521 c 1,8,-1
 461 501 l 1,9,10
 417 560 417 560 303 560 c 0,11,12
 253 560 253 560 219 549.5 c 128,-1,13
 185 539 185 539 156.5 510.5 c 128,-1,14
 128 482 128 482 114 427.5 c 128,-1,15
 100 373 100 373 100 290 c 128,-1,16
 100 207 100 207 114 152.5 c 128,-1,17
 128 98 128 98 156.5 69.5 c 128,-1,18
 185 41 185 41 219 30.5 c 128,-1,19
 253 20 253 20 303 20 c 0,20,21
 417 20 417 20 461 79 c 1,22,-1
 483 59 l 1,23,24
 428 -10 428 -10 303 -10 c 128,-1,25
 178 -10 178 -10 124 61 c 128,-1,4
 70 132 70 132 70 290 c 128,-1,5
EndSplineSet
EndChar

StartChar: Ccircumflex
Encoding: 264 264 188
Width: 587
GlyphClass: 2
Flags: W
LayerCount: 2
Fore
SplineSet
312 864 m 1,0,-1
 429 724 l 1,1,-1
 406 705 l 1,2,-1
 312 817 l 1,3,-1
 218 705 l 1,4,-1
 195 724 l 1,5,-1
 312 864 l 1,0,-1
533 128 m 1,6,7
 506 62 506 62 457 26 c 128,-1,8
 408 -10 408 -10 310 -10 c 0,9,10
 187 -10 187 -10 132 65.5 c 128,-1,11
 77 141 77 141 77 301 c 2,12,-1
 77 399 l 2,13,14
 77 559 77 559 132 634.5 c 128,-1,15
 187 710 187 710 310 710 c 0,16,17
 408 710 408 710 457 674 c 128,-1,18
 506 638 506 638 533 572 c 1,19,-1
 506 559 l 1,20,21
 483 617 483 617 441 648.5 c 128,-1,22
 399 680 399 680 310 680 c 0,23,24
 261 680 261 680 226 667.5 c 128,-1,25
 191 655 191 655 163 625 c 128,-1,26
 135 595 135 595 121 538.5 c 128,-1,27
 107 482 107 482 107 399 c 2,28,-1
 107 301 l 2,29,30
 107 218 107 218 121 161.5 c 128,-1,31
 135 105 135 105 163 75 c 128,-1,32
 191 45 191 45 226 32.5 c 128,-1,33
 261 20 261 20 310 20 c 0,34,35
 399 20 399 20 441 51.5 c 128,-1,36
 483 83 483 83 506 141 c 1,37,-1
 533 128 l 1,6,7
EndSplineSet
EndChar

StartChar: ccircumflex
Encoding: 265 265 189
Width: 537
GlyphClass: 2
Flags: W
LayerCount: 2
Fore
SplineSet
292 784 m 1,0,-1
 409 644 l 1,1,-1
 386 625 l 1,2,-1
 292 737 l 1,3,-1
 198 625 l 1,4,-1
 175 644 l 1,5,-1
 292 784 l 1,0,-1
70 290 m 128,-1,7
 70 448 70 448 124 519 c 128,-1,8
 178 590 178 590 303 590 c 128,-1,9
 428 590 428 590 483 521 c 1,10,-1
 461 501 l 1,11,12
 417 560 417 560 303 560 c 0,13,14
 253 560 253 560 219 549.5 c 128,-1,15
 185 539 185 539 156.5 510.5 c 128,-1,16
 128 482 128 482 114 427.5 c 128,-1,17
 100 373 100 373 100 290 c 128,-1,18
 100 207 100 207 114 152.5 c 128,-1,19
 128 98 128 98 156.5 69.5 c 128,-1,20
 185 41 185 41 219 30.5 c 128,-1,21
 253 20 253 20 303 20 c 0,22,23
 417 20 417 20 461 79 c 1,24,-1
 483 59 l 1,25,26
 428 -10 428 -10 303 -10 c 128,-1,27
 178 -10 178 -10 124 61 c 128,-1,6
 70 132 70 132 70 290 c 128,-1,7
EndSplineSet
EndChar

StartChar: Cdotaccent
Encoding: 266 266 190
Width: 587
GlyphClass: 2
Flags: W
LayerCount: 2
Fore
SplineSet
280 812 m 1,0,-1
 346 812 l 1,1,-1
 346 754 l 1,2,-1
 280 754 l 1,3,-1
 280 812 l 1,0,-1
533 128 m 1,4,5
 506 62 506 62 457 26 c 128,-1,6
 408 -10 408 -10 310 -10 c 0,7,8
 187 -10 187 -10 132 65.5 c 128,-1,9
 77 141 77 141 77 301 c 2,10,-1
 77 399 l 2,11,12
 77 559 77 559 132 634.5 c 128,-1,13
 187 710 187 710 310 710 c 0,14,15
 408 710 408 710 457 674 c 128,-1,16
 506 638 506 638 533 572 c 1,17,-1
 506 559 l 1,18,19
 483 617 483 617 441 648.5 c 128,-1,20
 399 680 399 680 310 680 c 0,21,22
 261 680 261 680 226 667.5 c 128,-1,23
 191 655 191 655 163 625 c 128,-1,24
 135 595 135 595 121 538.5 c 128,-1,25
 107 482 107 482 107 399 c 2,26,-1
 107 301 l 2,27,28
 107 218 107 218 121 161.5 c 128,-1,29
 135 105 135 105 163 75 c 128,-1,30
 191 45 191 45 226 32.5 c 128,-1,31
 261 20 261 20 310 20 c 0,32,33
 399 20 399 20 441 51.5 c 128,-1,34
 483 83 483 83 506 141 c 1,35,-1
 533 128 l 1,4,5
EndSplineSet
EndChar

StartChar: cdotaccent
Encoding: 267 267 191
Width: 537
GlyphClass: 2
Flags: W
LayerCount: 2
Fore
SplineSet
269 712 m 1,0,-1
 335 712 l 1,1,-1
 335 654 l 1,2,-1
 269 654 l 1,3,-1
 269 712 l 1,0,-1
70 290 m 128,-1,5
 70 448 70 448 124 519 c 128,-1,6
 178 590 178 590 303 590 c 128,-1,7
 428 590 428 590 483 521 c 1,8,-1
 461 501 l 1,9,10
 417 560 417 560 303 560 c 0,11,12
 253 560 253 560 219 549.5 c 128,-1,13
 185 539 185 539 156.5 510.5 c 128,-1,14
 128 482 128 482 114 427.5 c 128,-1,15
 100 373 100 373 100 290 c 128,-1,16
 100 207 100 207 114 152.5 c 128,-1,17
 128 98 128 98 156.5 69.5 c 128,-1,18
 185 41 185 41 219 30.5 c 128,-1,19
 253 20 253 20 303 20 c 0,20,21
 417 20 417 20 461 79 c 1,22,-1
 483 59 l 1,23,24
 428 -10 428 -10 303 -10 c 128,-1,25
 178 -10 178 -10 124 61 c 128,-1,4
 70 132 70 132 70 290 c 128,-1,5
EndSplineSet
EndChar

StartChar: Ccaron
Encoding: 268 268 192
Width: 587
GlyphClass: 2
Flags: W
LayerCount: 2
Fore
SplineSet
317 711 m 1,0,-1
 200 851 l 1,1,-1
 223 870 l 1,2,-1
 317 758 l 1,3,-1
 411 870 l 1,4,-1
 434 851 l 1,5,-1
 317 711 l 1,0,-1
533 128 m 1,6,7
 506 62 506 62 457 26 c 128,-1,8
 408 -10 408 -10 310 -10 c 0,9,10
 187 -10 187 -10 132 65.5 c 128,-1,11
 77 141 77 141 77 301 c 2,12,-1
 77 399 l 2,13,14
 77 559 77 559 132 634.5 c 128,-1,15
 187 710 187 710 310 710 c 0,16,17
 408 710 408 710 457 674 c 128,-1,18
 506 638 506 638 533 572 c 1,19,-1
 506 559 l 1,20,21
 483 617 483 617 441 648.5 c 128,-1,22
 399 680 399 680 310 680 c 0,23,24
 261 680 261 680 226 667.5 c 128,-1,25
 191 655 191 655 163 625 c 128,-1,26
 135 595 135 595 121 538.5 c 128,-1,27
 107 482 107 482 107 399 c 2,28,-1
 107 301 l 2,29,30
 107 218 107 218 121 161.5 c 128,-1,31
 135 105 135 105 163 75 c 128,-1,32
 191 45 191 45 226 32.5 c 128,-1,33
 261 20 261 20 310 20 c 0,34,35
 399 20 399 20 441 51.5 c 128,-1,36
 483 83 483 83 506 141 c 1,37,-1
 533 128 l 1,6,7
EndSplineSet
EndChar

StartChar: ccaron
Encoding: 269 269 193
Width: 537
GlyphClass: 2
Flags: W
LayerCount: 2
Fore
SplineSet
302 601 m 1,0,-1
 185 741 l 1,1,-1
 208 760 l 1,2,-1
 302 648 l 1,3,-1
 396 760 l 1,4,-1
 419 741 l 1,5,-1
 302 601 l 1,0,-1
70 290 m 128,-1,7
 70 448 70 448 124 519 c 128,-1,8
 178 590 178 590 303 590 c 128,-1,9
 428 590 428 590 483 521 c 1,10,-1
 461 501 l 1,11,12
 417 560 417 560 303 560 c 0,13,14
 253 560 253 560 219 549.5 c 128,-1,15
 185 539 185 539 156.5 510.5 c 128,-1,16
 128 482 128 482 114 427.5 c 128,-1,17
 100 373 100 373 100 290 c 128,-1,18
 100 207 100 207 114 152.5 c 128,-1,19
 128 98 128 98 156.5 69.5 c 128,-1,20
 185 41 185 41 219 30.5 c 128,-1,21
 253 20 253 20 303 20 c 0,22,23
 417 20 417 20 461 79 c 1,24,-1
 483 59 l 1,25,26
 428 -10 428 -10 303 -10 c 128,-1,27
 178 -10 178 -10 124 61 c 128,-1,6
 70 132 70 132 70 290 c 128,-1,7
EndSplineSet
EndChar

StartChar: Dcaron
Encoding: 270 270 194
Width: 593
GlyphClass: 2
Flags: W
LayerCount: 2
Fore
SplineSet
255 711 m 1,0,-1
 138 851 l 1,1,-1
 161 870 l 1,2,-1
 255 758 l 1,3,-1
 349 870 l 1,4,-1
 372 851 l 1,5,-1
 255 711 l 1,0,-1
195 0 m 2,6,-1
 99 0 l 1,7,-1
 99 700 l 1,8,-1
 195 700 l 2,9,10
 339 700 339 700 439 594 c 128,-1,11
 539 488 539 488 539 350 c 128,-1,12
 539 212 539 212 439 106 c 128,-1,13
 339 0 339 0 195 0 c 2,6,-1
195 30 m 2,14,15
 326 30 326 30 417.5 126.5 c 128,-1,16
 509 223 509 223 509 350 c 128,-1,17
 509 477 509 477 417.5 573.5 c 128,-1,18
 326 670 326 670 195 670 c 2,19,-1
 129 670 l 1,20,-1
 129 30 l 1,21,-1
 195 30 l 2,14,15
EndSplineSet
EndChar

StartChar: dcaron
Encoding: 271 271 195
Width: 553
GlyphClass: 2
Flags: W
LayerCount: 2
Fore
SplineSet
245 601 m 1,0,-1
 128 741 l 1,1,-1
 151 760 l 1,2,-1
 245 648 l 1,3,-1
 339 760 l 1,4,-1
 362 741 l 1,5,-1
 245 601 l 1,0,-1
171 0 m 2,6,-1
 95 0 l 1,7,-1
 95 580 l 1,8,-1
 171 580 l 2,9,10
 319 580 319 580 407 502 c 128,-1,11
 495 424 495 424 495 290 c 128,-1,12
 495 156 495 156 407 78 c 128,-1,13
 319 0 319 0 171 0 c 2,6,-1
171 30 m 2,14,15
 306 30 306 30 385.5 99 c 128,-1,16
 465 168 465 168 465 290 c 128,-1,17
 465 412 465 412 385.5 481 c 128,-1,18
 306 550 306 550 171 550 c 2,19,-1
 125 550 l 1,20,-1
 125 30 l 1,21,-1
 171 30 l 2,14,15
EndSplineSet
EndChar

StartChar: Dcroat
Encoding: 272 272 196
Width: 593
GlyphClass: 2
Flags: W
LayerCount: 2
Fore
SplineSet
195 30 m 2,0,1
 326 30 326 30 417.5 126.5 c 128,-1,2
 509 223 509 223 509 350 c 128,-1,3
 509 477 509 477 417.5 573.5 c 128,-1,4
 326 670 326 670 195 670 c 2,5,-1
 129 670 l 1,6,-1
 129 365 l 1,7,-1
 233 365 l 1,8,-1
 233 335 l 1,9,-1
 129 335 l 1,10,-1
 129 30 l 1,11,-1
 195 30 l 2,0,1
195 0 m 2,12,-1
 99 0 l 1,13,-1
 99 335 l 1,14,-1
 35 335 l 1,15,-1
 35 365 l 1,16,-1
 99 365 l 1,17,-1
 99 700 l 1,18,-1
 195 700 l 2,19,20
 339 700 339 700 439 594 c 128,-1,21
 539 488 539 488 539 350 c 128,-1,22
 539 212 539 212 439 106 c 128,-1,23
 339 0 339 0 195 0 c 2,12,-1
EndSplineSet
EndChar

StartChar: dcroat
Encoding: 273 273 197
Width: 575
GlyphClass: 2
Flags: W
LayerCount: 2
Fore
SplineSet
36 284 m 1,0,-1
 36 314 l 1,1,-1
 117 314 l 1,2,-1
 117 580 l 1,3,-1
 193 580 l 2,4,5
 341 580 341 580 429 502 c 128,-1,6
 517 424 517 424 517 290 c 128,-1,7
 517 156 517 156 429 78 c 128,-1,8
 341 0 341 0 193 0 c 2,9,-1
 117 0 l 1,10,-1
 117 284 l 1,11,-1
 36 284 l 1,0,-1
193 30 m 2,12,13
 328 30 328 30 407.5 99 c 128,-1,14
 487 168 487 168 487 290 c 128,-1,15
 487 412 487 412 407.5 481 c 128,-1,16
 328 550 328 550 193 550 c 2,17,-1
 147 550 l 1,18,-1
 147 314 l 1,19,-1
 234 314 l 1,20,-1
 234 284 l 1,21,-1
 147 284 l 1,22,-1
 147 30 l 1,23,-1
 193 30 l 2,12,13
EndSplineSet
EndChar

StartChar: Emacron
Encoding: 274 274 198
Width: 576
GlyphClass: 2
Flags: W
LayerCount: 2
Fore
SplineSet
193 770 m 1,0,-1
 193 800 l 1,1,-1
 413 800 l 1,2,-1
 413 770 l 1,3,-1
 193 770 l 1,0,-1
458 366 m 1,4,-1
 161 366 l 1,5,-1
 467 670 l 1,6,-1
 129 670 l 1,7,-1
 129 30 l 1,8,-1
 517 30 l 1,9,-1
 517 0 l 1,10,-1
 99 0 l 1,11,-1
 99 700 l 1,12,-1
 540 700 l 1,13,-1
 234 396 l 1,14,-1
 458 396 l 1,15,-1
 458 366 l 1,4,-1
EndSplineSet
EndChar

StartChar: emacron
Encoding: 275 275 199
Width: 548
GlyphClass: 2
Flags: W
LayerCount: 2
Fore
SplineSet
180 670 m 1,0,-1
 180 700 l 1,1,-1
 400 700 l 1,2,-1
 400 670 l 1,3,-1
 180 670 l 1,0,-1
483 59 m 1,4,5
 428 -10 428 -10 303 -10 c 128,-1,6
 178 -10 178 -10 124 61 c 128,-1,7
 70 132 70 132 70 290 c 128,-1,8
 70 448 70 448 124 519 c 128,-1,9
 178 590 178 590 303 590 c 0,10,11
 448 590 448 590 500 495 c 1,12,-1
 255 290 l 1,13,-1
 208 290 l 1,14,-1
 461 501 l 1,15,16
 417 560 417 560 303 560 c 0,17,18
 253 560 253 560 219 549.5 c 128,-1,19
 185 539 185 539 156.5 510.5 c 128,-1,20
 128 482 128 482 114 427.5 c 128,-1,21
 100 373 100 373 100 290 c 128,-1,22
 100 207 100 207 114 152.5 c 128,-1,23
 128 98 128 98 156.5 69.5 c 128,-1,24
 185 41 185 41 219 30.5 c 128,-1,25
 253 20 253 20 303 20 c 0,26,27
 417 20 417 20 461 79 c 1,28,-1
 483 59 l 1,4,5
EndSplineSet
EndChar

StartChar: Ebreve
Encoding: 276 276 200
Width: 576
GlyphClass: 2
Flags: W
LayerCount: 2
Fore
SplineSet
402 819 m 1,0,1
 402 776 402 776 372 747.5 c 128,-1,2
 342 719 342 719 302 719 c 0,3,4
 259 719 259 719 230.5 749 c 128,-1,5
 202 779 202 779 202 819 c 1,6,-1
 232 819 l 1,7,8
 232 789 232 789 253 769 c 128,-1,9
 274 749 274 749 302 749 c 0,10,11
 332 749 332 749 352 770 c 128,-1,12
 372 791 372 791 372 819 c 1,13,-1
 402 819 l 1,0,1
458 366 m 1,14,-1
 161 366 l 1,15,-1
 467 670 l 1,16,-1
 129 670 l 1,17,-1
 129 30 l 1,18,-1
 517 30 l 1,19,-1
 517 0 l 1,20,-1
 99 0 l 1,21,-1
 99 700 l 1,22,-1
 540 700 l 1,23,-1
 234 396 l 1,24,-1
 458 396 l 1,25,-1
 458 366 l 1,14,-1
EndSplineSet
EndChar

StartChar: ebreve
Encoding: 277 277 201
Width: 548
GlyphClass: 2
Flags: W
LayerCount: 2
Fore
SplineSet
390 719 m 1,0,1
 390 676 390 676 360 647.5 c 128,-1,2
 330 619 330 619 290 619 c 0,3,4
 247 619 247 619 218.5 649 c 128,-1,5
 190 679 190 679 190 719 c 1,6,-1
 220 719 l 1,7,8
 220 689 220 689 241 669 c 128,-1,9
 262 649 262 649 290 649 c 0,10,11
 320 649 320 649 340 670 c 128,-1,12
 360 691 360 691 360 719 c 1,13,-1
 390 719 l 1,0,1
483 59 m 1,14,15
 428 -10 428 -10 303 -10 c 128,-1,16
 178 -10 178 -10 124 61 c 128,-1,17
 70 132 70 132 70 290 c 128,-1,18
 70 448 70 448 124 519 c 128,-1,19
 178 590 178 590 303 590 c 0,20,21
 448 590 448 590 500 495 c 1,22,-1
 255 290 l 1,23,-1
 208 290 l 1,24,-1
 461 501 l 1,25,26
 417 560 417 560 303 560 c 0,27,28
 253 560 253 560 219 549.5 c 128,-1,29
 185 539 185 539 156.5 510.5 c 128,-1,30
 128 482 128 482 114 427.5 c 128,-1,31
 100 373 100 373 100 290 c 128,-1,32
 100 207 100 207 114 152.5 c 128,-1,33
 128 98 128 98 156.5 69.5 c 128,-1,34
 185 41 185 41 219 30.5 c 128,-1,35
 253 20 253 20 303 20 c 0,36,37
 417 20 417 20 461 79 c 1,38,-1
 483 59 l 1,14,15
EndSplineSet
EndChar

StartChar: Edotaccent
Encoding: 278 278 202
Width: 576
GlyphClass: 2
Flags: W
LayerCount: 2
Fore
SplineSet
268 812 m 1,0,-1
 334 812 l 1,1,-1
 334 754 l 1,2,-1
 268 754 l 1,3,-1
 268 812 l 1,0,-1
458 366 m 1,4,-1
 161 366 l 1,5,-1
 467 670 l 1,6,-1
 129 670 l 1,7,-1
 129 30 l 1,8,-1
 517 30 l 1,9,-1
 517 0 l 1,10,-1
 99 0 l 1,11,-1
 99 700 l 1,12,-1
 540 700 l 1,13,-1
 234 396 l 1,14,-1
 458 396 l 1,15,-1
 458 366 l 1,4,-1
EndSplineSet
EndChar

StartChar: edotaccent
Encoding: 279 279 203
Width: 548
GlyphClass: 2
Flags: W
LayerCount: 2
Fore
SplineSet
269 712 m 1,0,-1
 335 712 l 1,1,-1
 335 654 l 1,2,-1
 269 654 l 1,3,-1
 269 712 l 1,0,-1
483 59 m 1,4,5
 428 -10 428 -10 303 -10 c 128,-1,6
 178 -10 178 -10 124 61 c 128,-1,7
 70 132 70 132 70 290 c 128,-1,8
 70 448 70 448 124 519 c 128,-1,9
 178 590 178 590 303 590 c 0,10,11
 448 590 448 590 500 495 c 1,12,-1
 255 290 l 1,13,-1
 208 290 l 1,14,-1
 461 501 l 1,15,16
 417 560 417 560 303 560 c 0,17,18
 253 560 253 560 219 549.5 c 128,-1,19
 185 539 185 539 156.5 510.5 c 128,-1,20
 128 482 128 482 114 427.5 c 128,-1,21
 100 373 100 373 100 290 c 128,-1,22
 100 207 100 207 114 152.5 c 128,-1,23
 128 98 128 98 156.5 69.5 c 128,-1,24
 185 41 185 41 219 30.5 c 128,-1,25
 253 20 253 20 303 20 c 0,26,27
 417 20 417 20 461 79 c 1,28,-1
 483 59 l 1,4,5
EndSplineSet
EndChar

StartChar: Eogonek
Encoding: 280 280 204
Width: 576
GlyphClass: 2
Flags: W
LayerCount: 2
Fore
SplineSet
458 366 m 1,0,-1
 161 366 l 1,1,-1
 467 670 l 1,2,-1
 129 670 l 1,3,-1
 129 30 l 1,4,-1
 517 30 l 1,5,-1
 517 0 l 1,6,-1
 493 0 l 1,7,8
 452 -26 452 -26 452 -76 c 0,9,10
 452 -114 452 -114 478 -140 c 128,-1,11
 504 -166 504 -166 542 -166 c 1,12,-1
 542 -196 l 1,13,14
 492 -196 492 -196 457 -161 c 128,-1,15
 422 -126 422 -126 422 -76 c 0,16,17
 422 -33 422 -33 449 0 c 1,18,-1
 99 0 l 1,19,-1
 99 700 l 1,20,-1
 540 700 l 1,21,-1
 234 396 l 1,22,-1
 458 396 l 1,23,-1
 458 366 l 1,0,-1
EndSplineSet
EndChar

StartChar: eogonek
Encoding: 281 281 205
Width: 548
GlyphClass: 2
Flags: W
LayerCount: 2
Fore
SplineSet
340 -9 m 1,0,1
 328 -10 328 -10 303 -10 c 0,2,3
 178 -10 178 -10 124 61 c 128,-1,4
 70 132 70 132 70 290 c 128,-1,5
 70 448 70 448 124 519 c 128,-1,6
 178 590 178 590 303 590 c 0,7,8
 448 590 448 590 500 495 c 1,9,-1
 255 290 l 1,10,-1
 208 290 l 1,11,-1
 461 501 l 1,12,13
 417 560 417 560 303 560 c 0,14,15
 253 560 253 560 219 549.5 c 128,-1,16
 185 539 185 539 156.5 510.5 c 128,-1,17
 128 482 128 482 114 427.5 c 128,-1,18
 100 373 100 373 100 290 c 128,-1,19
 100 207 100 207 114 152.5 c 128,-1,20
 128 98 128 98 156.5 69.5 c 128,-1,21
 185 41 185 41 219 30.5 c 128,-1,22
 253 20 253 20 303 20 c 0,23,24
 417 20 417 20 461 79 c 1,25,-1
 483 59 l 1,26,27
 450 17 450 17 390 0 c 1,28,29
 349 -26 349 -26 349 -76 c 0,30,31
 349 -114 349 -114 375.5 -140 c 128,-1,32
 402 -166 402 -166 439 -166 c 1,33,-1
 439 -196 l 1,34,35
 390 -196 390 -196 354.5 -161 c 128,-1,36
 319 -126 319 -126 319 -76 c 0,37,38
 319 -40 319 -40 340 -9 c 1,0,1
EndSplineSet
EndChar

StartChar: Ecaron
Encoding: 282 282 206
Width: 576
GlyphClass: 2
Flags: W
LayerCount: 2
Fore
SplineSet
301 711 m 1,0,-1
 184 851 l 1,1,-1
 207 870 l 1,2,-1
 301 758 l 1,3,-1
 395 870 l 1,4,-1
 418 851 l 1,5,-1
 301 711 l 1,0,-1
458 366 m 1,6,-1
 161 366 l 1,7,-1
 467 670 l 1,8,-1
 129 670 l 1,9,-1
 129 30 l 1,10,-1
 517 30 l 1,11,-1
 517 0 l 1,12,-1
 99 0 l 1,13,-1
 99 700 l 1,14,-1
 540 700 l 1,15,-1
 234 396 l 1,16,-1
 458 396 l 1,17,-1
 458 366 l 1,6,-1
EndSplineSet
EndChar

StartChar: ecaron
Encoding: 283 283 207
Width: 548
GlyphClass: 2
Flags: W
LayerCount: 2
Fore
SplineSet
302 601 m 1,0,-1
 185 741 l 1,1,-1
 208 760 l 1,2,-1
 302 648 l 1,3,-1
 396 760 l 1,4,-1
 419 741 l 1,5,-1
 302 601 l 1,0,-1
483 59 m 1,6,7
 428 -10 428 -10 303 -10 c 128,-1,8
 178 -10 178 -10 124 61 c 128,-1,9
 70 132 70 132 70 290 c 128,-1,10
 70 448 70 448 124 519 c 128,-1,11
 178 590 178 590 303 590 c 0,12,13
 448 590 448 590 500 495 c 1,14,-1
 255 290 l 1,15,-1
 208 290 l 1,16,-1
 461 501 l 1,17,18
 417 560 417 560 303 560 c 0,19,20
 253 560 253 560 219 549.5 c 128,-1,21
 185 539 185 539 156.5 510.5 c 128,-1,22
 128 482 128 482 114 427.5 c 128,-1,23
 100 373 100 373 100 290 c 128,-1,24
 100 207 100 207 114 152.5 c 128,-1,25
 128 98 128 98 156.5 69.5 c 128,-1,26
 185 41 185 41 219 30.5 c 128,-1,27
 253 20 253 20 303 20 c 0,28,29
 417 20 417 20 461 79 c 1,30,-1
 483 59 l 1,6,7
EndSplineSet
EndChar

StartChar: Gcircumflex
Encoding: 284 284 208
Width: 615
GlyphClass: 2
Flags: W
LayerCount: 2
Fore
SplineSet
312 864 m 1,0,-1
 429 724 l 1,1,-1
 406 705 l 1,2,-1
 312 817 l 1,3,-1
 218 705 l 1,4,-1
 195 724 l 1,5,-1
 312 864 l 1,0,-1
506 559 m 1,6,7
 483 617 483 617 441 648.5 c 128,-1,8
 399 680 399 680 310 680 c 0,9,10
 261 680 261 680 226 667.5 c 128,-1,11
 191 655 191 655 163 625 c 128,-1,12
 135 595 135 595 121 538.5 c 128,-1,13
 107 482 107 482 107 399 c 2,14,-1
 107 301 l 2,15,16
 107 218 107 218 121 161.5 c 128,-1,17
 135 105 135 105 163 75 c 128,-1,18
 191 45 191 45 226 32.5 c 128,-1,19
 261 20 261 20 310 20 c 0,20,21
 400 20 400 20 453 58.5 c 128,-1,22
 506 97 506 97 506 141 c 2,23,-1
 506 310 l 1,24,-1
 383 310 l 1,25,-1
 383 340 l 1,26,-1
 542 340 l 1,27,-1
 542 151 l 2,28,29
 542 84 542 84 481.5 37 c 128,-1,30
 421 -10 421 -10 310 -10 c 0,31,32
 187 -10 187 -10 132 65.5 c 128,-1,33
 77 141 77 141 77 301 c 2,34,-1
 77 399 l 2,35,36
 77 559 77 559 132 634.5 c 128,-1,37
 187 710 187 710 310 710 c 0,38,39
 409 710 409 710 458 673.5 c 128,-1,40
 507 637 507 637 534 570 c 1,41,-1
 506 559 l 1,6,7
EndSplineSet
EndChar

StartChar: gcircumflex
Encoding: 285 285 209
Width: 570
GlyphClass: 2
Flags: W
LayerCount: 2
Fore
SplineSet
292 784 m 1,0,-1
 409 644 l 1,1,-1
 386 625 l 1,2,-1
 292 737 l 1,3,-1
 198 625 l 1,4,-1
 175 644 l 1,5,-1
 292 784 l 1,0,-1
328 390 m 1,6,-1
 461 501 l 1,7,8
 417 560 417 560 303 560 c 0,9,10
 253 560 253 560 219 549.5 c 128,-1,11
 185 539 185 539 156.5 510.5 c 128,-1,12
 128 482 128 482 114 427.5 c 128,-1,13
 100 373 100 373 100 290 c 128,-1,14
 100 207 100 207 114 152.5 c 128,-1,15
 128 98 128 98 156.5 69.5 c 128,-1,16
 185 41 185 41 219 30.5 c 128,-1,17
 253 20 253 20 303 20 c 0,18,19
 416 20 416 20 460 78 c 1,20,-1
 460 255 l 1,21,-1
 490 255 l 1,22,-1
 490 -9 l 2,23,24
 490 -200 490 -200 315 -200 c 2,25,-1
 198 -200 l 1,26,-1
 198 -170 l 1,27,-1
 315 -170 l 2,28,29
 390 -170 390 -170 425 -130.5 c 128,-1,30
 460 -91 460 -91 460 20 c 2,31,-1
 460 35 l 1,32,33
 406 -10 406 -10 303 -10 c 0,34,35
 178 -10 178 -10 124 61 c 128,-1,36
 70 132 70 132 70 290 c 128,-1,37
 70 448 70 448 124 519 c 128,-1,38
 178 590 178 590 303 590 c 0,39,40
 448 590 448 590 500 495 c 1,41,-1
 375 390 l 1,42,-1
 328 390 l 1,6,-1
EndSplineSet
EndChar

StartChar: Gbreve
Encoding: 286 286 210
Width: 615
GlyphClass: 2
Flags: W
LayerCount: 2
Fore
SplineSet
412 819 m 1,0,1
 412 776 412 776 382 747.5 c 128,-1,2
 352 719 352 719 312 719 c 0,3,4
 269 719 269 719 240.5 749 c 128,-1,5
 212 779 212 779 212 819 c 1,6,-1
 242 819 l 1,7,8
 242 789 242 789 263 769 c 128,-1,9
 284 749 284 749 312 749 c 0,10,11
 342 749 342 749 362 770 c 128,-1,12
 382 791 382 791 382 819 c 1,13,-1
 412 819 l 1,0,1
506 559 m 1,14,15
 483 617 483 617 441 648.5 c 128,-1,16
 399 680 399 680 310 680 c 0,17,18
 261 680 261 680 226 667.5 c 128,-1,19
 191 655 191 655 163 625 c 128,-1,20
 135 595 135 595 121 538.5 c 128,-1,21
 107 482 107 482 107 399 c 2,22,-1
 107 301 l 2,23,24
 107 218 107 218 121 161.5 c 128,-1,25
 135 105 135 105 163 75 c 128,-1,26
 191 45 191 45 226 32.5 c 128,-1,27
 261 20 261 20 310 20 c 0,28,29
 400 20 400 20 453 58.5 c 128,-1,30
 506 97 506 97 506 141 c 2,31,-1
 506 310 l 1,32,-1
 383 310 l 1,33,-1
 383 340 l 1,34,-1
 542 340 l 1,35,-1
 542 151 l 2,36,37
 542 84 542 84 481.5 37 c 128,-1,38
 421 -10 421 -10 310 -10 c 0,39,40
 187 -10 187 -10 132 65.5 c 128,-1,41
 77 141 77 141 77 301 c 2,42,-1
 77 399 l 2,43,44
 77 559 77 559 132 634.5 c 128,-1,45
 187 710 187 710 310 710 c 0,46,47
 409 710 409 710 458 673.5 c 128,-1,48
 507 637 507 637 534 570 c 1,49,-1
 506 559 l 1,14,15
EndSplineSet
EndChar

StartChar: gbreve
Encoding: 287 287 211
Width: 570
GlyphClass: 2
Flags: W
LayerCount: 2
Fore
SplineSet
403 719 m 1,0,1
 403 676 403 676 373 647.5 c 128,-1,2
 343 619 343 619 303 619 c 0,3,4
 260 619 260 619 231.5 649 c 128,-1,5
 203 679 203 679 203 719 c 1,6,-1
 233 719 l 1,7,8
 233 689 233 689 254 669 c 128,-1,9
 275 649 275 649 303 649 c 0,10,11
 333 649 333 649 353 670 c 128,-1,12
 373 691 373 691 373 719 c 1,13,-1
 403 719 l 1,0,1
328 390 m 1,14,-1
 461 501 l 1,15,16
 417 560 417 560 303 560 c 0,17,18
 253 560 253 560 219 549.5 c 128,-1,19
 185 539 185 539 156.5 510.5 c 128,-1,20
 128 482 128 482 114 427.5 c 128,-1,21
 100 373 100 373 100 290 c 128,-1,22
 100 207 100 207 114 152.5 c 128,-1,23
 128 98 128 98 156.5 69.5 c 128,-1,24
 185 41 185 41 219 30.5 c 128,-1,25
 253 20 253 20 303 20 c 0,26,27
 416 20 416 20 460 78 c 1,28,-1
 460 255 l 1,29,-1
 490 255 l 1,30,-1
 490 -9 l 2,31,32
 490 -200 490 -200 315 -200 c 2,33,-1
 198 -200 l 1,34,-1
 198 -170 l 1,35,-1
 315 -170 l 2,36,37
 390 -170 390 -170 425 -130.5 c 128,-1,38
 460 -91 460 -91 460 20 c 2,39,-1
 460 35 l 1,40,41
 406 -10 406 -10 303 -10 c 0,42,43
 178 -10 178 -10 124 61 c 128,-1,44
 70 132 70 132 70 290 c 128,-1,45
 70 448 70 448 124 519 c 128,-1,46
 178 590 178 590 303 590 c 0,47,48
 448 590 448 590 500 495 c 1,49,-1
 375 390 l 1,50,-1
 328 390 l 1,14,-1
EndSplineSet
EndChar

StartChar: Gdotaccent
Encoding: 288 288 212
Width: 615
GlyphClass: 2
Flags: W
LayerCount: 2
Fore
SplineSet
280 812 m 1,0,-1
 346 812 l 1,1,-1
 346 754 l 1,2,-1
 280 754 l 1,3,-1
 280 812 l 1,0,-1
506 559 m 1,4,5
 483 617 483 617 441 648.5 c 128,-1,6
 399 680 399 680 310 680 c 0,7,8
 261 680 261 680 226 667.5 c 128,-1,9
 191 655 191 655 163 625 c 128,-1,10
 135 595 135 595 121 538.5 c 128,-1,11
 107 482 107 482 107 399 c 2,12,-1
 107 301 l 2,13,14
 107 218 107 218 121 161.5 c 128,-1,15
 135 105 135 105 163 75 c 128,-1,16
 191 45 191 45 226 32.5 c 128,-1,17
 261 20 261 20 310 20 c 0,18,19
 400 20 400 20 453 58.5 c 128,-1,20
 506 97 506 97 506 141 c 2,21,-1
 506 310 l 1,22,-1
 383 310 l 1,23,-1
 383 340 l 1,24,-1
 542 340 l 1,25,-1
 542 151 l 2,26,27
 542 84 542 84 481.5 37 c 128,-1,28
 421 -10 421 -10 310 -10 c 0,29,30
 187 -10 187 -10 132 65.5 c 128,-1,31
 77 141 77 141 77 301 c 2,32,-1
 77 399 l 2,33,34
 77 559 77 559 132 634.5 c 128,-1,35
 187 710 187 710 310 710 c 0,36,37
 409 710 409 710 458 673.5 c 128,-1,38
 507 637 507 637 534 570 c 1,39,-1
 506 559 l 1,4,5
EndSplineSet
EndChar

StartChar: gdotaccent
Encoding: 289 289 213
Width: 570
GlyphClass: 2
Flags: W
LayerCount: 2
Fore
SplineSet
269 712 m 1,0,-1
 335 712 l 1,1,-1
 335 654 l 1,2,-1
 269 654 l 1,3,-1
 269 712 l 1,0,-1
328 390 m 1,4,-1
 461 501 l 1,5,6
 417 560 417 560 303 560 c 0,7,8
 253 560 253 560 219 549.5 c 128,-1,9
 185 539 185 539 156.5 510.5 c 128,-1,10
 128 482 128 482 114 427.5 c 128,-1,11
 100 373 100 373 100 290 c 128,-1,12
 100 207 100 207 114 152.5 c 128,-1,13
 128 98 128 98 156.5 69.5 c 128,-1,14
 185 41 185 41 219 30.5 c 128,-1,15
 253 20 253 20 303 20 c 0,16,17
 416 20 416 20 460 78 c 1,18,-1
 460 255 l 1,19,-1
 490 255 l 1,20,-1
 490 -9 l 2,21,22
 490 -200 490 -200 315 -200 c 2,23,-1
 198 -200 l 1,24,-1
 198 -170 l 1,25,-1
 315 -170 l 2,26,27
 390 -170 390 -170 425 -130.5 c 128,-1,28
 460 -91 460 -91 460 20 c 2,29,-1
 460 35 l 1,30,31
 406 -10 406 -10 303 -10 c 0,32,33
 178 -10 178 -10 124 61 c 128,-1,34
 70 132 70 132 70 290 c 128,-1,35
 70 448 70 448 124 519 c 128,-1,36
 178 590 178 590 303 590 c 0,37,38
 448 590 448 590 500 495 c 1,39,-1
 375 390 l 1,40,-1
 328 390 l 1,4,-1
EndSplineSet
EndChar

StartChar: Gcommaaccent
Encoding: 290 290 214
Width: 615
GlyphClass: 2
Flags: W
LayerCount: 2
Fore
SplineSet
263 -176 m 1,0,1
 306 -143 306 -143 306 -95 c 1,2,-1
 277 -95 l 1,3,-1
 277 -37 l 1,4,-1
 343 -37 l 1,5,6
 343 -108 343 -108 330 -138 c 128,-1,7
 317 -168 317 -168 283 -198 c 1,8,-1
 263 -176 l 1,0,1
506 559 m 1,9,10
 483 617 483 617 441 648.5 c 128,-1,11
 399 680 399 680 310 680 c 0,12,13
 261 680 261 680 226 667.5 c 128,-1,14
 191 655 191 655 163 625 c 128,-1,15
 135 595 135 595 121 538.5 c 128,-1,16
 107 482 107 482 107 399 c 2,17,-1
 107 301 l 2,18,19
 107 218 107 218 121 161.5 c 128,-1,20
 135 105 135 105 163 75 c 128,-1,21
 191 45 191 45 226 32.5 c 128,-1,22
 261 20 261 20 310 20 c 0,23,24
 400 20 400 20 453 58.5 c 128,-1,25
 506 97 506 97 506 141 c 2,26,-1
 506 310 l 1,27,-1
 383 310 l 1,28,-1
 383 340 l 1,29,-1
 542 340 l 1,30,-1
 542 151 l 2,31,32
 542 84 542 84 481.5 37 c 128,-1,33
 421 -10 421 -10 310 -10 c 0,34,35
 187 -10 187 -10 132 65.5 c 128,-1,36
 77 141 77 141 77 301 c 2,37,-1
 77 399 l 2,38,39
 77 559 77 559 132 634.5 c 128,-1,40
 187 710 187 710 310 710 c 0,41,42
 409 710 409 710 458 673.5 c 128,-1,43
 507 637 507 637 534 570 c 1,44,-1
 506 559 l 1,9,10
EndSplineSet
EndChar

StartChar: gcommaaccent
Encoding: 291 291 215
Width: 570
GlyphClass: 2
Flags: W
LayerCount: 2
Fore
SplineSet
351 777 m 1,0,1
 308 744 308 744 308 696 c 1,2,-1
 337 696 l 1,3,-1
 337 638 l 1,4,-1
 271 638 l 1,5,6
 271 709 271 709 284 739 c 128,-1,7
 297 769 297 769 331 799 c 1,8,-1
 351 777 l 1,0,1
328 390 m 1,9,-1
 461 501 l 1,10,11
 417 560 417 560 303 560 c 0,12,13
 253 560 253 560 219 549.5 c 128,-1,14
 185 539 185 539 156.5 510.5 c 128,-1,15
 128 482 128 482 114 427.5 c 128,-1,16
 100 373 100 373 100 290 c 128,-1,17
 100 207 100 207 114 152.5 c 128,-1,18
 128 98 128 98 156.5 69.5 c 128,-1,19
 185 41 185 41 219 30.5 c 128,-1,20
 253 20 253 20 303 20 c 0,21,22
 416 20 416 20 460 78 c 1,23,-1
 460 255 l 1,24,-1
 490 255 l 1,25,-1
 490 -9 l 2,26,27
 490 -200 490 -200 315 -200 c 2,28,-1
 198 -200 l 1,29,-1
 198 -170 l 1,30,-1
 315 -170 l 2,31,32
 390 -170 390 -170 425 -130.5 c 128,-1,33
 460 -91 460 -91 460 20 c 2,34,-1
 460 35 l 1,35,36
 406 -10 406 -10 303 -10 c 0,37,38
 178 -10 178 -10 124 61 c 128,-1,39
 70 132 70 132 70 290 c 128,-1,40
 70 448 70 448 124 519 c 128,-1,41
 178 590 178 590 303 590 c 0,42,43
 448 590 448 590 500 495 c 1,44,-1
 375 390 l 1,45,-1
 328 390 l 1,9,-1
EndSplineSet
EndChar

StartChar: Hcircumflex
Encoding: 292 292 216
Width: 618
GlyphClass: 2
Flags: W
LayerCount: 2
Fore
SplineSet
519 0 m 1,0,-1
 489 0 l 1,1,-1
 489 350 l 1,2,-1
 129 350 l 1,3,-1
 129 0 l 1,4,-1
 99 0 l 1,5,-1
 99 700 l 1,6,-1
 129 700 l 1,7,-1
 129 380 l 1,8,-1
 489 380 l 1,9,-1
 489 700 l 1,10,-1
 519 700 l 1,11,-1
 519 0 l 1,0,-1
309 864 m 1,12,-1
 426 724 l 1,13,-1
 403 705 l 1,14,-1
 309 817 l 1,15,-1
 215 705 l 1,16,-1
 192 724 l 1,17,-1
 309 864 l 1,12,-1
EndSplineSet
EndChar

StartChar: hcircumflex
Encoding: 293 293 217
Width: 550
GlyphClass: 2
Flags: W
LayerCount: 2
Fore
SplineSet
455 0 m 1,0,-1
 425 0 l 1,1,-1
 425 290 l 1,2,-1
 125 290 l 1,3,-1
 125 0 l 1,4,-1
 95 0 l 1,5,-1
 95 580 l 1,6,-1
 125 580 l 1,7,-1
 125 320 l 1,8,-1
 425 320 l 1,9,-1
 425 580 l 1,10,-1
 455 580 l 1,11,-1
 455 0 l 1,0,-1
275 784 m 1,12,-1
 392 644 l 1,13,-1
 369 625 l 1,14,-1
 275 737 l 1,15,-1
 181 625 l 1,16,-1
 158 644 l 1,17,-1
 275 784 l 1,12,-1
EndSplineSet
EndChar

StartChar: Hbar
Encoding: 294 294 218
Width: 618
GlyphClass: 2
Flags: W
LayerCount: 2
Fore
SplineSet
49 550 m 1,0,-1
 49 580 l 1,1,-1
 99 580 l 1,2,-1
 99 700 l 1,3,-1
 129 700 l 1,4,-1
 129 580 l 1,5,-1
 489 580 l 1,6,-1
 489 700 l 1,7,-1
 519 700 l 1,8,-1
 519 580 l 1,9,-1
 569 580 l 1,10,-1
 569 550 l 1,11,-1
 519 550 l 1,12,-1
 519 0 l 1,13,-1
 489 0 l 1,14,-1
 489 350 l 1,15,-1
 129 350 l 1,16,-1
 129 0 l 1,17,-1
 99 0 l 1,18,-1
 99 550 l 1,19,-1
 49 550 l 1,0,-1
489 550 m 1,20,-1
 129 550 l 1,21,-1
 129 380 l 1,22,-1
 489 380 l 1,23,-1
 489 550 l 1,20,-1
EndSplineSet
EndChar

StartChar: hbar
Encoding: 295 295 219
Width: 572
GlyphClass: 2
Flags: W
LayerCount: 2
Fore
SplineSet
56 410 m 1,0,-1
 56 440 l 1,1,-1
 106 440 l 1,2,-1
 106 580 l 1,3,-1
 136 580 l 1,4,-1
 136 440 l 1,5,-1
 436 440 l 1,6,-1
 436 580 l 1,7,-1
 466 580 l 1,8,-1
 466 440 l 1,9,-1
 516 440 l 1,10,-1
 516 410 l 1,11,-1
 466 410 l 1,12,-1
 466 0 l 1,13,-1
 436 0 l 1,14,-1
 436 290 l 1,15,-1
 136 290 l 1,16,-1
 136 0 l 1,17,-1
 106 0 l 1,18,-1
 106 410 l 1,19,-1
 56 410 l 1,0,-1
436 410 m 1,20,-1
 136 410 l 1,21,-1
 136 320 l 1,22,-1
 436 320 l 1,23,-1
 436 410 l 1,20,-1
EndSplineSet
EndChar

StartChar: Itilde
Encoding: 296 296 220
Width: 228
GlyphClass: 2
Flags: W
LayerCount: 2
Fore
SplineSet
163 722 m 0,0,1
 135 722 135 722 110 746 c 128,-1,2
 85 770 85 770 65 770 c 0,3,4
 49 770 49 770 37 757 c 128,-1,5
 25 744 25 744 25 722 c 1,6,-1
 -5 722 l 1,7,8
 -5 757 -5 757 16.5 778.5 c 128,-1,9
 38 800 38 800 65 800 c 0,10,11
 93 800 93 800 118 776 c 128,-1,12
 143 752 143 752 163 752 c 0,13,14
 179 752 179 752 191 765 c 128,-1,15
 203 778 203 778 203 800 c 1,16,-1
 233 800 l 1,17,18
 233 765 233 765 211.5 743.5 c 128,-1,19
 190 722 190 722 163 722 c 0,0,1
129 0 m 1,20,-1
 99 0 l 1,21,-1
 99 700 l 1,22,-1
 129 700 l 1,23,-1
 129 0 l 1,20,-1
EndSplineSet
EndChar

StartChar: itilde
Encoding: 297 297 221
Width: 220
GlyphClass: 2
Flags: W
LayerCount: 2
Fore
SplineSet
159 622 m 0,0,1
 131 622 131 622 106 646 c 128,-1,2
 81 670 81 670 61 670 c 0,3,4
 45 670 45 670 33 657 c 128,-1,5
 21 644 21 644 21 622 c 1,6,-1
 -9 622 l 1,7,8
 -9 657 -9 657 12.5 678.5 c 128,-1,9
 34 700 34 700 61 700 c 0,10,11
 89 700 89 700 114 676 c 128,-1,12
 139 652 139 652 159 652 c 0,13,14
 175 652 175 652 187 665 c 128,-1,15
 199 678 199 678 199 700 c 1,16,-1
 229 700 l 1,17,18
 229 665 229 665 207.5 643.5 c 128,-1,19
 186 622 186 622 159 622 c 0,0,1
95 580 m 1,20,-1
 125 580 l 1,21,-1
 125 0 l 1,22,-1
 95 0 l 1,23,-1
 95 580 l 1,20,-1
EndSplineSet
EndChar

StartChar: Imacron
Encoding: 298 298 222
Width: 228
GlyphClass: 2
Flags: W
LayerCount: 2
Fore
SplineSet
4 770 m 1,0,-1
 4 800 l 1,1,-1
 224 800 l 1,2,-1
 224 770 l 1,3,-1
 4 770 l 1,0,-1
129 0 m 1,4,-1
 99 0 l 1,5,-1
 99 700 l 1,6,-1
 129 700 l 1,7,-1
 129 0 l 1,4,-1
EndSplineSet
EndChar

StartChar: imacron
Encoding: 299 299 223
Width: 220
GlyphClass: 2
Flags: W
LayerCount: 2
Fore
SplineSet
0 670 m 1,0,-1
 0 700 l 1,1,-1
 220 700 l 1,2,-1
 220 670 l 1,3,-1
 0 670 l 1,0,-1
95 580 m 1,4,-1
 125 580 l 1,5,-1
 125 0 l 1,6,-1
 95 0 l 1,7,-1
 95 580 l 1,4,-1
EndSplineSet
EndChar

StartChar: Ibreve
Encoding: 300 300 224
Width: 228
GlyphClass: 2
Flags: W
LayerCount: 2
Fore
SplineSet
214 819 m 1,0,1
 214 776 214 776 184 747.5 c 128,-1,2
 154 719 154 719 114 719 c 0,3,4
 71 719 71 719 42.5 749 c 128,-1,5
 14 779 14 779 14 819 c 1,6,-1
 44 819 l 1,7,8
 44 789 44 789 65 769 c 128,-1,9
 86 749 86 749 114 749 c 0,10,11
 144 749 144 749 164 770 c 128,-1,12
 184 791 184 791 184 819 c 1,13,-1
 214 819 l 1,0,1
129 0 m 1,14,-1
 99 0 l 1,15,-1
 99 700 l 1,16,-1
 129 700 l 1,17,-1
 129 0 l 1,14,-1
EndSplineSet
EndChar

StartChar: ibreve
Encoding: 301 301 225
Width: 220
GlyphClass: 2
Flags: W
LayerCount: 2
Fore
SplineSet
210 719 m 1,0,1
 210 676 210 676 180 647.5 c 128,-1,2
 150 619 150 619 110 619 c 0,3,4
 67 619 67 619 38.5 649 c 128,-1,5
 10 679 10 679 10 719 c 1,6,-1
 40 719 l 1,7,8
 40 689 40 689 61 669 c 128,-1,9
 82 649 82 649 110 649 c 0,10,11
 140 649 140 649 160 670 c 128,-1,12
 180 691 180 691 180 719 c 1,13,-1
 210 719 l 1,0,1
95 580 m 1,14,-1
 125 580 l 1,15,-1
 125 0 l 1,16,-1
 95 0 l 1,17,-1
 95 580 l 1,14,-1
EndSplineSet
EndChar

StartChar: Iogonek
Encoding: 302 302 226
Width: 229
GlyphClass: 2
Flags: W
LayerCount: 2
Fore
SplineSet
100 15 m 1,0,-1
 100 700 l 1,1,-1
 130 700 l 1,2,-1
 130 0 l 1,3,4
 89 -26 89 -26 89 -76 c 0,5,6
 89 -114 89 -114 115.5 -140 c 128,-1,7
 142 -166 142 -166 179 -166 c 1,8,-1
 179 -196 l 1,9,10
 130 -196 130 -196 94.5 -161 c 128,-1,11
 59 -126 59 -126 59 -76 c 0,12,13
 59 -21 59 -21 100 15 c 1,0,-1
EndSplineSet
EndChar

StartChar: iogonek
Encoding: 303 303 227
Width: 220
GlyphClass: 2
Flags: W
LayerCount: 2
Fore
SplineSet
95 580 m 1,0,-1
 125 580 l 1,1,-1
 125 0 l 1,2,3
 84 -26 84 -26 84 -76 c 0,4,5
 84 -114 84 -114 110 -140 c 128,-1,6
 136 -166 136 -166 174 -166 c 1,7,-1
 174 -196 l 1,8,9
 124 -196 124 -196 89 -161 c 128,-1,10
 54 -126 54 -126 54 -76 c 0,11,12
 54 -21 54 -21 95 15 c 1,13,-1
 95 580 l 1,0,-1
EndSplineSet
EndChar

StartChar: Idotaccent
Encoding: 304 304 228
Width: 228
GlyphClass: 2
Flags: W
LayerCount: 2
Fore
SplineSet
81 812 m 1,0,-1
 147 812 l 1,1,-1
 147 754 l 1,2,-1
 81 754 l 1,3,-1
 81 812 l 1,0,-1
129 0 m 1,4,-1
 99 0 l 1,5,-1
 99 700 l 1,6,-1
 129 700 l 1,7,-1
 129 0 l 1,4,-1
EndSplineSet
EndChar

StartChar: dotlessi
Encoding: 305 305 229
Width: 220
GlyphClass: 2
Flags: W
LayerCount: 2
Fore
SplineSet
95 580 m 1,0,-1
 125 580 l 1,1,-1
 125 0 l 1,2,-1
 95 0 l 1,3,-1
 95 580 l 1,0,-1
EndSplineSet
EndChar

StartChar: IJ
Encoding: 306 306 230
Width: 715
GlyphClass: 2
Flags: W
LayerCount: 2
Fore
SplineSet
129 0 m 1,0,-1
 99 0 l 1,1,-1
 99 700 l 1,2,-1
 129 700 l 1,3,-1
 129 0 l 1,0,-1
267 151 m 1,4,5
 311 20 311 20 437 20 c 0,6,7
 522 20 522 20 555.5 68.5 c 128,-1,8
 589 117 589 117 589 202 c 2,9,-1
 589 700 l 1,10,-1
 619 700 l 1,11,-1
 619 202 l 2,12,13
 619 -10 619 -10 437 -10 c 0,14,15
 351 -10 351 -10 304.5 33 c 128,-1,16
 258 76 258 76 231 151 c 1,17,-1
 267 151 l 1,4,5
EndSplineSet
EndChar

StartChar: ij
Encoding: 307 307 231
Width: 448
GlyphClass: 2
Flags: W
LayerCount: 2
Fore
SplineSet
95 580 m 1,0,-1
 125 580 l 1,1,-1
 125 0 l 1,2,-1
 95 0 l 1,3,-1
 95 580 l 1,0,-1
186 -200 m 2,4,-1
 95 -200 l 1,5,-1
 95 -170 l 1,6,-1
 186 -170 l 2,7,8
 269 -170 269 -170 296 -123.5 c 128,-1,9
 323 -77 323 -77 323 12 c 2,10,-1
 323 580 l 1,11,-1
 353 580 l 1,12,-1
 353 12 l 2,13,14
 353 -16 353 -16 352 -33 c 128,-1,15
 351 -50 351 -50 347 -79 c 128,-1,16
 343 -108 343 -108 332 -125.5 c 128,-1,17
 321 -143 321 -143 303.5 -162.5 c 128,-1,18
 286 -182 286 -182 256 -191 c 128,-1,19
 226 -200 226 -200 186 -200 c 2,4,-1
EndSplineSet
EndChar

StartChar: Jcircumflex
Encoding: 308 308 232
Width: 504
GlyphClass: 2
Flags: W
LayerCount: 2
Fore
SplineSet
394 864 m 1,0,-1
 511 724 l 1,1,-1
 488 705 l 1,2,-1
 394 817 l 1,3,-1
 300 705 l 1,4,-1
 277 724 l 1,5,-1
 394 864 l 1,0,-1
56 151 m 1,6,7
 100 20 100 20 226 20 c 0,8,9
 311 20 311 20 344.5 68.5 c 128,-1,10
 378 117 378 117 378 202 c 2,11,-1
 378 700 l 1,12,-1
 408 700 l 1,13,-1
 408 202 l 2,14,15
 408 -10 408 -10 226 -10 c 0,16,17
 140 -10 140 -10 93.5 33 c 128,-1,18
 47 76 47 76 20 151 c 1,19,-1
 56 151 l 1,6,7
EndSplineSet
EndChar

StartChar: jcircumflex
Encoding: 309 309 233
Width: 432
GlyphClass: 2
Flags: W
LayerCount: 2
Fore
SplineSet
322 784 m 1,0,-1
 439 644 l 1,1,-1
 416 625 l 1,2,-1
 322 737 l 1,3,-1
 228 625 l 1,4,-1
 205 644 l 1,5,-1
 322 784 l 1,0,-1
15 -39 m 1,6,7
 42 -170 42 -170 170 -170 c 0,8,9
 253 -170 253 -170 280 -123.5 c 128,-1,10
 307 -77 307 -77 307 12 c 2,11,-1
 307 580 l 1,12,-1
 337 580 l 1,13,-1
 337 12 l 2,14,15
 337 -16 337 -16 336 -33 c 128,-1,16
 335 -50 335 -50 331 -79 c 128,-1,17
 327 -108 327 -108 316 -125.5 c 128,-1,18
 305 -143 305 -143 287.5 -162.5 c 128,-1,19
 270 -182 270 -182 240 -191 c 128,-1,20
 210 -200 210 -200 170 -200 c 0,21,22
 13 -200 13 -200 -21 -39 c 1,23,-1
 15 -39 l 1,6,7
EndSplineSet
EndChar

StartChar: Kcommaaccent
Encoding: 310 310 234
Width: 572
GlyphClass: 2
Flags: W
LayerCount: 2
Fore
SplineSet
259 -176 m 1,0,1
 302 -143 302 -143 302 -95 c 1,2,-1
 273 -95 l 1,3,-1
 273 -37 l 1,4,-1
 339 -37 l 1,5,6
 339 -108 339 -108 326 -138 c 128,-1,7
 313 -168 313 -168 279 -198 c 1,8,-1
 259 -176 l 1,0,1
129 700 m 1,9,-1
 129 0 l 1,10,-1
 99 0 l 1,11,-1
 99 700 l 1,12,-1
 129 700 l 1,9,-1
540 700 m 1,13,-1
 204 366 l 1,14,-1
 572 0 l 1,15,-1
 529 0 l 1,16,-1
 161 366 l 1,17,-1
 497 700 l 1,18,-1
 540 700 l 1,13,-1
EndSplineSet
EndChar

StartChar: kcommaaccent
Encoding: 311 311 235
Width: 515
GlyphClass: 2
Flags: W
LayerCount: 2
Fore
SplineSet
244 -176 m 1,0,1
 287 -143 287 -143 287 -95 c 1,2,-1
 258 -95 l 1,3,-1
 258 -37 l 1,4,-1
 324 -37 l 1,5,6
 324 -108 324 -108 311 -138 c 128,-1,7
 298 -168 298 -168 264 -198 c 1,8,-1
 244 -176 l 1,0,1
95 0 m 1,9,-1
 95 580 l 1,10,-1
 125 580 l 1,11,-1
 125 0 l 1,12,-1
 95 0 l 1,9,-1
465 0 m 1,13,-1
 157 306 l 1,14,-1
 433 580 l 1,15,-1
 476 580 l 1,16,-1
 200 306 l 1,17,-1
 508 0 l 1,18,-1
 465 0 l 1,13,-1
EndSplineSet
EndChar

StartChar: Lacute
Encoding: 313 313 236
Width: 532
GlyphClass: 2
Flags: W
LayerCount: 2
Fore
SplineSet
297 860 m 1,0,-1
 180 721 l 1,1,-1
 157 740 l 1,2,-1
 274 880 l 1,3,-1
 297 860 l 1,0,-1
517 30 m 1,4,-1
 517 0 l 1,5,-1
 99 0 l 1,6,-1
 99 700 l 1,7,-1
 129 700 l 1,8,-1
 129 30 l 1,9,-1
 517 30 l 1,4,-1
EndSplineSet
EndChar

StartChar: lacute
Encoding: 314 314 237
Width: 449
GlyphClass: 2
Flags: W
LayerCount: 2
Fore
SplineSet
283 764 m 1,0,-1
 166 625 l 1,1,-1
 143 644 l 1,2,-1
 260 784 l 1,3,-1
 283 764 l 1,0,-1
429 30 m 1,4,-1
 429 0 l 1,5,-1
 95 0 l 1,6,-1
 95 580 l 1,7,-1
 125 580 l 1,8,-1
 125 30 l 1,9,-1
 429 30 l 1,4,-1
EndSplineSet
EndChar

StartChar: Lcommaaccent
Encoding: 315 315 238
Width: 531
GlyphClass: 2
Flags: W
LayerCount: 2
Fore
SplineSet
251 -176 m 1,0,1
 294 -143 294 -143 294 -95 c 1,2,-1
 265 -95 l 1,3,-1
 265 -37 l 1,4,-1
 331 -37 l 1,5,6
 331 -108 331 -108 318 -138 c 128,-1,7
 305 -168 305 -168 271 -198 c 1,8,-1
 251 -176 l 1,0,1
517 30 m 1,9,-1
 517 0 l 1,10,-1
 99 0 l 1,11,-1
 99 700 l 1,12,-1
 129 700 l 1,13,-1
 129 30 l 1,14,-1
 517 30 l 1,9,-1
EndSplineSet
EndChar

StartChar: lcommaaccent
Encoding: 316 316 239
Width: 449
GlyphClass: 2
Flags: W
LayerCount: 2
Fore
SplineSet
222 -176 m 1,0,1
 265 -143 265 -143 265 -95 c 1,2,-1
 236 -95 l 1,3,-1
 236 -37 l 1,4,-1
 302 -37 l 1,5,6
 302 -108 302 -108 289 -138 c 128,-1,7
 276 -168 276 -168 242 -198 c 1,8,-1
 222 -176 l 1,0,1
429 30 m 1,9,-1
 429 0 l 1,10,-1
 95 0 l 1,11,-1
 95 580 l 1,12,-1
 125 580 l 1,13,-1
 125 30 l 1,14,-1
 429 30 l 1,9,-1
EndSplineSet
EndChar

StartChar: Lcaron
Encoding: 317 317 240
Width: 532
GlyphClass: 2
Flags: W
LayerCount: 2
Fore
SplineSet
240 486 m 1,0,1
 251 501 251 501 266.5 548 c 128,-1,2
 282 595 282 595 282 642 c 1,3,-1
 253 642 l 1,4,-1
 253 700 l 1,5,-1
 319 700 l 1,6,7
 319 549 319 549 265 470 c 1,8,-1
 240 486 l 1,0,1
517 30 m 1,9,-1
 517 0 l 1,10,-1
 99 0 l 1,11,-1
 99 700 l 1,12,-1
 129 700 l 1,13,-1
 129 30 l 1,14,-1
 517 30 l 1,9,-1
EndSplineSet
EndChar

StartChar: lcaron
Encoding: 318 318 241
Width: 458
GlyphClass: 2
Flags: W
LayerCount: 2
Fore
SplineSet
236 366 m 1,0,1
 247 381 247 381 262.5 428 c 128,-1,2
 278 475 278 475 278 522 c 1,3,-1
 249 522 l 1,4,-1
 249 580 l 1,5,-1
 315 580 l 1,6,7
 315 429 315 429 261 350 c 1,8,-1
 236 366 l 1,0,1
429 30 m 1,9,-1
 429 0 l 1,10,-1
 95 0 l 1,11,-1
 95 580 l 1,12,-1
 125 580 l 1,13,-1
 125 30 l 1,14,-1
 429 30 l 1,9,-1
EndSplineSet
EndChar

StartChar: Ldot
Encoding: 319 319 242
Width: 532
GlyphClass: 2
Flags: W
LayerCount: 2
Fore
SplineSet
311 358 m 1,0,-1
 377 358 l 1,1,-1
 377 300 l 1,2,-1
 311 300 l 1,3,-1
 311 358 l 1,0,-1
517 30 m 1,4,-1
 517 0 l 1,5,-1
 99 0 l 1,6,-1
 99 700 l 1,7,-1
 129 700 l 1,8,-1
 129 30 l 1,9,-1
 517 30 l 1,4,-1
EndSplineSet
EndChar

StartChar: ldot
Encoding: 320 320 243
Width: 459
GlyphClass: 2
Flags: W
LayerCount: 2
Fore
SplineSet
257 358 m 1,0,-1
 323 358 l 1,1,-1
 323 300 l 1,2,-1
 257 300 l 1,3,-1
 257 358 l 1,0,-1
429 30 m 1,4,-1
 429 0 l 1,5,-1
 95 0 l 1,6,-1
 95 580 l 1,7,-1
 125 580 l 1,8,-1
 125 30 l 1,9,-1
 429 30 l 1,4,-1
EndSplineSet
EndChar

StartChar: Lslash
Encoding: 321 321 244
Width: 533
GlyphClass: 2
Flags: W
LayerCount: 2
Fore
SplineSet
61 254 m 1,0,-1
 39 276 l 1,1,-1
 100 337 l 1,2,-1
 100 700 l 1,3,-1
 130 700 l 1,4,-1
 130 367 l 1,5,-1
 179 416 l 1,6,-1
 201 394 l 1,7,-1
 130 323 l 1,8,-1
 130 30 l 1,9,-1
 518 30 l 1,10,-1
 518 0 l 1,11,-1
 100 0 l 1,12,-1
 100 293 l 1,13,-1
 61 254 l 1,0,-1
EndSplineSet
EndChar

StartChar: lslash
Encoding: 322 322 245
Width: 452
GlyphClass: 2
Flags: W
LayerCount: 2
Fore
SplineSet
59 254 m 1,0,-1
 37 276 l 1,1,-1
 98 337 l 1,2,-1
 98 580 l 1,3,-1
 128 580 l 1,4,-1
 128 367 l 1,5,-1
 177 416 l 1,6,-1
 199 394 l 1,7,-1
 128 323 l 1,8,-1
 128 30 l 1,9,-1
 432 30 l 1,10,-1
 432 0 l 1,11,-1
 98 0 l 1,12,-1
 98 293 l 1,13,-1
 59 254 l 1,0,-1
EndSplineSet
EndChar

StartChar: Nacute
Encoding: 323 323 246
Width: 637
GlyphClass: 2
Flags: W
LayerCount: 2
Fore
SplineSet
412 860 m 1,0,-1
 295 721 l 1,1,-1
 272 740 l 1,2,-1
 389 880 l 1,3,-1
 412 860 l 1,0,-1
177 30 m 1,4,-1
 487 30 l 1,5,-1
 129 649 l 1,6,-1
 129 0 l 1,7,-1
 99 0 l 1,8,-1
 99 700 l 1,9,-1
 134 700 l 1,10,-1
 508 53 l 1,11,-1
 508 700 l 1,12,-1
 538 700 l 1,13,-1
 538 0 l 1,14,-1
 177 0 l 1,15,-1
 177 30 l 1,4,-1
EndSplineSet
EndChar

StartChar: nacute
Encoding: 324 324 247
Width: 576
GlyphClass: 2
Flags: W
LayerCount: 2
Fore
SplineSet
383 764 m 1,0,-1
 266 625 l 1,1,-1
 243 644 l 1,2,-1
 360 784 l 1,3,-1
 383 764 l 1,0,-1
95 0 m 1,4,-1
 95 580 l 1,5,-1
 125 580 l 1,6,-1
 451 55 l 1,7,-1
 451 580 l 1,8,-1
 481 580 l 1,9,-1
 481 0 l 1,10,-1
 451 0 l 1,11,-1
 125 526 l 1,12,-1
 125 0 l 1,13,-1
 95 0 l 1,4,-1
EndSplineSet
EndChar

StartChar: Ncommaaccent
Encoding: 325 325 248
Width: 637
GlyphClass: 2
Flags: W
LayerCount: 2
Fore
SplineSet
504 0 m 1,0,-1
 129 649 l 1,1,-1
 129 0 l 1,2,-1
 99 0 l 1,3,-1
 99 700 l 1,4,-1
 134 700 l 1,5,-1
 508 53 l 1,6,-1
 508 700 l 1,7,-1
 538 700 l 1,8,-1
 538 0 l 1,9,-1
 504 0 l 1,0,-1
270 -176 m 1,10,11
 313 -143 313 -143 313 -95 c 1,12,-1
 284 -95 l 1,13,-1
 284 -37 l 1,14,-1
 350 -37 l 1,15,16
 350 -108 350 -108 337 -138 c 128,-1,17
 324 -168 324 -168 290 -198 c 1,18,-1
 270 -176 l 1,10,11
EndSplineSet
EndChar

StartChar: ncommaaccent
Encoding: 326 326 249
Width: 576
GlyphClass: 2
Flags: W
LayerCount: 2
Fore
SplineSet
244 -176 m 1,0,1
 287 -143 287 -143 287 -95 c 1,2,-1
 258 -95 l 1,3,-1
 258 -37 l 1,4,-1
 324 -37 l 1,5,6
 324 -108 324 -108 311 -138 c 128,-1,7
 298 -168 298 -168 264 -198 c 1,8,-1
 244 -176 l 1,0,1
95 0 m 1,9,-1
 95 580 l 1,10,-1
 125 580 l 1,11,-1
 451 55 l 1,12,-1
 451 580 l 1,13,-1
 481 580 l 1,14,-1
 481 0 l 1,15,-1
 451 0 l 1,16,-1
 125 526 l 1,17,-1
 125 0 l 1,18,-1
 95 0 l 1,9,-1
EndSplineSet
EndChar

StartChar: Ncaron
Encoding: 327 327 250
Width: 637
GlyphClass: 2
Flags: W
LayerCount: 2
Fore
SplineSet
313 711 m 1,0,-1
 196 851 l 1,1,-1
 219 870 l 1,2,-1
 313 758 l 1,3,-1
 407 870 l 1,4,-1
 430 851 l 1,5,-1
 313 711 l 1,0,-1
177 30 m 1,6,-1
 487 30 l 1,7,-1
 129 649 l 1,8,-1
 129 0 l 1,9,-1
 99 0 l 1,10,-1
 99 700 l 1,11,-1
 134 700 l 1,12,-1
 508 53 l 1,13,-1
 508 700 l 1,14,-1
 538 700 l 1,15,-1
 538 0 l 1,16,-1
 177 0 l 1,17,-1
 177 30 l 1,6,-1
EndSplineSet
EndChar

StartChar: ncaron
Encoding: 328 328 251
Width: 576
GlyphClass: 2
Flags: W
LayerCount: 2
Fore
SplineSet
289 601 m 1,0,-1
 172 741 l 1,1,-1
 195 760 l 1,2,-1
 289 648 l 1,3,-1
 383 760 l 1,4,-1
 406 741 l 1,5,-1
 289 601 l 1,0,-1
95 0 m 1,6,-1
 95 580 l 1,7,-1
 125 580 l 1,8,-1
 451 55 l 1,9,-1
 451 580 l 1,10,-1
 481 580 l 1,11,-1
 481 0 l 1,12,-1
 451 0 l 1,13,-1
 125 526 l 1,14,-1
 125 0 l 1,15,-1
 95 0 l 1,6,-1
EndSplineSet
EndChar

StartChar: napostrophe
Encoding: 329 329 252
Width: 662
GlyphClass: 2
Flags: W
LayerCount: 2
Fore
SplineSet
181 0 m 1,0,-1
 181 580 l 1,1,-1
 211 580 l 1,2,-1
 537 55 l 1,3,-1
 537 580 l 1,4,-1
 567 580 l 1,5,-1
 567 0 l 1,6,-1
 537 0 l 1,7,-1
 211 526 l 1,8,-1
 211 0 l 1,9,-1
 181 0 l 1,0,-1
20 486 m 1,10,11
 31 501 31 501 46.5 548 c 128,-1,12
 62 595 62 595 62 642 c 1,13,-1
 33 642 l 1,14,-1
 33 700 l 1,15,-1
 99 700 l 1,16,17
 99 549 99 549 45 470 c 1,18,-1
 20 486 l 1,10,11
EndSplineSet
EndChar

StartChar: Eng
Encoding: 330 330 253
Width: 640
GlyphClass: 2
Flags: W
LayerCount: 2
Fore
SplineSet
99 700 m 1,0,-1
 129 700 l 1,1,-1
 129 590 l 1,2,3
 179 710 179 710 332 710 c 0,4,5
 455 710 455 710 510 634.5 c 128,-1,6
 565 559 565 559 565 399 c 2,7,-1
 565 299 l 2,8,9
 565 169 565 169 506.5 84.5 c 128,-1,10
 448 0 448 0 363 0 c 2,11,-1
 266 0 l 1,12,-1
 266 30 l 1,13,-1
 363 30 l 2,14,15
 434 30 434 30 484.5 109 c 128,-1,16
 535 188 535 188 535 299 c 2,17,-1
 535 399 l 2,18,19
 535 482 535 482 521 538.5 c 128,-1,20
 507 595 507 595 479 625 c 128,-1,21
 451 655 451 655 416 667.5 c 128,-1,22
 381 680 381 680 332 680 c 128,-1,23
 283 680 283 680 248 667.5 c 128,-1,24
 213 655 213 655 185 625 c 128,-1,25
 157 595 157 595 143 538.5 c 128,-1,26
 129 482 129 482 129 399 c 2,27,-1
 129 0 l 1,28,-1
 99 0 l 1,29,-1
 99 700 l 1,0,-1
EndSplineSet
EndChar

StartChar: eng
Encoding: 331 331 254
Width: 596
GlyphClass: 2
Flags: W
LayerCount: 2
Fore
SplineSet
95 580 m 1,0,-1
 125 580 l 1,1,-1
 125 474 l 1,2,3
 174 590 174 590 303 590 c 0,4,5
 511 590 511 590 511 290 c 2,6,-1
 511 99 l 2,7,8
 511 -31 511 -31 452.5 -115.5 c 128,-1,9
 394 -200 394 -200 309 -200 c 2,10,-1
 212 -200 l 1,11,-1
 212 -170 l 1,12,-1
 309 -170 l 2,13,14
 380 -170 380 -170 430.5 -91 c 128,-1,15
 481 -12 481 -12 481 99 c 2,16,-1
 481 290 l 2,17,18
 481 439 481 439 433.5 499.5 c 128,-1,19
 386 560 386 560 303 560 c 128,-1,20
 220 560 220 560 172.5 499.5 c 128,-1,21
 125 439 125 439 125 290 c 2,22,-1
 125 0 l 1,23,-1
 95 0 l 1,24,-1
 95 580 l 1,0,-1
EndSplineSet
EndChar

StartChar: Omacron
Encoding: 332 332 255
Width: 620
GlyphClass: 2
Flags: W
LayerCount: 2
Fore
SplineSet
310 -10 m 128,-1,1
 187 -10 187 -10 132 65.5 c 128,-1,2
 77 141 77 141 77 301 c 2,3,-1
 77 399 l 2,4,5
 77 559 77 559 132 634.5 c 128,-1,6
 187 710 187 710 310 710 c 128,-1,7
 433 710 433 710 488 634.5 c 128,-1,8
 543 559 543 559 543 399 c 2,9,-1
 543 301 l 2,10,11
 543 141 543 141 488 65.5 c 128,-1,0
 433 -10 433 -10 310 -10 c 128,-1,1
310 680 m 128,-1,13
 261 680 261 680 226 667.5 c 128,-1,14
 191 655 191 655 163 625 c 128,-1,15
 135 595 135 595 121 538.5 c 128,-1,16
 107 482 107 482 107 399 c 2,17,-1
 107 301 l 2,18,19
 107 218 107 218 121 161.5 c 128,-1,20
 135 105 135 105 163 75 c 128,-1,21
 191 45 191 45 226 32.5 c 128,-1,22
 261 20 261 20 310 20 c 128,-1,23
 359 20 359 20 394 32.5 c 128,-1,24
 429 45 429 45 457 75 c 128,-1,25
 485 105 485 105 499 161.5 c 128,-1,26
 513 218 513 218 513 301 c 2,27,-1
 513 399 l 2,28,29
 513 482 513 482 499 538.5 c 128,-1,30
 485 595 485 595 457 625 c 128,-1,31
 429 655 429 655 394 667.5 c 128,-1,12
 359 680 359 680 310 680 c 128,-1,13
200 770 m 1,32,-1
 200 800 l 1,33,-1
 420 800 l 1,34,-1
 420 770 l 1,35,-1
 200 770 l 1,32,-1
EndSplineSet
EndChar

StartChar: omacron
Encoding: 333 333 256
Width: 606
GlyphClass: 2
Flags: W
LayerCount: 2
Fore
SplineSet
303 560 m 128,-1,1
 253 560 253 560 219 549.5 c 128,-1,2
 185 539 185 539 156.5 510.5 c 128,-1,3
 128 482 128 482 114 427.5 c 128,-1,4
 100 373 100 373 100 290 c 128,-1,5
 100 207 100 207 114 152.5 c 128,-1,6
 128 98 128 98 156.5 69.5 c 128,-1,7
 185 41 185 41 219 30.5 c 128,-1,8
 253 20 253 20 303 20 c 128,-1,9
 353 20 353 20 387 30.5 c 128,-1,10
 421 41 421 41 449.5 69.5 c 128,-1,11
 478 98 478 98 492 152.5 c 128,-1,12
 506 207 506 207 506 290 c 128,-1,13
 506 373 506 373 492 427.5 c 128,-1,14
 478 482 478 482 449.5 510.5 c 128,-1,15
 421 539 421 539 387 549.5 c 128,-1,0
 353 560 353 560 303 560 c 128,-1,1
303 -10 m 128,-1,17
 178 -10 178 -10 124 61 c 128,-1,18
 70 132 70 132 70 290 c 128,-1,19
 70 448 70 448 124 519 c 128,-1,20
 178 590 178 590 303 590 c 128,-1,21
 428 590 428 590 482 519 c 128,-1,22
 536 448 536 448 536 290 c 128,-1,23
 536 132 536 132 482 61 c 128,-1,16
 428 -10 428 -10 303 -10 c 128,-1,17
193 670 m 1,24,-1
 193 700 l 1,25,-1
 413 700 l 1,26,-1
 413 670 l 1,27,-1
 193 670 l 1,24,-1
EndSplineSet
EndChar

StartChar: Obreve
Encoding: 334 334 257
Width: 620
GlyphClass: 2
Flags: W
LayerCount: 2
Fore
SplineSet
410 819 m 1,0,1
 410 776 410 776 380 747.5 c 128,-1,2
 350 719 350 719 310 719 c 0,3,4
 267 719 267 719 238.5 749 c 128,-1,5
 210 779 210 779 210 819 c 1,6,-1
 240 819 l 1,7,8
 240 789 240 789 261 769 c 128,-1,9
 282 749 282 749 310 749 c 0,10,11
 340 749 340 749 360 770 c 128,-1,12
 380 791 380 791 380 819 c 1,13,-1
 410 819 l 1,0,1
310 -10 m 128,-1,15
 187 -10 187 -10 132 65.5 c 128,-1,16
 77 141 77 141 77 301 c 2,17,-1
 77 399 l 2,18,19
 77 559 77 559 132 634.5 c 128,-1,20
 187 710 187 710 310 710 c 128,-1,21
 433 710 433 710 488 634.5 c 128,-1,22
 543 559 543 559 543 399 c 2,23,-1
 543 301 l 2,24,25
 543 141 543 141 488 65.5 c 128,-1,14
 433 -10 433 -10 310 -10 c 128,-1,15
310 680 m 128,-1,27
 261 680 261 680 226 667.5 c 128,-1,28
 191 655 191 655 163 625 c 128,-1,29
 135 595 135 595 121 538.5 c 128,-1,30
 107 482 107 482 107 399 c 2,31,-1
 107 301 l 2,32,33
 107 218 107 218 121 161.5 c 128,-1,34
 135 105 135 105 163 75 c 128,-1,35
 191 45 191 45 226 32.5 c 128,-1,36
 261 20 261 20 310 20 c 128,-1,37
 359 20 359 20 394 32.5 c 128,-1,38
 429 45 429 45 457 75 c 128,-1,39
 485 105 485 105 499 161.5 c 128,-1,40
 513 218 513 218 513 301 c 2,41,-1
 513 399 l 2,42,43
 513 482 513 482 499 538.5 c 128,-1,44
 485 595 485 595 457 625 c 128,-1,45
 429 655 429 655 394 667.5 c 128,-1,26
 359 680 359 680 310 680 c 128,-1,27
EndSplineSet
EndChar

StartChar: obreve
Encoding: 335 335 258
Width: 606
GlyphClass: 2
Flags: W
LayerCount: 2
Fore
SplineSet
403 719 m 1,0,1
 403 676 403 676 373 647.5 c 128,-1,2
 343 619 343 619 303 619 c 0,3,4
 260 619 260 619 231.5 649 c 128,-1,5
 203 679 203 679 203 719 c 1,6,-1
 233 719 l 1,7,8
 233 689 233 689 254 669 c 128,-1,9
 275 649 275 649 303 649 c 0,10,11
 333 649 333 649 353 670 c 128,-1,12
 373 691 373 691 373 719 c 1,13,-1
 403 719 l 1,0,1
303 560 m 128,-1,15
 253 560 253 560 219 549.5 c 128,-1,16
 185 539 185 539 156.5 510.5 c 128,-1,17
 128 482 128 482 114 427.5 c 128,-1,18
 100 373 100 373 100 290 c 128,-1,19
 100 207 100 207 114 152.5 c 128,-1,20
 128 98 128 98 156.5 69.5 c 128,-1,21
 185 41 185 41 219 30.5 c 128,-1,22
 253 20 253 20 303 20 c 128,-1,23
 353 20 353 20 387 30.5 c 128,-1,24
 421 41 421 41 449.5 69.5 c 128,-1,25
 478 98 478 98 492 152.5 c 128,-1,26
 506 207 506 207 506 290 c 128,-1,27
 506 373 506 373 492 427.5 c 128,-1,28
 478 482 478 482 449.5 510.5 c 128,-1,29
 421 539 421 539 387 549.5 c 128,-1,14
 353 560 353 560 303 560 c 128,-1,15
303 -10 m 128,-1,31
 178 -10 178 -10 124 61 c 128,-1,32
 70 132 70 132 70 290 c 128,-1,33
 70 448 70 448 124 519 c 128,-1,34
 178 590 178 590 303 590 c 128,-1,35
 428 590 428 590 482 519 c 128,-1,36
 536 448 536 448 536 290 c 128,-1,37
 536 132 536 132 482 61 c 128,-1,30
 428 -10 428 -10 303 -10 c 128,-1,31
EndSplineSet
EndChar

StartChar: Ohungarumlaut
Encoding: 336 336 259
Width: 620
GlyphClass: 2
Flags: W
LayerCount: 2
Fore
SplineSet
347 860 m 1,0,-1
 230 721 l 1,1,-1
 207 740 l 1,2,-1
 324 880 l 1,3,-1
 347 860 l 1,0,-1
467 860 m 1,4,-1
 350 721 l 1,5,-1
 327 740 l 1,6,-1
 444 880 l 1,7,-1
 467 860 l 1,4,-1
310 -10 m 128,-1,9
 187 -10 187 -10 132 65.5 c 128,-1,10
 77 141 77 141 77 301 c 2,11,-1
 77 399 l 2,12,13
 77 559 77 559 132 634.5 c 128,-1,14
 187 710 187 710 310 710 c 128,-1,15
 433 710 433 710 488 634.5 c 128,-1,16
 543 559 543 559 543 399 c 2,17,-1
 543 301 l 2,18,19
 543 141 543 141 488 65.5 c 128,-1,8
 433 -10 433 -10 310 -10 c 128,-1,9
310 680 m 128,-1,21
 261 680 261 680 226 667.5 c 128,-1,22
 191 655 191 655 163 625 c 128,-1,23
 135 595 135 595 121 538.5 c 128,-1,24
 107 482 107 482 107 399 c 2,25,-1
 107 301 l 2,26,27
 107 218 107 218 121 161.5 c 128,-1,28
 135 105 135 105 163 75 c 128,-1,29
 191 45 191 45 226 32.5 c 128,-1,30
 261 20 261 20 310 20 c 128,-1,31
 359 20 359 20 394 32.5 c 128,-1,32
 429 45 429 45 457 75 c 128,-1,33
 485 105 485 105 499 161.5 c 128,-1,34
 513 218 513 218 513 301 c 2,35,-1
 513 399 l 2,36,37
 513 482 513 482 499 538.5 c 128,-1,38
 485 595 485 595 457 625 c 128,-1,39
 429 655 429 655 394 667.5 c 128,-1,20
 359 680 359 680 310 680 c 128,-1,21
EndSplineSet
EndChar

StartChar: ohungarumlaut
Encoding: 337 337 260
Width: 606
GlyphClass: 2
Flags: W
LayerCount: 2
Fore
SplineSet
347 764 m 1,0,-1
 230 625 l 1,1,-1
 207 644 l 1,2,-1
 324 784 l 1,3,-1
 347 764 l 1,0,-1
467 764 m 1,4,-1
 350 625 l 1,5,-1
 327 644 l 1,6,-1
 444 784 l 1,7,-1
 467 764 l 1,4,-1
303 560 m 128,-1,9
 253 560 253 560 219 549.5 c 128,-1,10
 185 539 185 539 156.5 510.5 c 128,-1,11
 128 482 128 482 114 427.5 c 128,-1,12
 100 373 100 373 100 290 c 128,-1,13
 100 207 100 207 114 152.5 c 128,-1,14
 128 98 128 98 156.5 69.5 c 128,-1,15
 185 41 185 41 219 30.5 c 128,-1,16
 253 20 253 20 303 20 c 128,-1,17
 353 20 353 20 387 30.5 c 128,-1,18
 421 41 421 41 449.5 69.5 c 128,-1,19
 478 98 478 98 492 152.5 c 128,-1,20
 506 207 506 207 506 290 c 128,-1,21
 506 373 506 373 492 427.5 c 128,-1,22
 478 482 478 482 449.5 510.5 c 128,-1,23
 421 539 421 539 387 549.5 c 128,-1,8
 353 560 353 560 303 560 c 128,-1,9
303 -10 m 128,-1,25
 178 -10 178 -10 124 61 c 128,-1,26
 70 132 70 132 70 290 c 128,-1,27
 70 448 70 448 124 519 c 128,-1,28
 178 590 178 590 303 590 c 128,-1,29
 428 590 428 590 482 519 c 128,-1,30
 536 448 536 448 536 290 c 128,-1,31
 536 132 536 132 482 61 c 128,-1,24
 428 -10 428 -10 303 -10 c 128,-1,25
EndSplineSet
EndChar

StartChar: OE
Encoding: 338 338 261
Width: 935
GlyphClass: 2
Flags: W
LayerCount: 2
Fore
SplineSet
817 366 m 1,0,-1
 520 366 l 1,1,-1
 826 670 l 1,2,-1
 488 670 l 1,3,-1
 488 30 l 1,4,-1
 876 30 l 1,5,-1
 876 0 l 1,6,-1
 458 0 l 1,7,-1
 458 34 l 1,8,9
 405 -10 405 -10 310 -10 c 0,10,11
 187 -10 187 -10 132 65.5 c 128,-1,12
 77 141 77 141 77 301 c 2,13,-1
 77 399 l 2,14,15
 77 559 77 559 132 634.5 c 128,-1,16
 187 710 187 710 310 710 c 0,17,18
 405 710 405 710 458 666 c 1,19,-1
 458 700 l 1,20,-1
 899 700 l 1,21,-1
 593 396 l 1,22,-1
 817 396 l 1,23,-1
 817 366 l 1,0,-1
458 76 m 1,24,-1
 458 624 l 1,25,26
 411 680 411 680 310 680 c 0,27,28
 261 680 261 680 226 667.5 c 128,-1,29
 191 655 191 655 163 625 c 128,-1,30
 135 595 135 595 121 538.5 c 128,-1,31
 107 482 107 482 107 399 c 2,32,-1
 107 301 l 2,33,34
 107 218 107 218 121 161.5 c 128,-1,35
 135 105 135 105 163 75 c 128,-1,36
 191 45 191 45 226 32.5 c 128,-1,37
 261 20 261 20 310 20 c 0,38,39
 411 20 411 20 458 76 c 1,24,-1
EndSplineSet
EndChar

StartChar: oe
Encoding: 339 339 262
Width: 984
GlyphClass: 2
Flags: W
LayerCount: 2
Fore
SplineSet
919 59 m 1,0,1
 864 -10 864 -10 739 -10 c 0,2,3
 647 -10 647 -10 594.5 27.5 c 128,-1,4
 542 65 542 65 521 146 c 1,5,6
 500 65 500 65 447.5 27.5 c 128,-1,7
 395 -10 395 -10 303 -10 c 0,8,9
 178 -10 178 -10 124 61 c 128,-1,10
 70 132 70 132 70 290 c 128,-1,11
 70 448 70 448 124 519 c 128,-1,12
 178 590 178 590 303 590 c 0,13,14
 395 590 395 590 447.5 552.5 c 128,-1,15
 500 515 500 515 521 434 c 1,16,17
 542 515 542 515 594.5 552.5 c 128,-1,18
 647 590 647 590 739 590 c 0,19,20
 884 590 884 590 936 495 c 1,21,-1
 691 290 l 1,22,-1
 644 290 l 1,23,-1
 897 501 l 1,24,25
 853 560 853 560 739 560 c 0,26,27
 689 560 689 560 655 549.5 c 128,-1,28
 621 539 621 539 592.5 510.5 c 128,-1,29
 564 482 564 482 550 427.5 c 128,-1,30
 536 373 536 373 536 290 c 128,-1,31
 536 207 536 207 550 152.5 c 128,-1,32
 564 98 564 98 592.5 69.5 c 128,-1,33
 621 41 621 41 655 30.5 c 128,-1,34
 689 20 689 20 739 20 c 0,35,36
 853 20 853 20 897 79 c 1,37,-1
 919 59 l 1,0,1
303 560 m 128,-1,39
 253 560 253 560 219 549.5 c 128,-1,40
 185 539 185 539 156.5 510.5 c 128,-1,41
 128 482 128 482 114 427.5 c 128,-1,42
 100 373 100 373 100 290 c 128,-1,43
 100 207 100 207 114 152.5 c 128,-1,44
 128 98 128 98 156.5 69.5 c 128,-1,45
 185 41 185 41 219 30.5 c 128,-1,46
 253 20 253 20 303 20 c 128,-1,47
 353 20 353 20 387 30.5 c 128,-1,48
 421 41 421 41 449.5 69.5 c 128,-1,49
 478 98 478 98 492 152.5 c 128,-1,50
 506 207 506 207 506 290 c 128,-1,51
 506 373 506 373 492 427.5 c 128,-1,52
 478 482 478 482 449.5 510.5 c 128,-1,53
 421 539 421 539 387 549.5 c 128,-1,38
 353 560 353 560 303 560 c 128,-1,39
EndSplineSet
EndChar

StartChar: Racute
Encoding: 340 340 263
Width: 550
GlyphClass: 2
Flags: W
LayerCount: 2
Fore
SplineSet
386 860 m 1,0,-1
 269 721 l 1,1,-1
 246 740 l 1,2,-1
 363 880 l 1,3,-1
 386 860 l 1,0,-1
177 30 m 1,4,-1
 453 30 l 1,5,-1
 332 362 l 1,6,-1
 388 394 l 1,7,8
 457 432 457 432 457 515 c 0,9,10
 457 670 457 670 221 670 c 2,11,-1
 129 670 l 1,12,-1
 129 0 l 1,13,-1
 99 0 l 1,14,-1
 99 700 l 1,15,-1
 221 700 l 2,16,17
 353 700 353 700 420 651.5 c 128,-1,18
 487 603 487 603 487 515 c 0,19,20
 487 415 487 415 403 368 c 2,21,-1
 369 349 l 1,22,-1
 496 0 l 1,23,-1
 177 0 l 1,24,-1
 177 30 l 1,4,-1
EndSplineSet
EndChar

StartChar: racute
Encoding: 341 341 264
Width: 516
GlyphClass: 2
Flags: W
LayerCount: 2
Fore
SplineSet
346 764 m 1,0,-1
 229 625 l 1,1,-1
 206 644 l 1,2,-1
 323 784 l 1,3,-1
 346 764 l 1,0,-1
339 291 m 1,4,-1
 475 0 l 1,5,-1
 442 0 l 1,6,-1
 302 300 l 1,7,8
 304 301 304 301 319.5 308.5 c 128,-1,9
 335 316 335 316 341 319.5 c 128,-1,10
 347 323 347 323 361 332 c 128,-1,11
 375 341 375 341 382 349.5 c 128,-1,12
 389 358 389 358 397.5 369.5 c 128,-1,13
 406 381 406 381 410 395.5 c 128,-1,14
 414 410 414 410 414 427 c 0,15,16
 414 490 414 490 354 520 c 128,-1,17
 294 550 294 550 205 550 c 2,18,-1
 125 550 l 1,19,-1
 125 0 l 1,20,-1
 95 0 l 1,21,-1
 95 580 l 1,22,-1
 205 580 l 2,23,24
 323 580 323 580 383.5 539 c 128,-1,25
 444 498 444 498 444 427 c 0,26,27
 444 381 444 381 413 345.5 c 128,-1,28
 382 310 382 310 339 291 c 1,4,-1
EndSplineSet
EndChar

StartChar: Rcommaaccent
Encoding: 342 342 265
Width: 550
GlyphClass: 2
Flags: W
LayerCount: 2
Fore
SplineSet
464 0 m 1,0,-1
 332 362 l 1,1,-1
 388 394 l 1,2,3
 457 432 457 432 457 515 c 0,4,5
 457 670 457 670 221 670 c 2,6,-1
 129 670 l 1,7,-1
 129 0 l 1,8,-1
 99 0 l 1,9,-1
 99 700 l 1,10,-1
 221 700 l 2,11,12
 353 700 353 700 420 651.5 c 128,-1,13
 487 603 487 603 487 515 c 0,14,15
 487 415 487 415 403 368 c 2,16,-1
 369 349 l 1,17,-1
 496 0 l 1,18,-1
 464 0 l 1,0,-1
251 -176 m 1,19,20
 294 -143 294 -143 294 -95 c 1,21,-1
 265 -95 l 1,22,-1
 265 -37 l 1,23,-1
 331 -37 l 1,24,25
 331 -108 331 -108 318 -138 c 128,-1,26
 305 -168 305 -168 271 -198 c 1,27,-1
 251 -176 l 1,19,20
EndSplineSet
EndChar

StartChar: rcommaaccent
Encoding: 343 343 266
Width: 516
GlyphClass: 2
Flags: W
LayerCount: 2
Fore
SplineSet
222 -176 m 1,0,1
 265 -143 265 -143 265 -95 c 1,2,-1
 236 -95 l 1,3,-1
 236 -37 l 1,4,-1
 302 -37 l 1,5,6
 302 -108 302 -108 289 -138 c 128,-1,7
 276 -168 276 -168 242 -198 c 1,8,-1
 222 -176 l 1,0,1
339 291 m 1,9,-1
 475 0 l 1,10,-1
 442 0 l 1,11,-1
 302 300 l 1,12,13
 304 301 304 301 319.5 308.5 c 128,-1,14
 335 316 335 316 341 319.5 c 128,-1,15
 347 323 347 323 361 332 c 128,-1,16
 375 341 375 341 382 349.5 c 128,-1,17
 389 358 389 358 397.5 369.5 c 128,-1,18
 406 381 406 381 410 395.5 c 128,-1,19
 414 410 414 410 414 427 c 0,20,21
 414 490 414 490 354 520 c 128,-1,22
 294 550 294 550 205 550 c 2,23,-1
 125 550 l 1,24,-1
 125 0 l 1,25,-1
 95 0 l 1,26,-1
 95 580 l 1,27,-1
 205 580 l 2,28,29
 323 580 323 580 383.5 539 c 128,-1,30
 444 498 444 498 444 427 c 0,31,32
 444 381 444 381 413 345.5 c 128,-1,33
 382 310 382 310 339 291 c 1,9,-1
EndSplineSet
EndChar

StartChar: Rcaron
Encoding: 344 344 267
Width: 550
GlyphClass: 2
Flags: W
LayerCount: 2
Fore
SplineSet
271 711 m 1,0,-1
 154 851 l 1,1,-1
 177 870 l 1,2,-1
 271 758 l 1,3,-1
 365 870 l 1,4,-1
 388 851 l 1,5,-1
 271 711 l 1,0,-1
177 30 m 1,6,-1
 453 30 l 1,7,-1
 332 362 l 1,8,-1
 388 394 l 1,9,10
 457 432 457 432 457 515 c 0,11,12
 457 670 457 670 221 670 c 2,13,-1
 129 670 l 1,14,-1
 129 0 l 1,15,-1
 99 0 l 1,16,-1
 99 700 l 1,17,-1
 221 700 l 2,18,19
 353 700 353 700 420 651.5 c 128,-1,20
 487 603 487 603 487 515 c 0,21,22
 487 415 487 415 403 368 c 2,23,-1
 369 349 l 1,24,-1
 496 0 l 1,25,-1
 177 0 l 1,26,-1
 177 30 l 1,6,-1
EndSplineSet
EndChar

StartChar: rcaron
Encoding: 345 345 268
Width: 516
GlyphClass: 2
Flags: W
LayerCount: 2
Fore
SplineSet
253 601 m 1,0,-1
 136 741 l 1,1,-1
 159 760 l 1,2,-1
 253 648 l 1,3,-1
 347 760 l 1,4,-1
 370 741 l 1,5,-1
 253 601 l 1,0,-1
339 291 m 1,6,-1
 475 0 l 1,7,-1
 442 0 l 1,8,-1
 302 300 l 1,9,10
 304 301 304 301 319.5 308.5 c 128,-1,11
 335 316 335 316 341 319.5 c 128,-1,12
 347 323 347 323 361 332 c 128,-1,13
 375 341 375 341 382 349.5 c 128,-1,14
 389 358 389 358 397.5 369.5 c 128,-1,15
 406 381 406 381 410 395.5 c 128,-1,16
 414 410 414 410 414 427 c 0,17,18
 414 490 414 490 354 520 c 128,-1,19
 294 550 294 550 205 550 c 2,20,-1
 125 550 l 1,21,-1
 125 0 l 1,22,-1
 95 0 l 1,23,-1
 95 580 l 1,24,-1
 205 580 l 2,25,26
 323 580 323 580 383.5 539 c 128,-1,27
 444 498 444 498 444 427 c 0,28,29
 444 381 444 381 413 345.5 c 128,-1,30
 382 310 382 310 339 291 c 1,6,-1
EndSplineSet
EndChar

StartChar: Sacute
Encoding: 346 346 269
Width: 561
GlyphClass: 2
Flags: W
LayerCount: 2
Fore
SplineSet
393 860 m 1,0,-1
 276 721 l 1,1,-1
 253 740 l 1,2,-1
 370 880 l 1,3,-1
 393 860 l 1,0,-1
78 527 m 0,4,5
 78 624 78 624 127 667 c 128,-1,6
 176 710 176 710 286 710 c 0,7,8
 363 710 363 710 410 670 c 128,-1,9
 457 630 457 630 478 548 c 1,10,-1
 385 478 l 1,11,-1
 336 478 l 1,12,-1
 444 559 l 1,13,14
 423 626 423 626 383.5 653 c 128,-1,15
 344 680 344 680 286 680 c 0,16,17
 246 680 246 680 218.5 675 c 128,-1,18
 191 670 191 670 163.5 655.5 c 128,-1,19
 136 641 136 641 122 609 c 128,-1,20
 108 577 108 577 108 527 c 0,21,22
 108 483 108 483 148.5 449 c 128,-1,23
 189 415 189 415 247 391 c 128,-1,24
 305 367 305 367 363.5 342 c 128,-1,25
 422 317 422 317 462.5 278 c 128,-1,26
 503 239 503 239 503 188 c 0,27,28
 503 88 503 88 453.5 39 c 128,-1,29
 404 -10 404 -10 284 -10 c 0,30,31
 186 -10 186 -10 130 29.5 c 128,-1,32
 74 69 74 69 53 152 c 1,33,-1
 81 164 l 1,34,35
 101 83 101 83 149.5 51.5 c 128,-1,36
 198 20 198 20 284 20 c 0,37,38
 380 20 380 20 426.5 57 c 128,-1,39
 473 94 473 94 473 188 c 0,40,41
 473 232 473 232 432.5 266 c 128,-1,42
 392 300 392 300 333.5 324 c 128,-1,43
 275 348 275 348 217 373 c 128,-1,44
 159 398 159 398 118.5 437 c 128,-1,45
 78 476 78 476 78 527 c 0,4,5
EndSplineSet
EndChar

StartChar: sacute
Encoding: 347 347 270
Width: 517
GlyphClass: 2
Flags: W
LayerCount: 2
Fore
SplineSet
357 764 m 1,0,-1
 240 625 l 1,1,-1
 217 644 l 1,2,-1
 334 784 l 1,3,-1
 357 764 l 1,0,-1
248 592 m 0,4,5
 372 592 372 592 424 537 c 1,6,-1
 404 515 l 1,7,8
 356 562 356 562 252 562 c 0,9,10
 96 562 96 562 96 438 c 0,11,12
 96 390 96 390 134 361.5 c 128,-1,13
 172 333 172 333 226.5 318 c 128,-1,14
 281 303 281 303 335.5 286.5 c 128,-1,15
 390 270 390 270 428 233.5 c 128,-1,16
 466 197 466 197 466 138 c 0,17,18
 466 69 466 69 409 28 c 128,-1,19
 352 -13 352 -13 244 -13 c 0,20,21
 191 -13 191 -13 139.5 1 c 128,-1,22
 88 15 88 15 63 42 c 1,23,-1
 83 64 l 1,24,25
 134 17 134 17 240 17 c 0,26,27
 337 17 337 17 386.5 53 c 128,-1,28
 436 89 436 89 436 137 c 0,29,30
 436 187 436 187 398 218 c 128,-1,31
 360 249 360 249 305.5 264.5 c 128,-1,32
 251 280 251 280 196.5 296.5 c 128,-1,33
 142 313 142 313 104 348 c 128,-1,34
 66 383 66 383 66 440 c 0,35,36
 66 517 66 517 117.5 554.5 c 128,-1,37
 169 592 169 592 248 592 c 0,4,5
EndSplineSet
EndChar

StartChar: Scircumflex
Encoding: 348 348 271
Width: 563
GlyphClass: 2
Flags: W
LayerCount: 2
Fore
SplineSet
270 864 m 1,0,-1
 387 724 l 1,1,-1
 364 705 l 1,2,-1
 270 817 l 1,3,-1
 176 705 l 1,4,-1
 153 724 l 1,5,-1
 270 864 l 1,0,-1
79 527 m 0,6,7
 79 624 79 624 128 667 c 128,-1,8
 177 710 177 710 287 710 c 0,9,10
 364 710 364 710 411 670 c 128,-1,11
 458 630 458 630 479 548 c 1,12,-1
 386 478 l 1,13,-1
 337 478 l 1,14,-1
 445 559 l 1,15,16
 424 626 424 626 384.5 653 c 128,-1,17
 345 680 345 680 287 680 c 0,18,19
 247 680 247 680 219.5 675 c 128,-1,20
 192 670 192 670 164.5 655.5 c 128,-1,21
 137 641 137 641 123 609 c 128,-1,22
 109 577 109 577 109 527 c 0,23,24
 109 483 109 483 149.5 449 c 128,-1,25
 190 415 190 415 248 391 c 128,-1,26
 306 367 306 367 364.5 342 c 128,-1,27
 423 317 423 317 463.5 278 c 128,-1,28
 504 239 504 239 504 188 c 0,29,30
 504 88 504 88 454.5 39 c 128,-1,31
 405 -10 405 -10 285 -10 c 0,32,33
 187 -10 187 -10 131 29.5 c 128,-1,34
 75 69 75 69 54 152 c 1,35,-1
 82 164 l 1,36,37
 102 83 102 83 150.5 51.5 c 128,-1,38
 199 20 199 20 285 20 c 0,39,40
 381 20 381 20 427.5 57 c 128,-1,41
 474 94 474 94 474 188 c 0,42,43
 474 232 474 232 433.5 266 c 128,-1,44
 393 300 393 300 334.5 324 c 128,-1,45
 276 348 276 348 218 373 c 128,-1,46
 160 398 160 398 119.5 437 c 128,-1,47
 79 476 79 476 79 527 c 0,6,7
EndSplineSet
EndChar

StartChar: scircumflex
Encoding: 349 349 272
Width: 517
GlyphClass: 2
Flags: W
LayerCount: 2
Fore
SplineSet
250 784 m 1,0,-1
 367 644 l 1,1,-1
 344 625 l 1,2,-1
 250 737 l 1,3,-1
 156 625 l 1,4,-1
 133 644 l 1,5,-1
 250 784 l 1,0,-1
248 592 m 0,6,7
 372 592 372 592 424 537 c 1,8,-1
 404 515 l 1,9,10
 356 562 356 562 252 562 c 0,11,12
 96 562 96 562 96 438 c 0,13,14
 96 390 96 390 134 361.5 c 128,-1,15
 172 333 172 333 226.5 318 c 128,-1,16
 281 303 281 303 335.5 286.5 c 128,-1,17
 390 270 390 270 428 233.5 c 128,-1,18
 466 197 466 197 466 138 c 0,19,20
 466 69 466 69 409 28 c 128,-1,21
 352 -13 352 -13 244 -13 c 0,22,23
 191 -13 191 -13 139.5 1 c 128,-1,24
 88 15 88 15 63 42 c 1,25,-1
 83 64 l 1,26,27
 134 17 134 17 240 17 c 0,28,29
 337 17 337 17 386.5 53 c 128,-1,30
 436 89 436 89 436 137 c 0,31,32
 436 187 436 187 398 218 c 128,-1,33
 360 249 360 249 305.5 264.5 c 128,-1,34
 251 280 251 280 196.5 296.5 c 128,-1,35
 142 313 142 313 104 348 c 128,-1,36
 66 383 66 383 66 440 c 0,37,38
 66 517 66 517 117.5 554.5 c 128,-1,39
 169 592 169 592 248 592 c 0,6,7
EndSplineSet
EndChar

StartChar: Scedilla
Encoding: 350 350 273
Width: 561
GlyphClass: 2
Flags: W
LayerCount: 2
Fore
SplineSet
225 -176 m 1,0,1
 268 -143 268 -143 268 -95 c 1,2,-1
 239 -95 l 1,3,-1
 239 -37 l 1,4,-1
 305 -37 l 1,5,6
 305 -108 305 -108 292 -138 c 128,-1,7
 279 -168 279 -168 245 -198 c 1,8,-1
 225 -176 l 1,0,1
78 527 m 0,9,10
 78 624 78 624 127 667 c 128,-1,11
 176 710 176 710 286 710 c 0,12,13
 363 710 363 710 410 670 c 128,-1,14
 457 630 457 630 478 548 c 1,15,-1
 385 478 l 1,16,-1
 336 478 l 1,17,-1
 444 559 l 1,18,19
 423 626 423 626 383.5 653 c 128,-1,20
 344 680 344 680 286 680 c 0,21,22
 246 680 246 680 218.5 675 c 128,-1,23
 191 670 191 670 163.5 655.5 c 128,-1,24
 136 641 136 641 122 609 c 128,-1,25
 108 577 108 577 108 527 c 0,26,27
 108 483 108 483 148.5 449 c 128,-1,28
 189 415 189 415 247 391 c 128,-1,29
 305 367 305 367 363.5 342 c 128,-1,30
 422 317 422 317 462.5 278 c 128,-1,31
 503 239 503 239 503 188 c 0,32,33
 503 88 503 88 453.5 39 c 128,-1,34
 404 -10 404 -10 284 -10 c 0,35,36
 186 -10 186 -10 130 29.5 c 128,-1,37
 74 69 74 69 53 152 c 1,38,-1
 81 164 l 1,39,40
 101 83 101 83 149.5 51.5 c 128,-1,41
 198 20 198 20 284 20 c 0,42,43
 380 20 380 20 426.5 57 c 128,-1,44
 473 94 473 94 473 188 c 0,45,46
 473 232 473 232 432.5 266 c 128,-1,47
 392 300 392 300 333.5 324 c 128,-1,48
 275 348 275 348 217 373 c 128,-1,49
 159 398 159 398 118.5 437 c 128,-1,50
 78 476 78 476 78 527 c 0,9,10
EndSplineSet
EndChar

StartChar: scedilla
Encoding: 351 351 274
Width: 517
GlyphClass: 2
Flags: W
LayerCount: 2
Fore
SplineSet
205 -176 m 1,0,1
 248 -143 248 -143 248 -95 c 1,2,-1
 219 -95 l 1,3,-1
 219 -37 l 1,4,-1
 285 -37 l 1,5,6
 285 -108 285 -108 272 -138 c 128,-1,7
 259 -168 259 -168 225 -198 c 1,8,-1
 205 -176 l 1,0,1
247 592 m 0,9,10
 371 592 371 592 423 537 c 1,11,-1
 403 515 l 1,12,13
 355 562 355 562 251 562 c 0,14,15
 95 562 95 562 95 438 c 0,16,17
 95 390 95 390 133 361.5 c 128,-1,18
 171 333 171 333 225.5 318 c 128,-1,19
 280 303 280 303 334.5 286.5 c 128,-1,20
 389 270 389 270 427 233.5 c 128,-1,21
 465 197 465 197 465 138 c 0,22,23
 465 69 465 69 408 28 c 128,-1,24
 351 -13 351 -13 243 -13 c 0,25,26
 190 -13 190 -13 138.5 1 c 128,-1,27
 87 15 87 15 62 42 c 1,28,-1
 82 64 l 1,29,30
 133 17 133 17 239 17 c 0,31,32
 336 17 336 17 385.5 53 c 128,-1,33
 435 89 435 89 435 137 c 0,34,35
 435 187 435 187 397 218 c 128,-1,36
 359 249 359 249 304.5 264.5 c 128,-1,37
 250 280 250 280 195.5 296.5 c 128,-1,38
 141 313 141 313 103 348 c 128,-1,39
 65 383 65 383 65 440 c 0,40,41
 65 517 65 517 116.5 554.5 c 128,-1,42
 168 592 168 592 247 592 c 0,9,10
EndSplineSet
EndChar

StartChar: Scaron
Encoding: 352 352 275
Width: 561
GlyphClass: 2
Flags: W
LayerCount: 2
Fore
SplineSet
274 711 m 1,0,-1
 157 851 l 1,1,-1
 180 870 l 1,2,-1
 274 758 l 1,3,-1
 368 870 l 1,4,-1
 391 851 l 1,5,-1
 274 711 l 1,0,-1
78 527 m 0,6,7
 78 624 78 624 127 667 c 128,-1,8
 176 710 176 710 286 710 c 0,9,10
 363 710 363 710 410 670 c 128,-1,11
 457 630 457 630 478 548 c 1,12,-1
 385 478 l 1,13,-1
 336 478 l 1,14,-1
 444 559 l 1,15,16
 423 626 423 626 383.5 653 c 128,-1,17
 344 680 344 680 286 680 c 0,18,19
 246 680 246 680 218.5 675 c 128,-1,20
 191 670 191 670 163.5 655.5 c 128,-1,21
 136 641 136 641 122 609 c 128,-1,22
 108 577 108 577 108 527 c 0,23,24
 108 483 108 483 148.5 449 c 128,-1,25
 189 415 189 415 247 391 c 128,-1,26
 305 367 305 367 363.5 342 c 128,-1,27
 422 317 422 317 462.5 278 c 128,-1,28
 503 239 503 239 503 188 c 0,29,30
 503 88 503 88 453.5 39 c 128,-1,31
 404 -10 404 -10 284 -10 c 0,32,33
 186 -10 186 -10 130 29.5 c 128,-1,34
 74 69 74 69 53 152 c 1,35,-1
 81 164 l 1,36,37
 101 83 101 83 149.5 51.5 c 128,-1,38
 198 20 198 20 284 20 c 0,39,40
 380 20 380 20 426.5 57 c 128,-1,41
 473 94 473 94 473 188 c 0,42,43
 473 232 473 232 432.5 266 c 128,-1,44
 392 300 392 300 333.5 324 c 128,-1,45
 275 348 275 348 217 373 c 128,-1,46
 159 398 159 398 118.5 437 c 128,-1,47
 78 476 78 476 78 527 c 0,6,7
EndSplineSet
EndChar

StartChar: scaron
Encoding: 353 353 276
Width: 517
GlyphClass: 2
Flags: W
LayerCount: 2
Fore
SplineSet
242 601 m 1,0,-1
 125 741 l 1,1,-1
 148 760 l 1,2,-1
 242 648 l 1,3,-1
 336 760 l 1,4,-1
 359 741 l 1,5,-1
 242 601 l 1,0,-1
248 592 m 0,6,7
 372 592 372 592 424 537 c 1,8,-1
 404 515 l 1,9,10
 356 562 356 562 252 562 c 0,11,12
 96 562 96 562 96 438 c 0,13,14
 96 390 96 390 134 361.5 c 128,-1,15
 172 333 172 333 226.5 318 c 128,-1,16
 281 303 281 303 335.5 286.5 c 128,-1,17
 390 270 390 270 428 233.5 c 128,-1,18
 466 197 466 197 466 138 c 0,19,20
 466 69 466 69 409 28 c 128,-1,21
 352 -13 352 -13 244 -13 c 0,22,23
 191 -13 191 -13 139.5 1 c 128,-1,24
 88 15 88 15 63 42 c 1,25,-1
 83 64 l 1,26,27
 134 17 134 17 240 17 c 0,28,29
 337 17 337 17 386.5 53 c 128,-1,30
 436 89 436 89 436 137 c 0,31,32
 436 187 436 187 398 218 c 128,-1,33
 360 249 360 249 305.5 264.5 c 128,-1,34
 251 280 251 280 196.5 296.5 c 128,-1,35
 142 313 142 313 104 348 c 128,-1,36
 66 383 66 383 66 440 c 0,37,38
 66 517 66 517 117.5 554.5 c 128,-1,39
 169 592 169 592 248 592 c 0,6,7
EndSplineSet
EndChar

StartChar: Tcommaaccent
Encoding: 354 354 277
Width: 528
GlyphClass: 2
Flags: W
LayerCount: 2
Fore
SplineSet
217 -176 m 1,0,1
 260 -143 260 -143 260 -95 c 1,2,-1
 231 -95 l 1,3,-1
 231 -37 l 1,4,-1
 297 -37 l 1,5,6
 297 -108 297 -108 284 -138 c 128,-1,7
 271 -168 271 -168 237 -198 c 1,8,-1
 217 -176 l 1,0,1
514 700 m 1,9,-1
 514 670 l 1,10,-1
 279 670 l 1,11,-1
 279 0 l 1,12,-1
 249 0 l 1,13,-1
 249 670 l 1,14,-1
 14 670 l 1,15,-1
 14 700 l 1,16,-1
 514 700 l 1,9,-1
EndSplineSet
EndChar

StartChar: tcommaaccent
Encoding: 355 355 278
Width: 488
GlyphClass: 2
Flags: W
LayerCount: 2
Fore
SplineSet
200 -176 m 1,0,1
 243 -143 243 -143 243 -95 c 1,2,-1
 214 -95 l 1,3,-1
 214 -37 l 1,4,-1
 280 -37 l 1,5,6
 280 -108 280 -108 267 -138 c 128,-1,7
 254 -168 254 -168 220 -198 c 1,8,-1
 200 -176 l 1,0,1
469 580 m 1,9,-1
 469 550 l 1,10,-1
 259 550 l 1,11,-1
 259 0 l 1,12,-1
 229 0 l 1,13,-1
 229 550 l 1,14,-1
 19 550 l 1,15,-1
 19 580 l 1,16,-1
 469 580 l 1,9,-1
EndSplineSet
EndChar

StartChar: Tcaron
Encoding: 356 356 279
Width: 530
GlyphClass: 2
Flags: W
LayerCount: 2
Fore
SplineSet
266 711 m 1,0,-1
 149 851 l 1,1,-1
 172 870 l 1,2,-1
 266 758 l 1,3,-1
 360 870 l 1,4,-1
 383 851 l 1,5,-1
 266 711 l 1,0,-1
515 700 m 1,6,-1
 515 670 l 1,7,-1
 280 670 l 1,8,-1
 280 0 l 1,9,-1
 250 0 l 1,10,-1
 250 670 l 1,11,-1
 15 670 l 1,12,-1
 15 700 l 1,13,-1
 515 700 l 1,6,-1
EndSplineSet
EndChar

StartChar: tcaron
Encoding: 357 357 280
Width: 490
GlyphClass: 2
Flags: W
LayerCount: 2
Fore
SplineSet
245 601 m 1,0,-1
 128 741 l 1,1,-1
 151 760 l 1,2,-1
 245 648 l 1,3,-1
 339 760 l 1,4,-1
 362 741 l 1,5,-1
 245 601 l 1,0,-1
470 580 m 1,6,-1
 470 550 l 1,7,-1
 260 550 l 1,8,-1
 260 0 l 1,9,-1
 230 0 l 1,10,-1
 230 550 l 1,11,-1
 20 550 l 1,12,-1
 20 580 l 1,13,-1
 470 580 l 1,6,-1
EndSplineSet
EndChar

StartChar: Tbar
Encoding: 358 358 281
Width: 530
GlyphClass: 2
Flags: W
LayerCount: 2
Fore
SplineSet
515 700 m 1,0,-1
 515 670 l 1,1,-1
 280 670 l 1,2,-1
 280 482 l 1,3,-1
 408 482 l 1,4,-1
 408 452 l 1,5,-1
 280 452 l 1,6,-1
 280 0 l 1,7,-1
 250 0 l 1,8,-1
 250 452 l 1,9,-1
 122 452 l 1,10,-1
 122 482 l 1,11,-1
 250 482 l 1,12,-1
 250 670 l 1,13,-1
 15 670 l 1,14,-1
 15 700 l 1,15,-1
 515 700 l 1,0,-1
EndSplineSet
EndChar

StartChar: tbar
Encoding: 359 359 282
Width: 490
GlyphClass: 2
Flags: W
LayerCount: 2
Fore
SplineSet
470 580 m 1,0,-1
 470 550 l 1,1,-1
 260 550 l 1,2,-1
 260 370 l 1,3,-1
 388 370 l 1,4,-1
 388 340 l 1,5,-1
 260 340 l 1,6,-1
 260 0 l 1,7,-1
 230 0 l 1,8,-1
 230 340 l 1,9,-1
 102 340 l 1,10,-1
 102 370 l 1,11,-1
 230 370 l 1,12,-1
 230 550 l 1,13,-1
 20 550 l 1,14,-1
 20 580 l 1,15,-1
 470 580 l 1,0,-1
EndSplineSet
EndChar

StartChar: Utilde
Encoding: 360 360 283
Width: 646
GlyphClass: 2
Flags: W
LayerCount: 2
Fore
SplineSet
556 700 m 1,0,-1
 556 301 l 2,1,2
 556 141 556 141 501 65.5 c 128,-1,3
 446 -10 446 -10 323 -10 c 128,-1,4
 200 -10 200 -10 145 65.5 c 128,-1,5
 90 141 90 141 90 301 c 2,6,-1
 90 700 l 1,7,-1
 120 700 l 1,8,-1
 120 301 l 2,9,10
 120 218 120 218 134 161.5 c 128,-1,11
 148 105 148 105 176 75 c 128,-1,12
 204 45 204 45 239 32.5 c 128,-1,13
 274 20 274 20 323 20 c 128,-1,14
 372 20 372 20 407 32.5 c 128,-1,15
 442 45 442 45 470 75 c 128,-1,16
 498 105 498 105 512 161.5 c 128,-1,17
 526 218 526 218 526 301 c 2,18,-1
 526 700 l 1,19,-1
 556 700 l 1,0,-1
372 722 m 0,20,21
 344 722 344 722 319 746 c 128,-1,22
 294 770 294 770 274 770 c 0,23,24
 258 770 258 770 246 757 c 128,-1,25
 234 744 234 744 234 722 c 1,26,-1
 204 722 l 1,27,28
 204 757 204 757 225.5 778.5 c 128,-1,29
 247 800 247 800 274 800 c 0,30,31
 302 800 302 800 327 776 c 128,-1,32
 352 752 352 752 372 752 c 0,33,34
 388 752 388 752 400 765 c 128,-1,35
 412 778 412 778 412 800 c 1,36,-1
 442 800 l 1,37,38
 442 765 442 765 420.5 743.5 c 128,-1,39
 399 722 399 722 372 722 c 0,20,21
EndSplineSet
EndChar

StartChar: utilde
Encoding: 361 361 284
Width: 586
GlyphClass: 2
Flags: W
LayerCount: 2
Fore
SplineSet
115 580 m 1,0,-1
 115 290 l 2,1,2
 115 141 115 141 162.5 80.5 c 128,-1,3
 210 20 210 20 293 20 c 128,-1,4
 376 20 376 20 423.5 80.5 c 128,-1,5
 471 141 471 141 471 290 c 2,6,-1
 471 580 l 1,7,-1
 501 580 l 1,8,-1
 501 290 l 2,9,10
 501 -10 501 -10 293 -10 c 128,-1,11
 85 -10 85 -10 85 290 c 2,12,-1
 85 580 l 1,13,-1
 115 580 l 1,0,-1
342 622 m 0,14,15
 314 622 314 622 289 646 c 128,-1,16
 264 670 264 670 244 670 c 0,17,18
 228 670 228 670 216 657 c 128,-1,19
 204 644 204 644 204 622 c 1,20,-1
 174 622 l 1,21,22
 174 657 174 657 195.5 678.5 c 128,-1,23
 217 700 217 700 244 700 c 0,24,25
 272 700 272 700 297 676 c 128,-1,26
 322 652 322 652 342 652 c 0,27,28
 358 652 358 652 370 665 c 128,-1,29
 382 678 382 678 382 700 c 1,30,-1
 412 700 l 1,31,32
 412 665 412 665 390.5 643.5 c 128,-1,33
 369 622 369 622 342 622 c 0,14,15
EndSplineSet
EndChar

StartChar: Umacron
Encoding: 362 362 285
Width: 646
GlyphClass: 2
Flags: W
LayerCount: 2
Fore
SplineSet
556 700 m 1,0,-1
 556 301 l 2,1,2
 556 141 556 141 501 65.5 c 128,-1,3
 446 -10 446 -10 323 -10 c 128,-1,4
 200 -10 200 -10 145 65.5 c 128,-1,5
 90 141 90 141 90 301 c 2,6,-1
 90 700 l 1,7,-1
 120 700 l 1,8,-1
 120 301 l 2,9,10
 120 218 120 218 134 161.5 c 128,-1,11
 148 105 148 105 176 75 c 128,-1,12
 204 45 204 45 239 32.5 c 128,-1,13
 274 20 274 20 323 20 c 128,-1,14
 372 20 372 20 407 32.5 c 128,-1,15
 442 45 442 45 470 75 c 128,-1,16
 498 105 498 105 512 161.5 c 128,-1,17
 526 218 526 218 526 301 c 2,18,-1
 526 700 l 1,19,-1
 556 700 l 1,0,-1
213 770 m 1,20,-1
 213 800 l 1,21,-1
 433 800 l 1,22,-1
 433 770 l 1,23,-1
 213 770 l 1,20,-1
EndSplineSet
EndChar

StartChar: umacron
Encoding: 363 363 286
Width: 586
GlyphClass: 2
Flags: W
LayerCount: 2
Fore
SplineSet
183 670 m 1,0,-1
 183 700 l 1,1,-1
 403 700 l 1,2,-1
 403 670 l 1,3,-1
 183 670 l 1,0,-1
115 580 m 1,4,-1
 115 290 l 2,5,6
 115 141 115 141 162.5 80.5 c 128,-1,7
 210 20 210 20 293 20 c 128,-1,8
 376 20 376 20 423.5 80.5 c 128,-1,9
 471 141 471 141 471 290 c 2,10,-1
 471 580 l 1,11,-1
 501 580 l 1,12,-1
 501 290 l 2,13,14
 501 -10 501 -10 293 -10 c 128,-1,15
 85 -10 85 -10 85 290 c 2,16,-1
 85 580 l 1,17,-1
 115 580 l 1,4,-1
EndSplineSet
EndChar

StartChar: Ubreve
Encoding: 364 364 287
Width: 646
GlyphClass: 2
Flags: W
LayerCount: 2
Fore
SplineSet
556 700 m 1,0,-1
 556 301 l 2,1,2
 556 141 556 141 501 65.5 c 128,-1,3
 446 -10 446 -10 323 -10 c 128,-1,4
 200 -10 200 -10 145 65.5 c 128,-1,5
 90 141 90 141 90 301 c 2,6,-1
 90 700 l 1,7,-1
 120 700 l 1,8,-1
 120 301 l 2,9,10
 120 218 120 218 134 161.5 c 128,-1,11
 148 105 148 105 176 75 c 128,-1,12
 204 45 204 45 239 32.5 c 128,-1,13
 274 20 274 20 323 20 c 128,-1,14
 372 20 372 20 407 32.5 c 128,-1,15
 442 45 442 45 470 75 c 128,-1,16
 498 105 498 105 512 161.5 c 128,-1,17
 526 218 526 218 526 301 c 2,18,-1
 526 700 l 1,19,-1
 556 700 l 1,0,-1
423 819 m 1,20,21
 423 776 423 776 393 747.5 c 128,-1,22
 363 719 363 719 323 719 c 0,23,24
 280 719 280 719 251.5 749 c 128,-1,25
 223 779 223 779 223 819 c 1,26,-1
 253 819 l 1,27,28
 253 789 253 789 274 769 c 128,-1,29
 295 749 295 749 323 749 c 0,30,31
 353 749 353 749 373 770 c 128,-1,32
 393 791 393 791 393 819 c 1,33,-1
 423 819 l 1,20,21
EndSplineSet
EndChar

StartChar: ubreve
Encoding: 365 365 288
Width: 586
GlyphClass: 2
Flags: W
LayerCount: 2
Fore
SplineSet
391 719 m 1,0,1
 391 676 391 676 361 647.5 c 128,-1,2
 331 619 331 619 291 619 c 0,3,4
 248 619 248 619 219.5 649 c 128,-1,5
 191 679 191 679 191 719 c 1,6,-1
 221 719 l 1,7,8
 221 689 221 689 242 669 c 128,-1,9
 263 649 263 649 291 649 c 0,10,11
 321 649 321 649 341 670 c 128,-1,12
 361 691 361 691 361 719 c 1,13,-1
 391 719 l 1,0,1
115 580 m 1,14,-1
 115 290 l 2,15,16
 115 141 115 141 162.5 80.5 c 128,-1,17
 210 20 210 20 293 20 c 128,-1,18
 376 20 376 20 423.5 80.5 c 128,-1,19
 471 141 471 141 471 290 c 2,20,-1
 471 580 l 1,21,-1
 501 580 l 1,22,-1
 501 290 l 2,23,24
 501 -10 501 -10 293 -10 c 128,-1,25
 85 -10 85 -10 85 290 c 2,26,-1
 85 580 l 1,27,-1
 115 580 l 1,14,-1
EndSplineSet
EndChar

StartChar: Uring
Encoding: 366 366 289
Width: 646
GlyphClass: 2
Flags: W
LayerCount: 2
Fore
SplineSet
556 700 m 1,0,-1
 556 301 l 2,1,2
 556 141 556 141 501 65.5 c 128,-1,3
 446 -10 446 -10 323 -10 c 128,-1,4
 200 -10 200 -10 145 65.5 c 128,-1,5
 90 141 90 141 90 301 c 2,6,-1
 90 700 l 1,7,-1
 120 700 l 1,8,-1
 120 301 l 2,9,10
 120 218 120 218 134 161.5 c 128,-1,11
 148 105 148 105 176 75 c 128,-1,12
 204 45 204 45 239 32.5 c 128,-1,13
 274 20 274 20 323 20 c 128,-1,14
 372 20 372 20 407 32.5 c 128,-1,15
 442 45 442 45 470 75 c 128,-1,16
 498 105 498 105 512 161.5 c 128,-1,17
 526 218 526 218 526 301 c 2,18,-1
 526 700 l 1,19,-1
 556 700 l 1,0,-1
323 838 m 0,20,21
 304 838 304 838 291 824.5 c 128,-1,22
 278 811 278 811 278 793 c 0,23,24
 278 774 278 774 291.5 761 c 128,-1,25
 305 748 305 748 323 748 c 0,26,27
 342 748 342 748 355 761.5 c 128,-1,28
 368 775 368 775 368 793 c 0,29,30
 368 812 368 812 354.5 825 c 128,-1,31
 341 838 341 838 323 838 c 0,20,21
323 863 m 0,32,33
 351 863 351 863 372 843 c 128,-1,34
 393 823 393 823 393 793 c 0,35,36
 393 765 393 765 373 744 c 128,-1,37
 353 723 353 723 323 723 c 0,38,39
 295 723 295 723 274 743 c 128,-1,40
 253 763 253 763 253 793 c 0,41,42
 253 821 253 821 273 842 c 128,-1,43
 293 863 293 863 323 863 c 0,32,33
EndSplineSet
EndChar

StartChar: uring
Encoding: 367 367 290
Width: 586
GlyphClass: 2
Flags: W
LayerCount: 2
Fore
SplineSet
300 746 m 0,0,1
 281 746 281 746 268 732.5 c 128,-1,2
 255 719 255 719 255 701 c 0,3,4
 255 682 255 682 268.5 669 c 128,-1,5
 282 656 282 656 300 656 c 0,6,7
 319 656 319 656 332 669.5 c 128,-1,8
 345 683 345 683 345 701 c 0,9,10
 345 720 345 720 331.5 733 c 128,-1,11
 318 746 318 746 300 746 c 0,0,1
300 771 m 0,12,13
 328 771 328 771 349 751 c 128,-1,14
 370 731 370 731 370 701 c 0,15,16
 370 673 370 673 350 652 c 128,-1,17
 330 631 330 631 300 631 c 0,18,19
 272 631 272 631 251 651 c 128,-1,20
 230 671 230 671 230 701 c 0,21,22
 230 729 230 729 250 750 c 128,-1,23
 270 771 270 771 300 771 c 0,12,13
115 580 m 1,24,-1
 115 290 l 2,25,26
 115 141 115 141 162.5 80.5 c 128,-1,27
 210 20 210 20 293 20 c 128,-1,28
 376 20 376 20 423.5 80.5 c 128,-1,29
 471 141 471 141 471 290 c 2,30,-1
 471 580 l 1,31,-1
 501 580 l 1,32,-1
 501 290 l 2,33,34
 501 -10 501 -10 293 -10 c 128,-1,35
 85 -10 85 -10 85 290 c 2,36,-1
 85 580 l 1,37,-1
 115 580 l 1,24,-1
EndSplineSet
EndChar

StartChar: Uhungarumlaut
Encoding: 368 368 291
Width: 646
GlyphClass: 2
Flags: W
LayerCount: 2
Fore
SplineSet
556 700 m 1,0,-1
 556 301 l 2,1,2
 556 141 556 141 501 65.5 c 128,-1,3
 446 -10 446 -10 323 -10 c 128,-1,4
 200 -10 200 -10 145 65.5 c 128,-1,5
 90 141 90 141 90 301 c 2,6,-1
 90 700 l 1,7,-1
 120 700 l 1,8,-1
 120 301 l 2,9,10
 120 218 120 218 134 161.5 c 128,-1,11
 148 105 148 105 176 75 c 128,-1,12
 204 45 204 45 239 32.5 c 128,-1,13
 274 20 274 20 323 20 c 128,-1,14
 372 20 372 20 407 32.5 c 128,-1,15
 442 45 442 45 470 75 c 128,-1,16
 498 105 498 105 512 161.5 c 128,-1,17
 526 218 526 218 526 301 c 2,18,-1
 526 700 l 1,19,-1
 556 700 l 1,0,-1
360 860 m 1,20,-1
 243 721 l 1,21,-1
 220 740 l 1,22,-1
 337 880 l 1,23,-1
 360 860 l 1,20,-1
480 860 m 1,24,-1
 363 721 l 1,25,-1
 340 740 l 1,26,-1
 457 880 l 1,27,-1
 480 860 l 1,24,-1
EndSplineSet
EndChar

StartChar: uhungarumlaut
Encoding: 369 369 292
Width: 586
GlyphClass: 2
Flags: W
LayerCount: 2
Fore
SplineSet
328 764 m 1,0,-1
 211 625 l 1,1,-1
 188 644 l 1,2,-1
 305 784 l 1,3,-1
 328 764 l 1,0,-1
448 764 m 1,4,-1
 331 625 l 1,5,-1
 308 644 l 1,6,-1
 425 784 l 1,7,-1
 448 764 l 1,4,-1
115 580 m 1,8,-1
 115 290 l 2,9,10
 115 141 115 141 162.5 80.5 c 128,-1,11
 210 20 210 20 293 20 c 128,-1,12
 376 20 376 20 423.5 80.5 c 128,-1,13
 471 141 471 141 471 290 c 2,14,-1
 471 580 l 1,15,-1
 501 580 l 1,16,-1
 501 290 l 2,17,18
 501 -10 501 -10 293 -10 c 128,-1,19
 85 -10 85 -10 85 290 c 2,20,-1
 85 580 l 1,21,-1
 115 580 l 1,8,-1
EndSplineSet
EndChar

StartChar: Uogonek
Encoding: 370 370 293
Width: 647
GlyphClass: 2
Flags: W
LayerCount: 2
Fore
SplineSet
173 700 m 1,0,-1
 555 701 l 1,1,-1
 555 302 l 2,2,3
 555 170 555 170 518.5 96 c 128,-1,4
 482 22 482 22 402 0 c 1,5,6
 361 -26 361 -26 361 -76 c 0,7,8
 361 -114 361 -114 387.5 -140 c 128,-1,9
 414 -166 414 -166 451 -166 c 1,10,-1
 451 -196 l 1,11,12
 402 -196 402 -196 366.5 -161 c 128,-1,13
 331 -126 331 -126 331 -76 c 0,14,15
 331 -40 331 -40 352 -9 c 1,16,17
 343 -10 343 -10 323 -10 c 0,18,19
 200 -10 200 -10 145 65.5 c 128,-1,20
 90 141 90 141 90 301 c 2,21,-1
 90 700 l 1,22,-1
 120 700 l 1,23,-1
 120 301 l 2,24,25
 120 218 120 218 134 161.5 c 128,-1,26
 148 105 148 105 176 75 c 128,-1,27
 204 45 204 45 239 32.5 c 128,-1,28
 274 20 274 20 323 20 c 128,-1,29
 372 20 372 20 407 32.5 c 128,-1,30
 442 45 442 45 470 75 c 128,-1,31
 498 105 498 105 512 161.5 c 128,-1,32
 526 218 526 218 526 301 c 2,33,-1
 526 670 l 1,34,-1
 173 670 l 1,35,-1
 173 700 l 1,0,-1
EndSplineSet
EndChar

StartChar: uogonek
Encoding: 371 371 294
Width: 590
GlyphClass: 2
Flags: W
LayerCount: 2
Fore
SplineSet
115 580 m 1,0,-1
 116 290 l 2,1,2
 116 141 116 141 163.5 80.5 c 128,-1,3
 211 20 211 20 294 20 c 128,-1,4
 377 20 377 20 424.5 80.5 c 128,-1,5
 472 141 472 141 472 290 c 2,6,-1
 472 580 l 1,7,-1
 502 580 l 1,8,-1
 502 290 l 2,9,10
 502 44 502 44 362 0 c 1,11,12
 321 -26 321 -26 321 -76 c 0,13,14
 321 -114 321 -114 347.5 -140 c 128,-1,15
 374 -166 374 -166 411 -166 c 1,16,-1
 411 -196 l 1,17,18
 362 -196 362 -196 326.5 -161 c 128,-1,19
 291 -126 291 -126 291 -76 c 0,20,21
 291 -39 291 -39 311 -10 c 1,22,-1
 293 -10 l 2,23,24
 85 -10 85 -10 85 290 c 2,25,-1
 85 580 l 1,26,-1
 115 580 l 1,0,-1
EndSplineSet
EndChar

StartChar: Wcircumflex
Encoding: 372 372 295
Width: 803
GlyphClass: 2
Flags: W
LayerCount: 2
Fore
SplineSet
786 700 m 1,0,-1
 531 -1 l 1,1,-1
 401 355 l 1,2,-1
 272 -1 l 1,3,-1
 17 700 l 1,4,-1
 49 700 l 1,5,-1
 272 87 l 1,6,-1
 401 443 l 1,7,-1
 531 87 l 1,8,-1
 754 700 l 1,9,-1
 786 700 l 1,0,-1
401 864 m 1,10,-1
 518 724 l 1,11,-1
 495 705 l 1,12,-1
 401 817 l 1,13,-1
 307 705 l 1,14,-1
 284 724 l 1,15,-1
 401 864 l 1,10,-1
EndSplineSet
EndChar

StartChar: wcircumflex
Encoding: 373 373 296
Width: 837
GlyphClass: 2
Flags: W
LayerCount: 2
Fore
SplineSet
819 580 m 1,0,-1
 569 -10 l 1,1,-1
 419 345 l 1,2,-1
 268 -10 l 1,3,-1
 18 580 l 1,4,-1
 50 580 l 1,5,-1
 268 67 l 1,6,-1
 419 422 l 1,7,-1
 569 67 l 1,8,-1
 787 580 l 1,9,-1
 819 580 l 1,0,-1
418 764 m 1,10,-1
 535 624 l 1,11,-1
 512 605 l 1,12,-1
 418 717 l 1,13,-1
 324 605 l 1,14,-1
 301 624 l 1,15,-1
 418 764 l 1,10,-1
EndSplineSet
EndChar

StartChar: Ycircumflex
Encoding: 374 374 297
Width: 546
GlyphClass: 2
Flags: W
LayerCount: 2
Fore
SplineSet
538 700 m 1,0,-1
 288 300 l 1,1,-1
 288 0 l 1,2,-1
 258 0 l 1,3,-1
 258 300 l 1,4,-1
 8 700 l 1,5,-1
 43 700 l 1,6,-1
 273 333 l 1,7,-1
 503 700 l 1,8,-1
 538 700 l 1,0,-1
273 864 m 1,9,-1
 390 724 l 1,10,-1
 367 705 l 1,11,-1
 273 817 l 1,12,-1
 179 705 l 1,13,-1
 156 724 l 1,14,-1
 273 864 l 1,9,-1
EndSplineSet
EndChar

